<svg width="560" height="524" viewBox="0 0 560 524" fill="none" xmlns="http://www.w3.org/2000/svg">
<path d="M166.808 345.5C163.905 343.457 161.963 341.021 160.364 338C159.606 336.569 158.778 335.046 157.933 333.639C156.913 331.938 156.572 329.946 155.864 328.111C155.39 326.883 154.669 325.804 154.197 324.583C152.307 319.692 152.058 313.799 152.058 308.583C152.058 303.882 151.616 299.034 153.169 294.514C154.173 291.595 154.983 288.527 155.697 285.528C156.329 282.874 156.938 279.855 158.419 277.528C160.28 274.603 159.994 272.006 162.5 269.5C163.979 268.021 164 266 165 264.5" stroke="black" stroke-width="8" stroke-linecap="round"/>
<path d="M363.125 389.812C363.588 390.053 364.146 390.47 364.688 390.5C364.924 390.513 365.157 390.625 365.41 390.625C365.773 390.625 366.137 390.625 366.5 390.625C366.964 390.625 367.169 390.523 367.562 390.326C367.75 390.233 368.231 390.038 368.312 389.875" stroke="black" stroke-linecap="round"/>
<path d="M163.312 433.563C162.932 433.266 162.717 432.649 162.628 432.161C162.577 431.88 162.362 431.673 162.264 431.39C162.176 431.137 162.072 430.891 161.951 430.661C161.745 430.269 161.615 429.132 162.062 428.845C162.285 428.701 162.55 428.626 162.812 428.626C162.903 428.626 163.083 428.591 163.152 428.661C163.224 428.732 163.233 428.836 163.312 428.876" stroke="black" stroke-linecap="round"/>
<path d="M164.125 454.062C163.751 454.364 163.271 454.641 162.986 455.028C162.735 455.369 162.418 455.687 162.184 456.038C161.526 457.026 161.563 458.249 161.563 459.406C161.563 460.095 162.04 461.014 162.611 461.41C162.68 461.457 162.792 461.62 162.875 461.625C163.081 461.637 163.291 461.625 163.497 461.625C163.669 461.625 164.113 461.525 164.188 461.375" stroke="black" stroke-linecap="round"/>
<path d="M164.437 410.438C163.667 410.438 162.374 410.397 162.014 411.299C161.812 411.802 161.587 412.34 161.562 412.889C161.549 413.177 161.435 413.495 161.514 413.785C161.611 414.145 162.048 414.709 162.361 414.938C162.499 415.038 162.533 415.193 162.653 415.313C162.767 415.427 162.961 415.552 163.048 415.688C163.188 415.903 163.651 415.983 163.875 416.077C164.141 416.189 164.476 416.298 164.75 416.313C164.956 416.324 165.731 416.401 165.812 416.563" stroke="black" stroke-linecap="round"/>
<path d="M163.5 410.75C164.013 410.75 164.413 410.777 164.889 410.924C165.252 411.035 165.759 411.25 166.125 411.25" stroke="black" stroke-linecap="round"/>
<path fill-rule="evenodd" clip-rule="evenodd" d="M307.101 38.0472C304.032 38.9282 297.84 43.6282 288.561 52.1192C285.693 54.7442 285.103 54.8652 275.169 54.8692C258.451 54.8772 247.531 58.9812 230.368 71.7072C221.936 77.9582 216.791 83.3752 213.441 89.5262C212.288 91.6432 209.036 97.3392 206.213 102.185C198.838 114.848 196.776 122.814 194.685 146.716C193.839 156.395 193.705 164.849 194.275 172.716C195.299 186.858 197.089 200.842 198.133 202.857C199.08 204.685 196.48 206.532 185.561 211.785C181.161 213.902 176.786 216.497 175.84 217.551C173.609 220.035 167.832 232.602 165.157 240.789C163.303 246.464 163.076 249.405 163.188 266.289C163.287 281.237 161.354 279.9 162 274.912C162.454 271.409 165.144 272.458 165.362 272.24C165.58 272.022 167.472 274.438 169.567 277.609C178.621 291.309 186.38 298.038 192.595 297.58C194.927 297.408 195.516 297.87 196.194 300.405C197.633 305.785 200.481 307.874 206.377 307.874C209.451 307.874 212.515 307.244 213.791 306.351C215.808 304.938 216.051 304.992 217.136 307.101C217.779 308.351 219.46 310.612 220.87 312.124C225.449 317.033 236.31 315.617 243.16 309.217L245.759 306.789L249.016 309.832C251.862 312.491 252.997 312.874 258.019 312.874C262.536 312.874 264.492 312.348 267.163 310.414C269.032 309.061 272.245 307.029 274.302 305.898C276.883 304.48 278.861 302.219 280.68 298.608C282.131 295.729 284.076 292.249 285.003 290.874C286.616 288.481 288.312 283.517 289.531 277.624C290.056 275.085 290.467 274.874 294.902 274.874C300.287 274.874 307.527 277.085 310.591 279.665C316.015 284.232 319.879 303.585 318.687 320.217C317.91 331.063 317.266 333.874 315.561 333.874C313.558 333.874 313.089 337.387 313.075 352.52C313.065 362.85 312.486 369.594 310.929 377.52C309.061 387.031 308.87 390.539 309.38 405.874C309.835 419.578 310.432 425.001 312.132 430.874C315.388 442.125 319.607 449.652 326.449 456.419C331.794 461.705 332.847 463.399 334.838 469.919C336.09 474.019 337.103 478.052 337.088 478.88C337.073 479.708 335.598 481.058 333.811 481.88C331.008 483.168 321.962 483.321 268.065 482.985C212.582 482.64 205.32 482.416 203.347 480.985C200.252 478.742 200.492 478.125 204.977 476.781C208.504 475.724 209.275 475.843 212.725 477.975C215.655 479.786 218.002 480.347 222.701 480.359C229.899 480.377 232.429 478.705 233.767 473.048C234.807 468.65 237.04 467.926 240.695 470.801C242.646 472.336 244.779 472.874 248.908 472.874C254.115 472.874 254.77 472.595 258.773 468.666C261.352 466.135 263.061 463.544 263.061 462.166C263.061 459.193 266.114 459.114 269.997 461.985C271.568 463.146 274.812 464.31 277.207 464.572C281.135 465.001 281.869 464.721 284.711 461.711C286.443 459.875 288.789 456.612 289.924 454.458L291.987 450.541L291.386 459.458C291.055 464.362 290.659 468.524 290.506 468.707C290.353 468.891 289.255 468.068 288.067 466.88C284.887 463.7 283.061 464.964 283.061 470.343C283.061 474.157 282.755 474.874 281.126 474.874C279.822 474.874 278.778 473.732 277.925 471.374C277.229 469.449 276.355 467.874 275.983 467.874C274.742 467.874 273.3 470.338 272.585 473.677C271.546 478.536 269.636 477.017 269.061 470.874C268.527 465.171 267.222 463.77 264.969 466.485C263.723 467.986 263.807 468.089 265.765 467.468C267.801 466.822 267.974 467.133 268.257 471.971C268.466 475.537 269.095 477.503 270.263 478.236C272.433 479.597 273.228 478.762 273.967 474.342C274.642 470.3 276.295 469.628 277.106 473.065C277.523 474.833 278.343 475.374 280.606 475.374C283.368 475.374 283.581 475.096 283.868 471.124C284.204 466.493 284.59 466.203 287.502 468.406C288.57 469.213 290.257 469.874 291.252 469.874C292.857 469.874 293.061 468.906 293.061 461.308C293.061 456.597 293.576 451.781 294.204 450.606C295.062 449.003 295.062 448.374 294.204 448.088C291.622 447.228 293.324 445.874 296.99 445.874C302.568 445.874 304.061 443.958 304.061 436.796C304.061 418.93 297.638 396.51 290.26 388.624C288.093 386.308 286.868 385.874 282.496 385.874C279.103 385.874 276.875 385.355 276.061 384.374C273.868 381.731 264.399 382.448 258.496 385.704C253.335 388.55 251.061 388.757 251.061 386.38C251.061 385.649 249.676 383.887 247.984 382.463L244.908 379.874L248.234 379.852C250.064 379.84 253.365 379.011 255.57 378.009C262.016 375.081 268.967 365.874 264.732 365.874C264.001 365.874 261.979 363.061 260.239 359.624C255.689 350.634 252.174 348.598 240.272 348.055C229.82 347.579 223.643 349.202 218.811 353.692C214.19 357.987 215.434 364.915 221.909 370.947C224.536 373.394 233.772 377.814 236.561 377.958C237.661 378.015 235.457 378.679 231.664 379.432C227.646 380.23 223.862 381.652 222.599 382.838C220.062 385.221 219.061 385.407 219.061 383.493C219.061 382.733 217.631 380.713 215.883 379.005C210.177 373.425 202.516 373.661 195.922 379.618C193.769 381.563 191.894 382.979 191.755 382.764C191.615 382.55 190.801 380.349 189.945 377.874C188.549 373.841 188.034 373.343 184.974 373.078C181.579 372.783 181.56 372.753 181.466 367.578C181.327 360.047 177.417 352.238 169.632 343.95L163.061 336.953V342.226C163.061 346.76 163.475 347.896 166.009 350.324C169.506 353.675 174.061 362.852 174.061 366.548C174.061 368.025 172.612 370.959 170.741 373.271C166.361 378.683 164.061 384.767 164.061 390.942C164.061 397.932 167.181 400.874 174.592 400.874C179.432 400.874 180.141 400.554 183.91 396.671C186.153 394.36 188.263 392.743 188.598 393.078C188.933 393.412 188.726 395.416 188.139 397.53C187.552 399.644 187.07 403.704 187.067 406.551C187.062 410.957 187.454 412.038 189.696 413.801C193.442 416.748 199.109 416.546 202.934 413.328C204.598 411.927 207.299 407.989 208.935 404.578C211.948 398.294 216.249 392.874 218.222 392.874C218.948 392.874 219.09 394.918 218.656 399.124C216.561 419.409 216.458 417.872 220.121 421.071C223.053 423.63 224.073 423.929 228.997 423.668C234.043 423.401 234.703 423.095 236.091 420.374C236.932 418.724 238.811 415.349 240.266 412.874C241.721 410.399 243.897 405.298 245.101 401.538C248.927 389.59 249.946 395.518 247.455 415.244C246.907 419.585 247.116 420.37 249.373 422.463C251.762 424.678 253.708 428.56 252.857 429.412C252.644 429.625 251.201 429.141 249.651 428.336C248.101 427.532 244.67 426.874 242.026 426.874C237.405 426.874 237.016 427.106 231.891 432.908C226.889 438.57 226.317 438.924 222.604 438.658C219.2 438.414 218.194 437.745 215.405 433.874C208.572 424.39 207.774 423.709 202.841 423.153C195.708 422.349 193.376 423.327 190.959 428.14C189.789 430.469 187.736 433.837 186.396 435.624C184.286 438.439 183.363 438.874 179.51 438.874C176.339 438.874 175.061 438.467 175.061 437.458C175.061 436.028 169.459 431.159 165.311 428.984C161.544 427.008 162.784 428.487 168.092 432.301C170.859 434.288 173.631 437.031 174.252 438.394C175.192 440.456 176.084 440.874 179.547 440.874C184.421 440.874 186.218 439.272 191.044 430.624L194.252 424.874H200.585C207.615 424.874 208.884 425.646 212.05 431.853C214.735 437.115 219.489 440.874 223.46 440.874C226.199 440.874 227.602 439.859 232.448 434.374C237.8 428.315 238.474 427.875 242.376 427.886C244.984 427.894 248.201 428.836 250.913 430.386C256.772 433.736 263.005 433.757 266.583 430.441C269.497 427.741 273.351 420.874 271.953 420.874C271.462 420.874 271.061 420.199 271.061 419.374C271.061 418.549 271.919 417.874 272.967 417.874C274.395 417.874 274.74 417.361 274.34 415.831C274.046 414.708 274.2 413.92 274.683 414.081C275.166 414.242 276.574 413.361 277.811 412.124C279.481 410.454 281.227 409.874 284.582 409.874C288.435 409.874 289.272 410.244 290.243 412.374C290.869 413.749 291.76 414.874 292.222 414.874C292.683 414.874 293.399 414.859 293.811 414.841C294.628 414.806 295.852 422.286 295.943 427.874C295.99 430.726 295.811 431.048 294.976 429.616C294.413 428.649 294.229 427.412 294.566 426.866C295.266 425.734 288.328 425.559 280.418 426.509L275.275 427.127L269.921 435.501C263.829 445.03 262.092 445.741 255.63 441.356C253.589 439.971 250.489 438.698 248.74 438.527C245.508 438.211 240.061 440.24 240.061 441.761C240.061 442.573 234.066 445.782 229.099 447.627C226.978 448.415 226.352 448.117 224.569 445.471C221.474 440.879 217.77 439.937 213.025 442.537C208.677 444.918 208.061 444.699 208.061 440.772C208.061 439.25 207.6 436.792 207.037 435.311C206.107 432.866 205.648 432.666 202.065 433.147C195.477 434.03 191.249 437.391 187.897 444.408C183.953 452.664 181.894 454.418 171.993 457.957C163.351 461.046 160.368 462.668 165.561 461.454C178.469 458.438 185.528 453.396 189.538 444.331C192.168 438.384 196.905 434.874 202.3 434.874C205.745 434.874 205.814 434.957 206.461 439.833C206.823 442.56 207.557 445.063 208.093 445.394C208.711 445.775 208.656 446.763 207.943 448.095C206.806 450.218 207.233 462.139 208.606 466.624C209.189 468.53 208.922 468.874 206.857 468.874C205.516 468.874 201.976 470.111 198.99 471.624C193.853 474.226 193.545 474.598 193.258 478.539C192.969 482.508 193.181 482.862 197.758 486.039L202.561 489.374L266.561 490.112C330.275 490.847 330.585 490.84 335.845 488.732C338.752 487.567 341.789 485.672 342.595 484.521C346.959 478.291 340.521 458.663 331.759 451.483C326.591 447.248 322.927 440.88 319.566 430.291C317.576 424.02 316.993 419.585 316.503 406.961C315.93 392.213 316.169 389.027 318.987 373.926C319.546 370.929 320.307 363.279 320.679 356.926C321.051 350.572 321.685 345.149 322.087 344.874C322.489 344.599 323.604 338.974 324.565 332.374C327.422 312.742 325.824 293.169 320.355 280.805C318.309 276.181 311.427 270.506 306.308 269.221C304.079 268.662 304.137 268.499 308.342 263.51C318.91 250.972 321.061 245.186 321.061 229.297C321.061 219.929 320.706 217.106 319.148 214.084C317.048 210.011 313.873 206.311 311.918 205.66C311.011 205.357 311.237 204.427 312.732 202.308C313.87 200.694 315.825 196.548 317.076 193.093C318.328 189.639 319.75 186.566 320.237 186.265C320.724 185.964 320.847 184.25 320.51 182.455C319.339 176.21 321.711 170.89 328.574 164.374C335.068 158.208 337.301 154.785 338.52 149.124L339.22 145.874H358.14H377.061V141.939C377.061 137.089 374.579 125.01 372.682 120.626C370.863 116.42 361.745 105.788 358.5 104.088C357.118 103.364 353.753 102.506 351.024 102.183C347.653 101.784 346.061 101.135 346.061 100.161C346.061 96.6982 340.693 83.1972 337.928 79.7062C336.26 77.5992 332.242 73.7922 328.999 71.2442C325.757 68.6972 323.346 66.2222 323.642 65.7432C323.937 65.2652 326.376 64.8742 329.061 64.8742C333.991 64.8742 336.141 63.5542 334.266 61.6792C333.573 60.9862 331.056 61.0462 326.404 61.8662L319.561 63.0732L312.135 59.4952L304.708 55.9182L309.135 53.9942C311.569 52.9372 315.924 51.7602 318.811 51.3792C325.823 50.4542 325.504 48.8682 318.311 48.8962C313.993 48.9132 311.066 49.6552 306.561 51.8742C300.889 54.6682 290.986 56.1102 291.107 54.1242C291.224 52.1982 305.421 41.8592 309.318 40.8612C315.534 39.2702 316.061 39.0392 316.061 37.9052C316.061 36.6422 311.759 36.7112 307.101 38.0472ZM287.061 58.8742C287.061 59.9742 287.563 60.8742 288.178 60.8742C288.802 60.8742 289.064 59.9922 288.771 58.8742C288.315 57.1302 288.741 56.8742 292.093 56.8742C295.629 56.8742 295.922 57.0862 295.749 59.5152C295.646 60.9672 296.124 62.3552 296.811 62.5982C297.499 62.8422 298.061 62.3512 298.061 61.5072C298.061 57.3972 304.262 58.0622 312.561 63.0602L315.561 64.8672L312.893 64.8702C309.2 64.8752 307.061 65.8332 307.061 67.4812C307.061 69.1712 308.767 69.2292 314.682 67.7392C318.999 66.6522 319.321 66.7282 322.374 69.5482C324.127 71.1672 327.236 73.7162 329.284 75.2132C334.287 78.8702 338.443 85.1382 340.971 92.8392C343.74 101.273 343.672 101.874 339.954 101.874C338.245 101.874 333.633 102.589 329.704 103.464C325.775 104.338 321.586 105.237 320.395 105.462C317.378 106.03 310.332 112.568 307.46 117.462C303.189 124.739 304.376 138.502 309.801 144.624C311.661 146.722 312.608 146.874 323.823 146.874H335.85L335.071 150.124C333.757 155.601 333.116 156.526 326.856 161.971C319.937 167.989 317.115 173.241 317.083 180.156C317.06 185.162 311.679 200.874 309.988 200.874C309.478 200.874 309.061 201.549 309.061 202.374C309.061 204.359 308.162 204.259 304.561 201.874C298.807 198.063 279.97 199.682 282.497 203.771C283.058 204.678 283.577 204.691 284.624 203.822C285.518 203.08 289.23 202.797 295.105 203.024C302.494 203.308 304.387 203.703 305.182 205.124C305.72 206.087 306.631 206.874 307.206 206.874C309.451 206.874 314.206 211.238 316.182 215.112C318.022 218.718 318.215 220.557 317.882 231.277C317.535 242.468 317.268 243.861 314.312 249.874C312.555 253.449 309.041 258.511 306.503 261.124C302.036 265.722 301.701 265.874 296.047 265.874C287.692 265.874 275.454 264.02 269.096 261.79C266.09 260.736 262.152 259.874 260.346 259.874C255.655 259.874 252.73 256.704 253.597 252.559C254.875 246.453 257.783 241.345 262.384 237.124C267.01 232.88 267.027 232.874 274.789 232.896C282.643 232.918 291.061 235.468 291.061 237.825C291.061 238.402 291.736 238.874 292.561 238.874C296.838 238.874 291.141 232.545 285.439 230.962C280.733 229.655 269.064 229.538 265.876 230.766C259.501 233.221 252.057 243.874 250.593 252.638C249.936 256.568 250.131 257.137 253.076 259.888C255.262 261.93 257.297 262.874 259.51 262.874C261.291 262.874 265.181 263.71 268.154 264.731C271.128 265.752 276.085 266.901 279.169 267.285C284.639 267.965 284.806 268.079 285.958 271.925C286.852 274.908 286.862 276.9 285.999 280.103C284.26 286.564 275.842 302.002 273.566 302.906C272.463 303.343 270.011 304.865 268.117 306.288C265.228 308.457 263.614 308.874 258.107 308.874C252.717 308.874 251.328 308.531 250.343 306.955C249.308 305.297 249.684 304.445 253.103 300.705C255.28 298.323 257.061 296.055 257.061 295.663C257.061 295.272 259.126 292.416 261.65 289.318C267.88 281.669 271.257 274.718 270.871 270.339C270.438 265.433 268.688 265.933 267.916 271.183C267.079 276.872 265.623 279.51 257.326 290.372C248.203 302.314 238.439 310.545 232.305 311.465C226.322 312.362 223.108 311.119 220.686 306.972L218.705 303.58L220.803 301.882C221.957 300.948 226.983 295.787 231.973 290.414C241.253 280.421 245.696 273.702 248.083 266.046C249.263 262.263 249.229 261.32 247.815 258.546C246.926 256.802 245.907 254.344 245.55 253.086C245.194 251.827 243.163 249.646 241.037 248.24C237.806 246.101 236.256 245.739 231.572 246.028C226.443 246.345 225.923 246.183 225.402 244.101C224.503 240.511 221.212 238.874 214.896 238.874C209.205 238.874 209.152 238.902 204.428 244.374L199.68 249.874H191.552C182.834 249.874 174.239 251.904 169.907 254.986C168.447 256.024 166.984 256.874 166.657 256.874C166.329 256.874 166.061 254.816 166.061 252.3C166.061 246.856 169.721 235.486 174.576 225.845L178.082 218.882L188.273 213.768C198.471 208.65 199.453 208.329 208.311 207.216C214.818 206.399 214.283 205.038 207.311 204.674L201.561 204.374L200.356 199.491C197.048 186.089 196.109 153.005 198.579 136.874C201.701 116.475 202.499 114.15 211.967 97.8742C219.797 84.4122 223.051 80.4062 230.061 75.5952C232.536 73.8962 234.786 72.2512 235.061 71.9402C236.265 70.5772 242.069 66.9042 246.83 64.4912C257.204 59.2342 266.053 57.1912 279.311 56.9912C286.433 56.8832 287.061 57.0362 287.061 58.8742ZM256.289 78.4902C252.29 80.4182 249.279 82.4172 249.598 82.9342C250.47 84.3452 251.348 84.1392 258.403 80.8742C263.933 78.3142 266.084 77.8742 273.056 77.8742C279.148 77.8742 281.122 77.5562 280.814 76.6242C280.533 75.7772 277.682 75.3112 271.98 75.1802C264.204 75.0002 263.006 75.2532 256.289 78.4902ZM269.055 84.8082C265.656 85.8422 259.949 88.8432 258.36 90.4322C257.497 91.2952 257.061 94.6072 257.061 100.303C257.061 105.35 256.65 108.874 256.061 108.874C253.999 108.874 255.177 110.783 258.51 112.843C260.565 114.113 261.749 115.524 261.438 116.334C260.017 120.036 271.613 119.239 279.561 115.087C288.141 110.605 289.064 109.375 289.039 102.45C288.988 88.3362 280.907 81.2032 269.055 84.8082ZM282.645 90.3952C284.765 93.1752 285.433 95.3472 285.817 100.701C286.284 107.238 286.201 107.552 283.547 109.291L280.792 111.097L282.426 108.763C285.148 104.877 284.535 100.61 280.853 97.8122C275.489 93.7352 273.716 92.9462 269.837 92.9092C266.707 92.8802 265.869 93.3452 264.587 95.8242C263.748 97.4472 263.061 101.31 263.061 104.408C263.061 108.402 262.705 109.922 261.839 109.633C258.845 108.635 258.026 95.0922 260.811 92.6482C264.497 89.4132 270.679 86.9612 275.26 86.9182C279.484 86.8782 280.231 87.2302 282.645 90.3952ZM279.636 103.317C280.797 107.941 277.246 109.464 273.111 106.115C269.993 103.591 271.309 100.874 275.649 100.874C278.393 100.874 279.137 101.33 279.636 103.317ZM293.164 107.124C292.697 108.361 292.016 110.724 291.649 112.374C290.352 118.21 279.902 126.874 274.16 126.874C271.97 126.874 270.627 128.363 271.517 129.803C271.847 130.336 274.704 129.85 278.221 128.663C286.207 125.966 292.378 119.912 294.531 112.665C295.372 109.83 296.061 106.918 296.061 106.192C296.061 104.051 294.082 104.687 293.164 107.124ZM354.862 105.724C357.548 106.483 363.845 112.512 367.578 117.898C370.393 121.961 372.555 128.975 373.621 137.508L374.291 142.874H370.708C367.532 142.874 366.671 142.261 363.141 137.482C359.693 132.815 358.318 131.807 352.915 129.982C341.039 125.971 332.129 127.378 314.905 135.982C308.225 139.32 308.061 139.153 308.061 129.027C308.061 124.423 308.64 121.258 309.923 118.858C312.338 114.336 319.921 108.908 324.756 108.24C326.849 107.951 329.461 107.333 330.561 106.867C331.661 106.401 333.236 105.798 334.061 105.526C336.24 104.808 352.158 104.959 354.862 105.724ZM328.564 117.614C326.916 117.856 325.235 118.576 324.83 119.214C323.614 121.125 323.963 122.874 325.561 122.874C326.386 122.874 327.061 122.499 327.061 122.042C327.061 121.584 329.165 120.796 331.737 120.292C336.987 119.261 339.005 116.78 334.394 117.024C332.836 117.106 330.212 117.372 328.564 117.614ZM353.728 133.304C356.346 134.385 358.835 136.445 360.424 138.846L362.952 142.667L347.257 143.248C338.624 143.568 328.028 144.117 323.709 144.467C318.156 144.917 315.155 144.727 313.459 143.819C312.14 143.114 311.061 142.255 311.061 141.911C311.061 141.381 322.526 135.685 331.061 131.974C334.623 130.425 348.769 131.255 353.728 133.304ZM210.526 150.931C209.543 152.521 210.885 156.919 213.636 161.124C216.306 165.205 220.214 166.21 221.874 163.243C222.692 161.782 223.118 161.857 225.966 163.962C229.938 166.898 232.561 165.727 232.561 161.015C232.561 157.071 230.673 156.395 230.239 160.183C229.837 163.692 228.262 163.255 225.242 158.797C222.403 154.605 220.743 154.443 220.071 158.292C219.79 159.896 219.023 161.388 218.365 161.607C216.975 162.069 213.061 154.916 213.061 151.914C213.061 149.741 211.609 149.178 210.526 150.931ZM308.6 155.812C308.27 156.345 308.287 157.928 308.639 159.328C309.157 161.393 309.883 161.874 312.478 161.874C316.197 161.874 319.688 159.697 318.653 158.023C318.154 157.216 317.376 157.17 316.066 157.871C313.378 159.31 311.061 159.107 311.061 157.433C311.061 155.618 309.397 154.522 308.6 155.812ZM292.7 168.568C292.349 168.92 292.029 172.395 291.991 176.291C291.911 184.285 290.252 182.798 290.131 174.624C290.079 171.1 289.674 169.874 288.561 169.874C285.293 169.874 287.245 183.963 290.696 185.288C294.148 186.612 295.061 184.842 295.061 176.826C295.061 169.6 294.307 166.962 292.7 168.568ZM221.232 243.529C223.031 245.157 223.726 249.875 222.368 251.234C221.986 251.615 221.642 254.953 221.602 258.651C221.54 264.404 221.036 266.232 218.11 271.319C213.854 278.719 202.114 290.874 199.222 290.874C198.067 290.874 195.558 291.752 193.648 292.825C190.534 294.574 189.879 294.63 187.341 293.364C183.879 291.637 176.629 283.368 171.164 274.912C167.121 268.657 167.108 268.604 168.821 265.702C171.39 261.354 180.051 257.496 188.292 257.031C196.161 256.586 196.328 256.873 192.647 264.504C190.24 269.493 189.718 271.254 189.943 273.624C190.221 276.557 191.873 274.375 194.866 267.124C198.512 258.288 198.827 257.778 201.561 256.273C202.661 255.668 203.713 253.883 203.898 252.307C204.084 250.731 205.584 247.739 207.232 245.658C209.92 242.265 210.703 241.874 214.816 241.874C217.681 241.874 220.09 242.495 221.232 243.529ZM239.811 250.863C242.091 252.253 243.061 253.595 243.061 255.359C243.061 256.742 243.462 257.874 243.953 257.874C245.765 257.874 246.025 262.911 244.454 267.572C243.563 270.213 241.17 274.73 239.136 277.609C233.978 284.909 220.188 298.874 218.137 298.874C217.202 298.874 215.439 300.224 214.219 301.874C212.278 304.499 211.387 304.874 207.088 304.874C201.425 304.874 199.061 302.636 199.061 297.273C199.061 294.702 199.623 293.884 202.091 292.861C206.806 290.908 217.926 278.249 221.568 270.686C223.522 266.628 225.069 261.521 225.502 257.696C225.894 254.23 226.685 250.827 227.26 250.134C228.863 248.203 236.142 248.626 239.811 250.863ZM163.14 331.457C163.188 332.622 163.425 332.859 163.744 332.062C164.033 331.34 163.997 330.477 163.665 330.145C163.333 329.813 163.097 330.403 163.14 331.457ZM249.346 352.349C253.54 354.101 256.341 357.421 258.587 363.302C260.938 369.46 260.28 371.913 255.561 374.581C250.991 377.163 246.9 377.378 239.061 375.449C230.69 373.389 228.464 372.287 223.569 367.774C218.049 362.686 217.411 358.317 221.696 354.947C225.476 351.973 226.717 352.341 226.873 356.484C227.104 362.641 233.587 366.176 240.478 363.902C244.836 362.463 246.832 360.245 245.219 358.632C244.582 357.995 244.061 356.738 244.061 355.838C244.061 354.568 243.117 354.221 239.842 354.288C236.583 354.354 235.542 353.976 235.269 352.624C234.966 351.128 235.706 350.874 240.366 350.874C243.364 350.874 247.405 351.538 249.346 352.349ZM195.722 353.697C194.808 354.706 194.122 356.846 194.197 358.453C194.324 361.167 194.366 361.197 194.788 358.874C195.039 357.499 195.95 355.584 196.813 354.618C197.676 353.652 198.157 352.637 197.882 352.362C197.607 352.087 196.635 352.687 195.722 353.697ZM397.336 359.387L394.632 364.899L393.316 360.387C392.527 357.68 391.412 355.874 390.531 355.874C388.58 355.874 388.59 361.063 390.549 364.85C392.023 367.701 392.005 367.737 388.563 368.873C384.25 370.297 383.648 371.223 385.164 374.103C386.784 377.179 387.976 377.841 391.93 377.859L395.3 377.874L394.873 387.124C394.596 393.128 393.838 397.602 392.714 399.874C390.244 404.867 383.843 408.612 377.061 409.033L371.561 409.374L371.253 405.11C371.038 402.133 371.525 400.02 372.868 398.11C378.852 389.595 381.116 371.757 377.057 365.099C374.583 361.042 370.845 359.536 365.306 360.363C360.294 361.111 357.035 362.675 353.003 366.268C350.592 368.416 350.061 369.682 350.061 373.279C350.061 378.575 355.533 389.857 361.256 396.359C364.34 399.862 365.061 401.457 365.061 404.777C365.061 408.013 364.693 408.874 363.311 408.873C360.656 408.872 346.904 405.886 345.224 404.945C344.411 404.491 342.696 401.251 341.413 397.746C339.093 391.412 339.091 391.366 341.07 390.002C343.431 388.375 343.653 385.61 341.561 383.874C340.715 383.172 340.061 380.992 340.061 378.874C340.061 374.062 337.508 371.515 336.188 375.01C335.697 376.31 335.495 377.711 335.737 378.124C336.63 379.639 334.626 378.814 332.449 376.769C328.19 372.768 326.57 376.915 330.118 382.736C331.98 385.79 332.025 386.256 330.614 387.815C329.76 388.759 329.061 390.734 329.061 392.203C329.061 394.504 329.476 394.874 332.061 394.874C334.329 394.874 335.061 395.332 335.061 396.752C335.061 404.92 346.481 415.874 354.997 415.874C356.937 415.874 357.862 416.316 357.613 417.124C357.401 417.812 356.96 420.287 356.633 422.624C356.158 426.012 356.344 426.874 357.549 426.874C359.891 426.874 359.358 428.286 355.811 431.475C347.358 439.076 344.681 440.315 343.607 437.124C343.283 436.162 341.684 433.799 340.052 431.874C337.583 428.96 336.919 428.625 336.089 429.874C335.54 430.699 335.085 433.016 335.076 435.024C335.063 438.186 335.806 439.354 340.642 443.774C343.711 446.579 346.789 448.874 347.481 448.874C348.913 448.874 358.845 439.534 364.349 433.012C368.928 427.584 370.486 427.83 378.061 435.18C394.588 451.216 399.664 453.135 403.811 444.912C406.976 438.635 406.803 428.874 403.527 428.874C401.591 428.874 398.061 433.776 398.061 436.464C398.061 438.761 398.016 438.769 393.844 437.297C388.134 435.283 380.894 430.953 381.526 429.931C381.808 429.474 381.305 429.162 380.408 429.237C379.51 429.312 378.578 428.812 378.335 428.124C378.051 427.318 378.902 426.863 380.728 426.842C382.286 426.825 384.405 426.171 385.436 425.39C387.539 423.798 386.993 420.874 384.592 420.874C382.772 420.874 382.497 418.889 384.311 418.841C384.999 418.822 384.59 417.997 383.404 417.006C381.252 415.208 381.259 415.201 386.254 413.921C392.393 412.348 397.405 408.102 400.625 401.747C402.593 397.864 403.061 395.428 403.061 389.068C403.061 381.622 403.198 381.133 405.583 380.046C407.699 379.082 407.994 378.454 407.414 376.145C406.644 373.076 404.81 370.874 403.025 370.874C402.263 370.874 402.131 370.257 402.654 369.124C403.097 368.162 403.632 364.336 403.843 360.624C404.2 354.319 404.087 353.874 402.132 353.874C400.588 353.874 399.33 355.32 397.336 359.387ZM403.054 360.124C403.05 363.645 402.405 366.35 401.095 368.337L399.142 371.299L402.352 372.337C404.789 373.125 405.637 374.035 405.877 376.124C406.145 378.452 405.823 378.874 403.778 378.874C401.428 378.874 401.347 379.139 400.759 388.794C400.081 399.921 398.696 404.069 394.271 408.228C391.086 411.221 380.318 414.791 374.311 414.845C368.571 414.896 370.849 416.869 376.811 417.01C379.973 417.085 381.436 417.324 380.061 417.54C371.24 418.929 370.695 420.35 378.666 421.173C388.131 422.15 387.466 423.921 377.307 424.794L370.561 425.374L379.345 431.124C384.177 434.287 388.548 436.874 389.06 436.874C389.571 436.874 392.031 438.013 394.526 439.406L399.061 441.938V438.629C399.061 434.91 401.433 430.874 403.618 430.874C407.29 430.874 403.508 446.998 399.473 448.546C396.981 449.502 392.429 446.623 384.061 438.797C375.979 431.239 369.275 425.874 367.911 425.874C367.443 425.874 367.061 426.473 367.061 427.205C367.061 429.166 352.587 442.861 350.418 442.953C349.294 443.001 349.071 443.236 349.853 443.55C351.496 444.21 349.526 446.874 347.396 446.874C345.06 446.874 336.059 437.82 336.076 435.487C336.108 431.086 337.677 430.516 339.892 434.101C341.05 435.974 342.892 438.316 343.987 439.307C345.919 441.056 346.103 441.01 350.269 437.741C352.63 435.889 355.831 433.258 357.383 431.895C358.935 430.531 361.41 428.921 362.883 428.316C365.53 427.23 365.511 427.209 361.284 426.53C357.46 425.915 357.116 425.64 358.032 423.928C358.596 422.875 360.07 421.819 361.309 421.58C363.243 421.208 363.172 421.127 360.811 421.01C359.146 420.928 358.061 420.305 358.061 419.433C358.061 417.686 359.402 416.79 363.474 415.817C365.965 415.221 365.403 415.058 360.561 414.971C357.261 414.911 352.97 414.421 351.025 413.881C344.603 412.096 336.061 401.874 336.061 395.973C336.061 394.401 335.434 393.874 333.561 393.874C331.537 393.874 331.061 393.38 331.061 391.28C331.061 389.528 331.71 388.517 333.061 388.164C334.99 387.659 335.913 385.874 334.245 385.874C333.02 385.874 328.752 377.848 329.558 377.058C329.942 376.682 331.482 377.836 332.981 379.624C334.48 381.412 336.011 382.874 336.384 382.874C336.756 382.874 337.061 381.047 337.061 378.815C337.061 376.364 337.457 375.001 338.061 375.374C338.611 375.714 339.061 377.99 339.061 380.433C339.061 382.876 339.511 384.874 340.061 384.874C340.611 384.874 341.061 385.774 341.061 386.874C341.061 387.985 340.394 388.874 339.561 388.874C337.053 388.874 338.191 394.973 342.307 403.595C343.644 406.394 350.248 408.629 359.734 409.493L366.907 410.147L366.352 406.01C365.913 402.735 366.114 401.874 367.316 401.874C368.348 401.874 369.05 403.313 369.509 406.374C370.161 410.72 370.303 410.874 373.679 410.874C380.503 410.874 386.192 408.717 390.572 404.469C394.484 400.675 394.877 399.801 395.927 392.583C396.551 388.298 397.061 383.011 397.061 380.833V376.874H392.618C389.144 376.874 387.831 376.383 386.599 374.624C385.182 372.602 385.178 372.261 386.563 371.249C387.41 370.63 389.781 369.85 391.832 369.515C395.368 368.94 395.656 368.602 397.391 363.011C400.367 353.42 403.065 352.045 403.054 360.124ZM206.353 358.912C205.738 360.541 205.597 361.874 206.039 361.874C206.861 361.874 208.438 356.918 207.814 356.294C207.625 356.105 206.968 357.283 206.353 358.912ZM392.619 362.374C393.086 364.374 392.986 365.041 392.319 364.374C391.769 363.824 391.004 362.024 390.619 360.374C390.153 358.374 390.253 357.707 390.919 358.374C391.469 358.924 392.234 360.724 392.619 362.374ZM291.066 361.568C291.063 362.225 292.172 364.025 293.529 365.568C296.74 369.217 296.74 367.29 293.53 363.374C292.178 361.724 291.069 360.911 291.066 361.568ZM283.28 362.374C284.272 365.25 286.489 368.874 287.257 368.874C287.738 368.874 287.699 368.086 287.169 367.124C285.916 364.843 282.833 361.079 283.28 362.374ZM375.459 365.201C380.053 371.379 376.603 396.135 370.943 397.615C369.908 397.886 369.061 398.73 369.061 399.491C369.061 405.489 354.659 387.287 352.092 378.044C350.489 372.276 350.854 369.973 353.811 367.195C357.935 363.321 361.966 361.881 367.959 362.14C372.583 362.34 373.659 362.779 375.459 365.201ZM353.422 374.376C352.604 376.508 353.708 380.222 355.986 382.998C357.572 384.93 358.274 385.168 359.748 384.272C362.304 382.718 362.423 379.906 360.093 376.124C357.968 372.675 354.43 371.748 353.422 374.376ZM367.328 374.124C364.344 377.938 365.451 383.874 369.147 383.874C371.539 383.874 374.485 377.785 373.538 374.801C372.841 372.605 368.856 372.171 367.328 374.124ZM185.793 376.124C187.277 378.021 189.066 383.874 188.162 383.874C187.277 383.874 184.175 386.382 179.375 390.979C175.331 394.851 171.71 394.676 171.241 390.585C170.886 387.496 173.933 380.462 177.096 377.067C179.345 374.652 184.229 374.123 185.793 376.124ZM211.623 379.47C215.271 381.202 217.284 384.987 214.944 385.716C212.347 386.525 205.769 394.658 202.163 401.52C199.989 405.656 197.819 408.51 196.688 408.72C194.951 409.043 194.868 408.573 195.539 402.221C195.937 398.455 196.33 392.632 196.412 389.281C196.579 382.437 197.829 380.296 202.437 378.96C206.964 377.648 207.89 377.699 211.623 379.47ZM246.232 384.529C248.467 386.552 248.579 387.874 246.516 387.874C243.738 387.874 240.332 392.43 238.601 398.46C237.667 401.713 235.702 406.399 234.232 408.874C232.763 411.349 231.238 414.162 230.843 415.124C230.428 416.136 229.066 416.874 227.612 416.874C224.347 416.874 223.505 413.693 224.966 406.88C226.385 400.264 226.369 390.317 224.934 387.637C223.087 384.185 226.112 382.874 235.923 382.874C242.411 382.874 244.833 383.263 246.232 384.529ZM270.253 389.308C268.594 391.197 266.944 393.785 266.584 395.058C266.225 396.332 263.634 402 260.826 407.654C255.55 418.278 252.993 420.003 255.136 411.491C255.792 408.884 256.113 403.33 255.86 398.954L255.405 391.098L259.433 388.486C262.384 386.573 264.773 385.874 268.365 385.874H273.268L270.253 389.308ZM285.061 393.257C285.061 394.145 281.015 394.609 280.503 393.78C280.195 393.282 281.095 392.874 282.502 392.874C283.909 392.874 285.061 393.047 285.061 393.257ZM277.061 397.124C277.061 399.205 277.027 399.21 275.65 397.326C274.873 396.265 274.455 395.046 274.719 394.619C275.548 393.277 277.061 394.896 277.061 397.124ZM281.767 403.124C281.528 404.362 281.333 403.349 281.333 400.874C281.333 398.399 281.528 397.386 281.767 398.624C282.005 399.862 282.005 401.886 281.767 403.124ZM166.559 411.478C168.757 412.282 171.232 413.651 172.059 414.52C173.42 415.951 173.07 416.055 168.311 415.633C165.423 415.377 163.061 415.552 163.061 416.021C163.061 416.49 163.849 416.907 164.811 416.947C165.773 416.987 169.022 417.369 172.031 417.796C177.784 418.612 181.061 418.235 181.061 416.757C181.061 416.272 179.766 415.874 178.183 415.874C176.601 415.874 174.688 415.129 173.933 414.219C172.315 412.268 166.878 409.844 164.343 409.944C163.363 409.983 164.36 410.673 166.559 411.478ZM265.061 417.933C265.061 419.065 264.631 419.726 264.105 419.401C263.579 419.076 263.402 418.149 263.712 417.342C264.505 415.275 265.061 415.518 265.061 417.933ZM260.754 428.605C260.5 429.578 260.276 429.024 260.256 427.374C260.236 425.724 260.443 424.928 260.717 425.605C260.991 426.282 261.008 427.632 260.754 428.605ZM287.443 428.426C287.784 429.316 287.616 429.717 287.05 429.367C286.506 429.031 286.061 428.333 286.061 427.815C286.061 426.377 286.778 426.694 287.443 428.426ZM163.072 433.391C163.066 433.951 165.121 436.763 167.639 439.642L172.217 444.875L167.595 449.498C165.053 452.04 163.178 454.324 163.428 454.574C164.09 455.236 173.069 445.785 173.018 444.479C172.962 443.053 163.087 432.044 163.072 433.391ZM283.311 436.266C284.274 436.997 285.061 438.092 285.061 438.699C285.061 439.307 285.956 440.282 287.049 440.868C291.294 443.139 290.261 449.812 284.494 457.374C282.268 460.291 281.191 460.874 278.024 460.874C271.811 460.874 270.894 460.132 273.671 457.355C275.765 455.261 276.061 454.038 276.061 447.485C276.061 436.012 278.337 432.49 283.311 436.266ZM236.748 461.52C235.748 462.52 233.336 460.5 230.884 456.612C226.972 450.407 227.04 449.914 232.061 448.013L236.561 446.31L236.855 453.715C237.017 457.787 236.969 461.299 236.748 461.52ZM255.027 452.523C257.796 456.18 260.061 459.989 260.061 460.988C260.061 461.987 258.664 464.395 256.957 466.339C254.235 469.44 253.283 469.872 249.207 469.859C243.17 469.839 241.486 468.817 242.958 466.067C243.565 464.933 244.061 460.466 244.061 456.14C244.061 443.547 247.399 442.446 255.027 452.523ZM265.061 446.315C265.061 446.558 264.611 447.034 264.061 447.374C263.511 447.714 263.061 447.515 263.061 446.933C263.061 446.351 263.511 445.874 264.061 445.874C264.611 445.874 265.061 446.072 265.061 446.315ZM221.796 455.139C223.575 458.58 226.388 462.881 228.046 464.697C231.161 468.107 231.83 471.568 230.026 474.94C229.158 476.561 227.89 476.874 222.192 476.874C218.454 476.874 215.118 476.597 214.78 476.259C214.442 475.921 214.899 474.525 215.795 473.157C217.298 470.863 217.299 470.191 215.813 464.522C213.858 457.066 214.449 448.872 216.941 448.878C217.915 448.88 219.851 451.376 221.796 455.139ZM269.061 450.874C269.061 451.974 268.611 452.874 268.061 452.874C267.511 452.874 267.061 451.974 267.061 450.874C267.061 449.774 267.511 448.874 268.061 448.874C268.611 448.874 269.061 449.774 269.061 450.874ZM187.366 457.939C182.841 459.65 183.425 468.874 188.058 468.874C189.819 468.874 191.061 465.331 191.061 460.308C191.061 457.436 190.184 456.873 187.366 457.939ZM373.509 460.56C371.888 461.887 369.661 463.474 368.561 464.087C366.772 465.084 366.705 465.027 367.923 463.55C369.79 461.287 368.625 458.161 366.554 459.879C365.739 460.556 364.186 460.878 363.103 460.595C362.02 460.312 360.613 460.709 359.975 461.477C358.573 463.166 356.37 463.302 355.847 461.731C355.278 460.025 351.651 462.237 349.067 465.865C346.068 470.077 347.336 471.284 352.17 468.818L356.17 466.778L354.697 469.076C353.537 470.886 353.149 475.929 353.951 478.761C354.012 478.974 356.292 477.061 359.018 474.511C361.745 471.961 364.21 469.874 364.497 469.874C364.783 469.874 364.506 470.999 363.879 472.374C363.253 473.749 362.362 474.874 361.9 474.874C361.439 474.874 361.061 475.549 361.061 476.374C361.061 478.764 362.753 478.146 367.219 474.124C370.096 471.533 371.025 471.049 370.222 472.558C367.508 477.664 369.465 478.215 374.526 473.77C378.243 470.507 379.13 470.903 376.503 474.653C375.646 475.877 375.273 477.409 375.675 478.058C376.151 478.829 378.635 476.832 382.828 472.306C386.361 468.494 388.92 466.274 388.515 467.374C385.85 474.609 387.846 477.865 390.814 471.124C392.283 467.786 392.506 467.628 392.84 469.682C393.447 473.415 395.561 471.558 395.561 467.291C395.561 464.174 395.203 463.402 393.811 463.513C392.848 463.589 392.061 463.027 392.061 462.263C392.061 460.558 388.901 460.434 387.261 462.074C386.601 462.734 386.061 462.907 386.061 462.459C386.061 462.011 384.936 462.381 383.561 463.282C380.872 465.044 380.082 463.931 382.561 461.874C385.224 459.664 384.286 458.147 380.259 458.147C377.721 458.147 375.477 458.949 373.509 460.56ZM189.061 462.874C189.061 465.763 188.644 466.874 187.561 466.874C186.52 466.874 186.061 465.828 186.061 463.457C186.061 460.589 186.641 459.638 188.811 458.953C188.949 458.91 189.061 460.674 189.061 462.874ZM303.046 468.389C301.189 470.306 300.123 471.874 300.678 471.874C301.97 471.874 307.578 466.057 306.92 465.399C306.647 465.127 304.904 466.472 303.046 468.389ZM170.039 472.57C166.746 477.762 166.495 478.908 168.261 480.674C170.568 482.981 172.808 482.037 173.476 478.475C173.827 476.605 175.213 473.455 176.557 471.475L179.001 467.874H176.009C173.534 467.874 172.502 468.685 170.039 472.57ZM174.034 473.124C172.973 475.461 172.095 478.199 172.083 479.207C172.052 481.754 169.635 480.722 169.234 477.991C168.908 475.768 173.316 468.874 175.063 468.874C175.558 468.874 175.095 470.787 174.034 473.124ZM310.061 470.874C308.686 471.95 308.074 472.84 308.7 472.852C309.327 472.864 310.902 471.989 312.2 470.907C315.272 468.348 313.329 468.318 310.061 470.874Z" fill="black"/>
<path d="M489.561 371.289C490.446 371.445 491.33 371.601 492.215 371.757C492.777 371.857 493.578 372.162 494.105 371.837C494.566 371.552 495.292 371.418 495.598 370.887C495.948 370.28 496.203 369.618 496.324 368.928C496.378 368.62 496.433 368.312 496.487 368.005C496.557 367.61 496.306 367.644 496.226 367.324C496.093 366.788 495.631 366.184 495.084 366.044C494.127 365.798 493.144 365.336 492.146 365.272C491.7 365.243 490.746 366.261 490.464 366.569C489.946 367.135 489.659 367.945 489.301 368.606C488.76 369.606 488.362 371.003 488.677 372.149C489.01 373.364 489.159 375.851 490.755 376.196C492.045 376.475 493.301 376.899 494.624 377.132" stroke="#F25CBE" stroke-width="4" stroke-linecap="round"/>
<path d="M506.52 368.695C505.618 368.536 504.642 368.318 503.827 368.855C502.831 369.51 502.163 370.355 501.49 371.306C500.815 372.26 500.881 373.043 502.018 373.514C502.952 373.902 504.218 374.464 504.973 375.149C505.501 375.628 506.114 376.32 506.291 377.032C506.461 377.716 505.692 378.146 505.293 378.534C504.724 379.088 503.986 378.965 503.273 379.193C502.446 379.458 501.957 379.441 501.098 379.289" stroke="#F25CBE" stroke-width="4" stroke-linecap="round"/>
<path d="M481.901 375.143C482.032 374.491 482.496 373.924 482.606 373.3C482.739 372.546 482.917 371.834 483.242 371.134C483.658 370.239 483.827 369.256 484 368.278C484.113 367.635 484.345 367.039 484.459 366.391C484.542 365.921 484.668 365.096 484.578 364.635C484.484 364.152 484.458 363.73 484.248 363.273C484.014 362.765 483.558 362.661 483.243 362.334C482.379 361.438 480.316 363.304 479.842 363.864C478.918 364.955 477.922 366.344 477.618 367.759C477.499 368.313 477.174 368.835 477.075 369.398C476.98 369.934 476.886 370.469 476.792 371.005C476.763 371.167 476.613 372.017 476.661 371.744C476.755 371.21 476.849 370.677 476.943 370.143C477.3 368.12 478.393 366.186 478.514 364.074C478.55 363.46 478.341 361.799 477.863 361.329C477.608 361.078 477.493 360.6 477.22 360.299C477.059 360.121 476.204 359.962 475.981 360.087C475.022 360.625 473.409 361.262 472.844 362.277C472.519 362.863 472.371 363.486 472.108 364.094C471.77 364.876 471.8 365.824 471.419 366.56C470.515 368.308 470.549 370.416 470.213 372.32" stroke="#F25CBE" stroke-width="4" stroke-linecap="round"/>
<path d="M477.223 370.002C477.177 370.227 477.045 370.871 476.803 370.944" stroke="#F25CBE" stroke-width="4" stroke-linecap="round"/>
<path d="M465.122 369.519C464.122 368.44 463.969 367.42 464.221 365.989C464.497 364.426 465.013 362.94 465.291 361.362C465.469 360.353 465.153 358.947 464.319 358.236C463.861 357.845 463.691 357.589 463.002 357.467C462.26 357.337 461.544 357.13 460.798 357.333C459.137 357.784 458.066 359.1 457.304 360.588C456.427 362.303 455.347 364.257 456.797 365.942C457.353 366.588 458.45 366.723 459.215 366.947C459.713 367.093 460.483 367.233 460.978 367.11C461.88 366.885 462.631 366.215 463.167 365.493" stroke="#F25CBE" stroke-width="4" stroke-linecap="round"/>
<path d="M443.051 358.646C442.872 359.772 442.801 361.721 443.771 362.517C444.963 363.494 446.663 363.374 448.1 363.845C449.142 364.186 449.953 363.14 450.591 362.514C451.689 361.437 452.032 359.877 452.567 358.504C453.137 357.045 453.752 355.614 454.255 354.134C454.559 353.238 454.952 352.341 455.116 351.409C455.184 351.02 455.173 350.295 455.432 349.977C455.629 349.734 455.625 349.243 455.678 348.941C455.762 348.462 455.952 348.001 456.057 347.513C456.136 347.144 456.475 345.555 456.8 345.458" stroke="#F25CBE" stroke-width="4" stroke-linecap="round"/>
<path d="M425.5 406C433.896 406 443.938 406.825 451.111 401.778C454.464 399.418 456.931 396.589 459.611 393.611C460.973 392.098 461.222 389.686 462.389 388.389C463.684 386.95 463.808 384.346 465.5 383.5" stroke="#F25CBE" stroke-width="4" stroke-linecap="round"/>
<path d="M428.499 396.5C426.54 398.994 424.925 401.843 423.11 404.111C421.977 405.528 423.942 407.237 425.277 408C426.781 408.859 427.334 411.368 428.749 412.5C429.428 413.043 431.072 415.146 431.499 416" stroke="#F25CBE" stroke-width="4" stroke-linecap="round"/>
<path d="M61.7702 234.644C62.4875 236.191 62.2985 237.918 62.747 239.514C62.8619 239.923 63.4844 241.233 63.2111 241.59" stroke="#F25CBE" stroke-width="4" stroke-linecap="round"/>
<path d="M60.7157 228.205C60.6205 226.374 62.6582 227.814 61.2719 228.49" stroke="#F25CBE" stroke-width="4" stroke-linecap="round"/>
<path d="M71.9986 240.503C71.9734 240.089 72.0276 239.791 72.0871 239.401C72.1368 239.077 71.959 238.782 71.9753 238.459C71.9993 237.983 71.8358 237.442 71.7726 236.966C71.5533 235.315 71.2271 233.67 71.0513 232.002C70.9092 230.654 70.8056 229.34 70.5567 227.994C70.475 227.552 70.119 225.945 70.413 225.561" stroke="#F25CBE" stroke-width="4" stroke-linecap="round"/>
<path d="M71.6797 233.288C72.9236 234.685 74.3881 235.68 75.6868 237.005C76.429 237.762 77.7512 238.323 78.2173 239.278" stroke="#F25CBE" stroke-width="4" stroke-linecap="round"/>
<path d="M72.4568 233.743C72.5514 232.897 72.7695 232.478 73.5289 232.107C73.8652 231.943 73.8627 231.591 74.0584 231.324C74.5454 230.66 75.0791 229.967 75.643 229.377C76.1294 228.867 76.5822 228.261 77.032 227.726C77.3745 227.318 77.6595 226.477 78.1211 226.252" stroke="#F25CBE" stroke-width="4" stroke-linecap="round"/>
<path d="M87.1806 231.708C88.7075 231.276 90.2666 231.315 91.6885 230.622C93.2092 229.88 93.7863 228.786 92.927 227.236C92.6545 226.745 91.643 226.607 91.1459 226.436C90.5329 226.225 90.0039 225.817 89.3649 225.636C88.4056 225.364 86.959 226.06 86.2856 226.72C85.704 227.291 85.5554 228.083 85.3578 228.842C85.1093 229.796 84.4594 230.66 84.5347 231.685C84.6735 233.575 85.5773 235.625 87.1904 236.702C88.2606 237.417 89.5214 236.964 90.6781 237.025C91.5934 237.074 92.5172 236.456 93.395 236.465" stroke="#F25CBE" stroke-width="4" stroke-linecap="round"/>
<path d="M39.1749 244.775C38.0391 242.446 38.1558 239.653 38.0609 237.121C38.0137 235.86 38.0119 234.612 38.0158 233.353C38.0169 232.967 37.9703 232.441 38.0828 232.065C38.2495 231.507 38.3856 230.884 38.4744 230.309C38.5363 229.908 38.5398 229.492 38.6803 229.108C38.7899 228.808 39.092 228.487 39.1567 228.199C39.1827 228.083 39.4689 228.024 39.5573 228.054C40.0306 228.217 40.3632 228.899 40.6229 229.28C41.1935 230.118 41.7171 230.972 42.3156 231.793C43.1155 232.889 43.7611 234.074 44.2403 235.343C44.4711 235.954 44.7522 236.535 45.0381 237.121C45.1252 237.3 45.2273 237.478 45.2889 237.667C45.3336 237.805 45.3217 238.136 45.439 237.88C45.9337 236.802 46.5252 235.777 46.8934 234.644C47.0905 234.037 47.1084 233.408 47.2161 232.779C47.3228 232.156 47.4919 231.48 47.6976 230.883C47.8456 230.453 47.8909 229.964 48.1051 229.564C48.2698 229.256 48.4542 228.959 48.628 228.656C48.972 228.056 49.2256 227.375 49.501 226.739C49.8019 226.044 50.2033 227.257 50.3551 227.524C50.8141 228.33 51.2226 229.199 51.5974 230.047C51.9731 230.897 52.0898 231.774 52.2859 232.671C52.6961 234.546 53.1816 236.402 53.4789 238.301C53.6308 239.271 53.8771 240.237 54.0808 241.198C54.189 241.709 53.9701 242.318 54.2048 242.799" stroke="#F25CBE" stroke-width="4" stroke-linecap="round"/>
<path d="M74.5 254C81.5459 259.203 88.8647 259.357 97.25 260.028C104.474 260.606 111.261 260.605 118.444 259.5C124.574 258.557 127.717 255.286 131.75 250.778C133.46 248.867 134.922 247.259 136.111 245C136.569 244.131 137.487 242.611 138.25 242C138.575 241.74 133.956 241 133 241C131.026 241 128.656 241.376 126.778 240.75C124.787 240.086 130.91 240.958 131.778 241.111C134.489 241.59 139 240.745 139 244.389C139 248.593 139 252.796 139 257" stroke="#F25CBE" stroke-width="4" stroke-linecap="round"/>
<path d="M412.405 58.8494C412.723 59.721 412.955 61.0584 413.547 61.7818C414.138 62.5044 414.593 63.3288 415.061 64.1349C415.879 65.5453 416.424 67.0614 417.329 68.4381C417.778 69.1208 417.969 70.1156 418.251 70.8888C418.464 71.4759 418.835 69.5232 418.835 69.2054C418.835 68.0757 419.006 66.7445 419.3 65.6514C419.63 64.4311 419.557 63.1443 419.916 61.9614C420.235 60.9078 420.471 59.8281 420.61 58.7307C420.69 58.0964 420.945 57.4992 421.012 56.9139" stroke="#F25CBE" stroke-width="4" stroke-linecap="round"/>
<path d="M427.506 61.6004C427.759 62.2957 427.973 62.9719 428.073 63.7071C428.132 64.1405 428.01 64.5646 428.075 64.9922C428.183 65.6996 428.102 66.4498 428.32 67.1274C428.479 67.6187 428.451 68.237 428.518 68.7477C428.594 69.3218 428.794 69.8477 428.854 70.4213" stroke="#F25CBE" stroke-width="4" stroke-linecap="round"/>
<path d="M427.793 56.1751C427.362 55.4583 427.423 54.9508 428.316 55.0536" stroke="#F25CBE" stroke-width="4" stroke-linecap="round"/>
<path d="M435.475 69.6076C434.628 67.2801 434.199 65.1144 434.131 62.6473C434.099 61.4428 434.568 60.9997 435.499 60.3538C436.384 59.7402 437.13 58.9165 438.285 58.7706C439.49 58.6185 441.051 60.1386 441.648 61.0645C442.299 62.0755 442.584 63.2223 442.887 64.3677C443.133 65.3002 443.563 66.1356 443.612 67.1115C443.641 67.6749 443.766 68.2653 443.954 68.7827" stroke="#F25CBE" stroke-width="4" stroke-linecap="round"/>
<path d="M451.565 56.4352C448.816 58.1786 448.484 62.6508 449.895 65.3495C450.958 67.3827 453.857 66.9078 455.551 66.2912" stroke="#F25CBE" stroke-width="4" stroke-linecap="round"/>
<path d="M451.416 56.7554C452.042 56.379 452.97 55.6256 453.775 55.7639C454.371 55.8662 454.964 56.3759 455.56 56.4445" stroke="#F25CBE" stroke-width="4" stroke-linecap="round"/>
<path d="M463.389 60.7781C464.866 60.2405 466.414 60.169 467.863 59.5486C468.833 59.1333 468.49 57.25 468.224 56.5203C467.891 55.6038 467.17 55.4926 466.584 54.856C465.886 54.0976 463.9 54.8722 463.222 55.385C461.91 56.377 461.404 57.399 461.365 59.0539C461.339 60.1433 461.409 61.1763 461.472 62.2738C461.522 63.1288 461.742 64.9957 462.478 65.5657C463.643 66.4666 465.536 66.1157 466.824 65.6469C467.81 65.2881 468.852 65.0416 469.862 64.6742" stroke="#F25CBE" stroke-width="4" stroke-linecap="round"/>
<path d="M403.498 122C408.454 122 412.753 122.326 417.276 120C419.813 118.695 422.461 117.283 424.776 115.611C429.875 111.928 433.758 108.291 437.248 103.25C439.455 100.062 439.498 93.9819 439.498 90.2778C439.498 86.9781 439.998 83.8596 439.998 80.5" stroke="#F25CBE" stroke-width="4" stroke-linecap="round"/>
<path d="M402.498 123C405.179 126.539 408.065 129.351 410.498 133" stroke="#F25CBE" stroke-width="4" stroke-linecap="round"/>
<path d="M402.498 121C405.514 118.715 407.697 114.151 410.998 112.5" stroke="#F25CBE" stroke-width="4" stroke-linecap="round"/>
</svg>
