<svg width="144" height="48" viewBox="0 0 144 48" fill="none" xmlns="http://www.w3.org/2000/svg">
<path d="M132.533 0.000155999H11.4737C11.0325 0.000155999 10.5965 0.000156 10.1564 0.00255599C9.78796 0.00495598 9.42249 0.011928 9.05054 0.0177959C8.24249 0.0272781 7.43635 0.0981672 6.63911 0.229847C5.84299 0.364394 5.07181 0.618053 4.35165 0.982245C3.63237 1.34952 2.97514 1.82675 2.40381 2.39663C1.82948 2.96491 1.35074 3.62176 0.98598 4.34193C0.620217 5.06067 0.366595 5.83086 0.233875 6.62591C0.0998928 7.41995 0.0277959 8.22315 0.018231 9.0283C0.00706378 9.39622 0.00588447 9.76536 0 10.1333V37.8704C0.00588447 38.243 0.00706378 38.6039 0.018231 38.9766C0.0277988 39.7817 0.0998957 40.5849 0.233875 41.3789C0.366228 42.1744 0.619865 42.945 0.98598 43.6641C1.35057 44.3819 1.82939 45.0361 2.40381 45.6012C2.97298 46.1736 3.63063 46.6512 4.35165 47.0156C5.0718 47.3808 5.8429 47.636 6.63911 47.7726C7.43648 47.9032 8.24254 47.9741 9.05054 47.9848C9.42249 47.9929 9.78796 47.9976 10.1564 47.9976C10.5965 48 11.0325 48 11.4737 48H132.533C132.965 48 133.405 48 133.837 47.9976C134.204 47.9976 134.58 47.9929 134.947 47.9848C135.753 47.9747 136.558 47.9038 137.353 47.7726C138.152 47.635 138.926 47.3799 139.65 47.0156C140.37 46.651 141.027 46.1734 141.596 45.6012C142.169 45.0339 142.648 44.3802 143.018 43.6641C143.381 42.9445 143.632 42.174 143.763 41.3789C143.897 40.5848 143.971 39.7818 143.986 38.9766C143.991 38.6039 143.991 38.243 143.991 37.8704C144 37.4344 144 37.0008 144 36.5578V11.4435C144 11.004 144 10.5681 143.991 10.1333C143.991 9.76536 143.991 9.39622 143.986 9.02825C143.971 8.22304 143.897 7.42002 143.763 6.62586C143.632 5.83128 143.381 5.06114 143.018 4.34189C142.275 2.89838 141.097 1.72338 139.65 0.982137C138.926 0.618835 138.152 0.365243 137.353 0.229739C136.558 0.097479 135.753 0.0265652 134.947 0.0176279C134.58 0.011772 134.204 0.00473998 133.837 0.00239999C133.405 0 132.965 0 132.533 0V0.000155999Z" fill="#A6A6A6"/>
<path d="M10.1591 46.95C9.79248 46.95 9.43469 46.9453 9.07092 46.9372C8.31734 46.9274 7.56553 46.862 6.82164 46.7415C6.128 46.6223 5.45605 46.4007 4.82796 46.084C4.20562 45.7699 3.638 45.358 3.14684 44.8641C2.64857 44.376 2.23373 43.8099 1.91878 43.1883C1.60035 42.5626 1.37998 41.8919 1.26534 41.1996C1.14154 40.4558 1.07456 39.7036 1.06498 38.9496C1.05735 38.6966 1.04736 37.8539 1.04736 37.8539V10.1333C1.04736 10.1333 1.058 9.30366 1.06504 9.0599C1.07422 8.30713 1.14081 7.55613 1.26424 6.81343C1.37908 6.11925 1.59963 5.44666 1.91822 4.81891C2.23202 4.19769 2.64455 3.63119 3.13982 3.14138C3.63453 2.64691 4.20397 2.23289 4.82737 1.91442C5.45402 1.59868 6.1247 1.37865 6.81693 1.26169C7.56327 1.13997 8.31769 1.07417 9.07388 1.06482L10.1597 1.05017H133.829L134.928 1.06541C135.677 1.07429 136.425 1.13951 137.164 1.26052C137.864 1.37894 138.541 1.60051 139.175 1.91794C140.424 2.55975 141.44 3.57516 142.081 4.82184C142.395 5.44525 142.612 6.11236 142.725 6.80054C142.85 7.54934 142.92 8.30623 142.934 9.06519C142.938 9.40502 142.938 9.77006 142.938 10.1333C142.947 10.5833 142.947 11.0117 142.947 11.4435V36.5578C142.947 36.9938 142.947 37.4192 142.938 37.8481C142.938 38.2383 142.938 38.5958 142.933 38.9637C142.919 39.7091 142.85 40.4525 142.727 41.1879C142.615 41.8852 142.396 42.5611 142.078 43.1919C141.76 43.8068 141.348 44.3679 140.856 44.8547C140.364 45.3512 139.795 45.7656 139.172 46.0817C138.539 46.4009 137.863 46.6233 137.164 46.7415C136.42 46.8626 135.669 46.928 134.915 46.9372C134.562 46.9453 134.193 46.95 133.835 46.95L132.531 46.9524L10.1591 46.95Z" fill="black"/>
<path d="M29.7225 24.3609C29.7354 23.3593 30.0015 22.3772 30.4959 21.5061C30.9903 20.635 31.6971 19.903 32.5504 19.3784C32.0083 18.6042 31.2932 17.9671 30.4618 17.5176C29.6304 17.0682 28.7057 16.8188 27.761 16.7892C25.7459 16.5777 23.7924 17.995 22.7656 17.995C21.7188 17.995 20.1378 16.8102 18.4354 16.8452C17.3342 16.8808 16.261 17.201 15.3203 17.7747C14.3797 18.3484 13.6036 19.1559 13.0679 20.1187C10.7471 24.1368 12.4782 30.042 14.7013 33.2899C15.8136 34.8803 17.1135 36.6569 18.8145 36.5939C20.4789 36.5248 21.1006 35.5325 23.1097 35.5325C25.1002 35.5325 25.6835 36.5939 27.4189 36.5538C29.205 36.5248 30.3303 34.9563 31.4035 33.3509C32.2027 32.2176 32.8176 30.9652 33.2256 29.6399C32.188 29.201 31.3025 28.4664 30.6795 27.5276C30.0566 26.5889 29.7238 25.4875 29.7225 24.3609V24.3609Z" fill="white"/>
<path d="M26.4447 14.6532C27.4185 13.4842 27.8983 11.9816 27.7821 10.4645C26.2943 10.6207 24.92 11.3318 23.933 12.456C23.4505 13.0052 23.0809 13.6441 22.8454 14.3362C22.6099 15.0284 22.5131 15.7601 22.5606 16.4897C23.3047 16.4973 24.0409 16.336 24.7137 16.0179C25.3865 15.6998 25.9784 15.2332 26.4447 14.6532Z" fill="white"/>
<path d="M50.7625 32.5676H45.0824L43.7184 36.5953H41.3125L46.6926 21.6937H49.1922L54.5722 36.5953H52.1253L50.7625 32.5676ZM45.6707 30.709H50.1731L47.9535 24.1723H47.8914L45.6707 30.709Z" fill="white"/>
<path d="M66.1915 31.1637C66.1915 34.5399 64.3845 36.709 61.6575 36.709C60.9668 36.7451 60.2798 36.586 59.6752 36.2499C59.0707 35.9137 58.573 35.4141 58.2392 34.8082H58.1876V40.1894H55.9575V25.7309H58.1161V27.5379H58.1572C58.5063 26.935 59.0124 26.438 59.6215 26.0997C60.2307 25.7615 60.9201 25.5948 61.6165 25.6172C64.3739 25.6172 66.1915 27.7969 66.1915 31.1637ZM63.8993 31.1637C63.8993 28.9641 62.7626 27.518 61.0282 27.518C59.3243 27.518 58.1782 28.9946 58.1782 31.1637C58.1782 33.3528 59.3243 34.8188 61.0282 34.8188C62.7626 34.8188 63.8993 33.3832 63.8993 31.1637Z" fill="white"/>
<path d="M78.149 31.1637C78.149 34.5399 76.342 36.709 73.6151 36.709C72.9243 36.7451 72.2373 36.586 71.6327 36.2498C71.0282 35.9137 70.5305 35.4141 70.1967 34.8082H70.1451V40.1894H67.915V25.7309H70.0736V27.5379H70.1146C70.4638 26.935 70.9699 26.4379 71.579 26.0997C72.1882 25.7615 72.8776 25.5948 73.574 25.6172C76.3315 25.6172 78.149 27.7969 78.149 31.1637ZM75.8568 31.1637C75.8568 28.9641 74.7201 27.518 72.9858 27.518C71.2819 27.518 70.1358 28.9946 70.1358 31.1637C70.1358 33.3528 71.2819 34.8188 72.9858 34.8188C74.7201 34.8188 75.8569 33.3832 75.8569 31.1637H75.8568Z" fill="white"/>
<path d="M86.0524 32.4434C86.2176 33.9211 87.6532 34.8914 89.6149 34.8914C91.4945 34.8914 92.8469 33.9211 92.8469 32.5886C92.8469 31.432 92.0313 30.7394 90.1 30.2648L88.1688 29.7996C85.4325 29.1387 84.1621 27.859 84.1621 25.7824C84.1621 23.2113 86.4028 21.4453 89.5844 21.4453C92.7332 21.4453 94.8918 23.2113 94.9645 25.7824H92.7133C92.5785 24.2953 91.3492 23.3977 89.5527 23.3977C87.7562 23.3977 86.527 24.3059 86.527 25.6277C86.527 26.6812 87.3121 27.3012 89.2328 27.7757L90.8746 28.1789C93.932 28.9019 95.2023 30.13 95.2023 32.3097C95.2023 35.0976 92.9816 36.8437 89.4496 36.8437C86.1449 36.8437 83.9137 35.1386 83.7695 32.4433L86.0524 32.4434Z" fill="white"/>
<path d="M100.015 23.1598V25.7309H102.081V27.4969H100.015V33.4863C100.015 34.4168 100.429 34.8504 101.337 34.8504C101.582 34.8461 101.827 34.8289 102.071 34.7988V36.5542C101.662 36.6305 101.247 36.6651 100.832 36.6574C98.6323 36.6574 97.7745 35.8312 97.7745 33.7242V27.4969H96.1948V25.7309H97.7745V23.1598H100.015Z" fill="white"/>
<path d="M103.278 31.1637C103.278 27.7453 105.291 25.5973 108.431 25.5973C111.581 25.5973 113.584 27.7453 113.584 31.1637C113.584 34.5914 111.591 36.7301 108.431 36.7301C105.271 36.7301 103.278 34.5914 103.278 31.1637ZM111.312 31.1637C111.312 28.8188 110.238 27.4348 108.431 27.4348C106.624 27.4348 105.55 28.8293 105.55 31.1637C105.55 33.518 106.624 34.8914 108.431 34.8914C110.238 34.8914 111.312 33.518 111.312 31.1637H111.312Z" fill="white"/>
<path d="M115.423 25.7309H117.55V27.5801H117.601C117.745 27.0026 118.084 26.4922 118.56 26.1347C119.035 25.7773 119.62 25.5945 120.215 25.6172C120.472 25.6163 120.728 25.6443 120.979 25.7005V27.7864C120.654 27.6872 120.316 27.6417 119.977 27.6516C119.653 27.6385 119.33 27.6956 119.03 27.8191C118.73 27.9425 118.461 28.1294 118.24 28.3669C118.019 28.6043 117.852 28.8868 117.751 29.1948C117.65 29.5028 117.616 29.8291 117.653 30.1512V36.5953H115.423L115.423 25.7309Z" fill="white"/>
<path d="M131.261 33.4043C130.961 35.3765 129.04 36.7301 126.583 36.7301C123.422 36.7301 121.46 34.6125 121.46 31.2152C121.46 27.8074 123.433 25.5973 126.489 25.5973C129.495 25.5973 131.385 27.6621 131.385 30.9563V31.7203H123.712V31.8551C123.676 32.2549 123.726 32.6577 123.858 33.0367C123.991 33.4157 124.202 33.7623 124.478 34.0533C124.755 34.3444 125.09 34.5733 125.462 34.7249C125.833 34.8764 126.233 34.9472 126.634 34.9324C127.161 34.9818 127.69 34.8597 128.142 34.5844C128.594 34.3091 128.945 33.8952 129.143 33.4043L131.261 33.4043ZM123.722 30.1617H129.154C129.174 29.8022 129.119 29.4424 128.994 29.105C128.868 28.7675 128.674 28.4597 128.424 28.2008C128.174 27.9419 127.873 27.7375 127.54 27.6004C127.207 27.4633 126.849 27.3966 126.489 27.4043C126.126 27.4021 125.766 27.4719 125.43 27.6096C125.094 27.7473 124.788 27.9502 124.531 28.2065C124.274 28.4629 124.07 28.7677 123.931 29.1032C123.792 29.4388 123.721 29.7986 123.722 30.1617V30.1617Z" fill="white"/>
<path d="M45.3915 10.4774C45.859 10.4438 46.3282 10.5144 46.7651 10.6842C47.202 10.8539 47.5959 11.1185 47.9182 11.4588C48.2405 11.7992 48.4832 12.2068 48.6289 12.6523C48.7746 13.0978 48.8196 13.5701 48.7606 14.0352C48.7606 16.3227 47.5243 17.6375 45.3915 17.6375H42.8052V10.4774H45.3915ZM43.9173 16.6249H45.2673C45.6014 16.6449 45.9357 16.5901 46.2459 16.4646C46.5562 16.3391 46.8345 16.1459 47.0607 15.8992C47.2869 15.6526 47.4552 15.3586 47.5535 15.0386C47.6517 14.7187 47.6774 14.3809 47.6286 14.0498C47.6738 13.72 47.6456 13.3842 47.5458 13.0666C47.4461 12.749 47.2773 12.4574 47.0517 12.2127C46.826 11.968 46.549 11.7762 46.2405 11.6512C45.932 11.5261 45.5996 11.4708 45.2673 11.4892H43.9173V16.6249Z" fill="white"/>
<path d="M50.0169 14.9333C49.983 14.5782 50.0236 14.2199 50.1362 13.8814C50.2488 13.5429 50.4309 13.2317 50.6708 12.9678C50.9108 12.7038 51.2032 12.4929 51.5294 12.3485C51.8557 12.2042 52.2084 12.1296 52.5652 12.1296C52.9219 12.1296 53.2747 12.2042 53.6009 12.3485C53.9271 12.4929 54.2196 12.7038 54.4595 12.9678C54.6994 13.2317 54.8815 13.5429 54.9941 13.8814C55.1068 14.2199 55.1474 14.5782 55.1134 14.9333C55.148 15.2887 55.1079 15.6475 54.9956 15.9866C54.8833 16.3256 54.7013 16.6374 54.4613 16.9019C54.2213 17.1664 53.9286 17.3777 53.6021 17.5224C53.2755 17.667 52.9223 17.7417 52.5652 17.7417C52.208 17.7417 51.8548 17.667 51.5283 17.5224C51.2017 17.3777 50.9091 17.1664 50.6691 16.9019C50.4291 16.6374 50.2471 16.3256 50.1348 15.9866C50.0225 15.6475 49.9823 15.2887 50.0169 14.9333V14.9333ZM54.0165 14.9333C54.0165 13.762 53.4903 13.077 52.5669 13.077C51.64 13.077 51.1185 13.762 51.1185 14.9333C51.1185 16.114 51.64 16.7936 52.5669 16.7936C53.4904 16.7936 54.0165 16.1093 54.0165 14.9333H54.0165Z" fill="white"/>
<path d="M61.888 17.6374H60.7817L59.6649 13.6577H59.5806L58.4685 17.6374H57.3727L55.8833 12.2339H56.9649L57.9329 16.3571H58.0126L59.1235 12.2339H60.1466L61.2575 16.3571H61.3419L62.3052 12.2339H63.3716L61.888 17.6374Z" fill="white"/>
<path d="M64.624 12.2339H65.6506V13.0923H65.7303C65.8655 12.784 66.0935 12.5255 66.3825 12.353C66.6716 12.1804 67.0072 12.1023 67.3428 12.1296C67.6057 12.1098 67.8697 12.1495 68.1152 12.2456C68.3607 12.3417 68.5815 12.4918 68.7611 12.6848C68.9407 12.8778 69.0746 13.1088 69.1528 13.3606C69.2311 13.6124 69.2517 13.8785 69.2131 14.1393V17.6373H68.1467V14.4071C68.1467 13.5388 67.7693 13.1069 66.9807 13.1069C66.8022 13.0986 66.624 13.129 66.4583 13.196C66.2926 13.263 66.1434 13.365 66.0208 13.4951C65.8983 13.6251 65.8053 13.7802 65.7483 13.9495C65.6913 14.1189 65.6715 14.2986 65.6904 14.4763V17.6374H64.624L64.624 12.2339Z" fill="white"/>
<path d="M70.9126 10.1245H71.979V17.6374H70.9126V10.1245Z" fill="white"/>
<path d="M73.4612 14.9333C73.4273 14.5781 73.4679 14.2198 73.5806 13.8813C73.6932 13.5428 73.8754 13.2316 74.1153 12.9676C74.3553 12.7037 74.6477 12.4927 74.974 12.3484C75.3002 12.2041 75.653 12.1295 76.0098 12.1295C76.3665 12.1295 76.7193 12.2041 77.0456 12.3484C77.3718 12.4927 77.6643 12.7037 77.9042 12.9676C78.1442 13.2316 78.3263 13.5428 78.439 13.8813C78.5516 14.2198 78.5922 14.5781 78.5583 14.9333C78.5929 15.2887 78.5527 15.6475 78.4403 15.9865C78.328 16.3256 78.146 16.6374 77.906 16.9018C77.6659 17.1663 77.3733 17.3777 77.0467 17.5223C76.7201 17.6669 76.3669 17.7417 76.0098 17.7417C75.6526 17.7417 75.2994 17.6669 74.9728 17.5223C74.6463 17.3777 74.3536 17.1663 74.1136 16.9018C73.8736 16.6374 73.6915 16.3256 73.5792 15.9865C73.4668 15.6475 73.4267 15.2887 73.4612 14.9333V14.9333ZM77.4608 14.9333C77.4608 13.762 76.9347 13.077 76.0112 13.077C75.0843 13.077 74.5628 13.762 74.5628 14.9333C74.5628 16.1139 75.0843 16.7936 76.0112 16.7936C76.9347 16.7936 77.4608 16.1092 77.4608 14.9333H77.4608Z" fill="white"/>
<path d="M79.6812 16.1093C79.6812 15.1366 80.4054 14.5759 81.6909 14.4962L83.1546 14.4119V13.9454C83.1546 13.3747 82.7772 13.0525 82.0483 13.0525C81.453 13.0525 81.0405 13.271 80.9222 13.6531H79.8897C79.9987 12.7249 80.8718 12.1296 82.0976 12.1296C83.4522 12.1296 84.2163 12.804 84.2163 13.9454V17.6374H83.1897V16.8781H83.1054C82.9341 17.1504 82.6936 17.3725 82.4085 17.5216C82.1233 17.6706 81.8037 17.7413 81.4823 17.7265C81.2555 17.7501 81.0262 17.7259 80.8093 17.6554C80.5924 17.585 80.3926 17.4699 80.2229 17.3175C80.0532 17.1651 79.9174 16.9789 79.824 16.7708C79.7307 16.5627 79.682 16.3374 79.6812 16.1093V16.1093ZM83.1546 15.6476V15.1958L81.8351 15.2802C81.0909 15.33 80.7534 15.5831 80.7534 16.0595C80.7534 16.5458 81.1753 16.8288 81.7554 16.8288C81.9254 16.846 82.0971 16.8289 82.2603 16.7784C82.4235 16.7279 82.5749 16.645 82.7054 16.5348C82.8359 16.4246 82.943 16.2893 83.0202 16.1368C83.0973 15.9844 83.143 15.818 83.1546 15.6476V15.6476Z" fill="white"/>
<path d="M85.6177 14.9333C85.6177 13.2259 86.4954 12.1442 87.8606 12.1442C88.1983 12.1287 88.5335 12.2096 88.8269 12.3774C89.1203 12.5453 89.3599 12.7932 89.5177 13.0922H89.5974V10.1245H90.6638V17.6374H89.6419V16.7837H89.5575C89.3876 17.0807 89.1397 17.3255 88.8406 17.4917C88.5414 17.6578 88.2026 17.739 87.8606 17.7264C86.486 17.7265 85.6177 16.6448 85.6177 14.9333ZM86.7193 14.9333C86.7193 16.0794 87.2595 16.769 88.163 16.769C89.0618 16.769 89.6173 16.0694 89.6173 14.938C89.6173 13.8118 89.056 13.1023 88.163 13.1023C87.2653 13.1023 86.7192 13.7966 86.7192 14.9333H86.7193Z" fill="white"/>
<path d="M95.076 14.9333C95.042 14.5782 95.0827 14.2199 95.1953 13.8814C95.3079 13.5429 95.49 13.2317 95.7299 12.9678C95.9699 12.7038 96.2623 12.4929 96.5885 12.3485C96.9147 12.2042 97.2675 12.1296 97.6243 12.1296C97.981 12.1296 98.3338 12.2042 98.66 12.3485C98.9862 12.4929 99.2786 12.7038 99.5186 12.9678C99.7585 13.2317 99.9406 13.5429 100.053 13.8814C100.166 14.2199 100.206 14.5782 100.172 14.9333C100.207 15.2887 100.167 15.6475 100.055 15.9866C99.9423 16.3256 99.7603 16.6374 99.5204 16.9019C99.2804 17.1664 98.9877 17.3777 98.6611 17.5224C98.3346 17.667 97.9814 17.7417 97.6243 17.7417C97.2671 17.7417 96.9139 17.667 96.5874 17.5224C96.2608 17.3777 95.9681 17.1664 95.7281 16.9019C95.4882 16.6374 95.3062 16.3256 95.1938 15.9866C95.0815 15.6475 95.0414 15.2887 95.076 14.9333V14.9333ZM99.0756 14.9333C99.0756 13.762 98.5494 13.077 97.626 13.077C96.6991 13.077 96.1776 13.762 96.1776 14.9333C96.1776 16.114 96.6991 16.7936 97.626 16.7936C98.5494 16.7936 99.0756 16.1093 99.0756 14.9333Z" fill="white"/>
<path d="M101.603 12.2339H102.63V13.0923H102.709C102.844 12.784 103.072 12.5255 103.362 12.353C103.651 12.1804 103.986 12.1023 104.322 12.1296C104.585 12.1098 104.849 12.1495 105.094 12.2456C105.34 12.3417 105.56 12.4918 105.74 12.6848C105.92 12.8778 106.054 13.1088 106.132 13.3606C106.21 13.6124 106.231 13.8785 106.192 14.1393V17.6373H105.126V14.4071C105.126 13.5388 104.748 13.1069 103.96 13.1069C103.781 13.0986 103.603 13.129 103.437 13.196C103.272 13.263 103.122 13.365 103 13.4951C102.877 13.6251 102.784 13.7802 102.727 13.9495C102.67 14.1189 102.651 14.2986 102.669 14.4763V17.6374H101.603V12.2339Z" fill="white"/>
<path d="M112.218 10.8885V12.2585H113.389V13.1567H112.218V15.9352C112.218 16.5012 112.451 16.7491 112.982 16.7491C113.118 16.7486 113.254 16.7404 113.389 16.7245V17.6127C113.197 17.647 113.003 17.6652 112.808 17.6672C111.623 17.6672 111.15 17.25 111.15 16.2083V13.1567H110.292V12.2584H111.15V10.8885H112.218Z" fill="white"/>
<path d="M114.845 10.1245H115.902V13.1022H115.987C116.128 12.7911 116.363 12.5311 116.657 12.3579C116.952 12.1847 117.293 12.1066 117.634 12.1343C117.896 12.12 118.157 12.1637 118.4 12.2622C118.643 12.3606 118.861 12.5114 119.038 12.7038C119.216 12.8962 119.349 13.1255 119.428 13.3753C119.507 13.625 119.53 13.8891 119.495 14.1487V17.6374H118.428V14.4118C118.428 13.5487 118.026 13.1116 117.272 13.1116C117.089 13.0966 116.905 13.1218 116.732 13.1854C116.559 13.2491 116.403 13.3497 116.273 13.4802C116.144 13.6107 116.044 13.7679 115.982 13.9408C115.919 14.1138 115.895 14.2983 115.912 14.4815V17.6374H114.845L114.845 10.1245Z" fill="white"/>
<path d="M125.713 16.1784C125.568 16.6723 125.254 17.0994 124.826 17.3852C124.398 17.671 123.883 17.7972 123.372 17.7417C123.016 17.7511 122.662 17.6829 122.335 17.5419C122.008 17.4008 121.715 17.1903 121.478 16.925C121.241 16.6596 121.064 16.3457 120.96 16.0051C120.856 15.6646 120.827 15.3054 120.876 14.9526C120.828 14.5988 120.857 14.2389 120.961 13.8973C121.065 13.5557 121.241 13.2403 121.477 12.9726C121.713 12.705 122.004 12.4912 122.33 12.3457C122.656 12.2003 123.01 12.1266 123.367 12.1296C124.87 12.1296 125.778 13.1568 125.778 14.8536V15.2257H121.962V15.2855C121.945 15.4838 121.97 15.6834 122.035 15.8715C122.1 16.0596 122.204 16.232 122.339 16.3778C122.475 16.5235 122.639 16.6393 122.822 16.7178C123.005 16.7963 123.202 16.8357 123.401 16.8335C123.656 16.8641 123.914 16.8182 124.143 16.7015C124.372 16.5849 124.561 16.4028 124.686 16.1784L125.713 16.1784ZM121.962 14.437H124.691C124.705 14.2557 124.68 14.0735 124.619 13.9022C124.558 13.731 124.461 13.5744 124.336 13.4426C124.211 13.3108 124.059 13.2066 123.891 13.1368C123.724 13.067 123.543 13.0331 123.361 13.0372C123.177 13.0349 122.994 13.0695 122.823 13.1391C122.652 13.2086 122.497 13.3116 122.366 13.4421C122.236 13.5725 122.133 13.7278 122.064 13.8987C121.994 14.0695 121.96 14.2526 121.962 14.437H121.962Z" fill="white"/>
</svg>
