<svg width="560" height="524" viewBox="0 0 560 524" fill="none" xmlns="http://www.w3.org/2000/svg">
<g clip-path="url(#clip0_2003_6813)">
<path d="M424.223 369.523C420.946 369.179 418.871 370.222 417.598 373.296C417.213 374.224 417.218 375.693 417.7 376.575C418.591 378.203 421.365 378.021 422.935 378.186C424.218 378.321 426.259 378.994 426.317 380.553C426.383 382.306 425.833 382.928 424.475 383.864C421.881 385.654 418.785 385.543 415.785 385.227" stroke="#F25CBE" stroke-width="4" stroke-linecap="round"/>
<path d="M432.508 379.192L431.881 385.16" stroke="#F25CBE" stroke-width="4" stroke-linecap="round"/>
<path d="M432.663 372.924C432.856 372.293 433.016 371.748 433.343 371.236" stroke="#F25CBE" stroke-width="4" stroke-linecap="round"/>
<path d="M438.241 386.833C438.511 384.26 438.781 381.34 441.037 379.893C442.074 379.229 443.565 381.099 443.788 381.886C443.955 382.475 444.403 383.211 444.338 383.829C444.235 384.816 444.73 383.813 444.874 383.383C445.184 382.457 445.445 380.772 446.235 380.132C447.165 379.379 448.302 379.595 449.421 379.713C452.124 379.997 451.443 385.592 451.248 387.446" stroke="#F25CBE" stroke-width="4" stroke-linecap="round"/>
<path d="M460.379 381.87C457.542 382.123 456.752 382.899 456.48 385.483C456.186 388.284 460.944 388.214 462.834 388.413C464.202 388.557 466.345 385.968 465.751 384.572C465.042 382.905 463.752 382.476 462.094 382.302" stroke="#F25CBE" stroke-width="4" stroke-linecap="round"/>
<path d="M470.39 389.459C470.609 387.377 470.486 385.375 470.789 383.272C470.896 382.532 471.655 381.665 472.08 381.089C472.439 380.603 474.027 381.043 474.537 381.096C476.358 381.288 477.208 383.836 477.108 385.333C477.027 386.559 476.963 388.836 477.378 389.942" stroke="#F25CBE" stroke-width="4" stroke-linecap="round"/>
<path d="M67.1491 316.858C67.8664 318.405 67.6774 320.132 68.1259 321.728C68.2408 322.137 68.8633 323.447 68.59 323.804" stroke="#F25CBE" stroke-width="4" stroke-linecap="round"/>
<path d="M66.0946 310.419C65.9994 308.588 68.0371 310.027 66.6508 310.704" stroke="#F25CBE" stroke-width="4" stroke-linecap="round"/>
<path d="M77.3775 322.717C77.3523 322.303 77.4065 322.005 77.466 321.615C77.5157 321.29 77.3379 320.996 77.3542 320.673C77.3782 320.197 77.2147 319.656 77.1515 319.18C76.9322 317.529 76.606 315.884 76.4302 314.216C76.2882 312.868 76.1845 311.554 75.9356 310.208C75.8539 309.766 75.4979 308.159 75.7919 307.775" stroke="#F25CBE" stroke-width="4" stroke-linecap="round"/>
<path d="M77.0586 315.502C78.3025 316.899 79.7671 317.894 81.0657 319.219C81.8079 319.976 83.1301 320.537 83.5962 321.492" stroke="#F25CBE" stroke-width="4" stroke-linecap="round"/>
<path d="M77.8357 315.957C77.9303 315.111 78.1484 314.692 78.9078 314.321C79.2441 314.157 79.2416 313.805 79.4373 313.538C79.9243 312.873 80.458 312.181 81.0219 311.59C81.5083 311.081 81.9611 310.475 82.4109 309.939C82.7534 309.532 83.0384 308.691 83.5001 308.466" stroke="#F25CBE" stroke-width="4" stroke-linecap="round"/>
<path d="M92.5595 313.922C94.0864 313.49 95.6455 313.529 97.0674 312.836C98.5881 312.094 99.1652 311 98.3059 309.45C98.0334 308.959 97.0219 308.821 96.5248 308.65C95.9118 308.439 95.3829 308.031 94.7438 307.85C93.7845 307.578 92.3379 308.274 91.6645 308.934C91.0829 309.505 90.9343 310.297 90.7367 311.056C90.4882 312.01 89.8383 312.874 89.9136 313.899C90.0524 315.789 90.9562 317.838 92.5693 318.916C93.6395 319.631 94.9003 319.177 96.057 319.239C96.9723 319.288 97.8961 318.67 98.7739 318.679" stroke="#F25CBE" stroke-width="4" stroke-linecap="round"/>
<path d="M44.5538 326.989C43.418 324.66 43.5347 321.867 43.4398 319.335C43.3926 318.074 43.3908 316.826 43.3947 315.567C43.3958 315.18 43.3492 314.655 43.4617 314.278C43.6284 313.721 43.7645 313.098 43.8533 312.523C43.9152 312.122 43.9187 311.706 44.0592 311.321C44.1688 311.022 44.4709 310.701 44.5356 310.413C44.5616 310.297 44.8478 310.237 44.9362 310.268C45.4095 310.431 45.7422 311.113 46.0018 311.494C46.5724 312.332 47.096 313.186 47.6945 314.007C48.4944 315.103 49.14 316.288 49.6193 317.557C49.85 318.168 50.1311 318.749 50.417 319.335C50.5041 319.514 50.6062 319.691 50.6678 319.881C50.7125 320.018 50.7006 320.349 50.8179 320.094C51.3126 319.016 51.9041 317.991 52.2723 316.858C52.4694 316.251 52.4873 315.622 52.595 314.993C52.7017 314.37 52.8708 313.694 53.0765 313.097C53.2245 312.667 53.2698 312.178 53.484 311.778C53.6487 311.47 53.8331 311.173 54.0069 310.87C54.3509 310.27 54.6045 309.589 54.8799 308.953C55.1808 308.257 55.5822 309.471 55.734 309.738C56.193 310.544 56.6015 311.413 56.9763 312.261C57.352 313.111 57.4687 313.988 57.6648 314.884C58.075 316.76 58.5605 318.616 58.8578 320.515C59.0097 321.485 59.256 322.451 59.4597 323.412C59.5679 323.923 59.349 324.532 59.5837 325.013" stroke="#F25CBE" stroke-width="4" stroke-linecap="round"/>
<path d="M435.407 76.6867C435.655 75.2786 435.984 73.9027 436.27 72.5092C436.522 71.2824 437.224 70.1032 437.662 68.9328C438.046 67.9076 438.383 66.8556 438.956 65.9171C439.298 65.3548 439.82 64.6155 439.935 63.9603C439.993 63.6311 440.469 61.5174 440.787 61.6495C441.201 61.8212 441.398 62.8066 441.596 63.1812C441.965 63.8792 442.421 64.5802 442.61 65.3486C442.916 66.5929 443.597 67.6913 443.88 68.9432C444.21 70.408 444.754 71.8194 445.015 73.3037C445.135 73.9836 445.627 74.7248 445.656 75.3843C445.681 75.9463 446.079 76.6255 445.986 77.1559" stroke="#F25CBE" stroke-width="4" stroke-linecap="round"/>
<path d="M437.426 71.7117L443.212 72.7319" stroke="#F25CBE" stroke-width="4" stroke-linecap="round"/>
<path d="M451.017 73.0928C450.788 74.3946 450.621 75.5632 451.333 76.7024C451.824 77.4896 453.224 77.6389 454.048 77.4986C454.613 77.4025 455.646 76.8542 455.797 76.2203C455.975 75.4695 456.438 74.7444 456.579 73.9465" stroke="#F25CBE" stroke-width="4" stroke-linecap="round"/>
<path d="M462.833 64.3873C462.631 65.5364 462.377 66.6733 462.351 67.8421C462.327 68.965 462.597 70.0489 462.399 71.1718C462.179 72.415 462.053 73.7664 461.972 75.0313C461.916 75.901 461.816 76.6891 462.104 77.5226C462.479 78.6087 462.813 79.232 463.782 79.8846C464.188 80.1583 465.067 80.1395 465.555 80.2255C466.23 80.3444 466.747 80.4754 467.395 80.2679C468.136 80.0305 469.759 79.0965 469.906 78.2638C470.108 77.1183 470.394 75.8222 469.758 74.747C469.095 73.6271 468.313 72.4143 466.933 72.0912C465.765 71.8176 464.601 72.4415 463.479 72.2437" stroke="#F25CBE" stroke-width="4" stroke-linecap="round"/>
<path d="M474.754 81.7208C474.737 80.7813 474.798 80.0316 474.964 79.0923C475.121 78.2014 474.996 77.2951 475.431 76.4456C476.299 74.7498 477.409 74.7001 479.113 75.0005" stroke="#F25CBE" stroke-width="4" stroke-linecap="round"/>
<path d="M486.318 75.8903C485.153 75.7139 483.642 77.3456 483.326 78.423C483.142 79.0504 482.877 79.5944 483.078 80.2691C483.238 80.8065 483.794 81.0792 484.05 81.5124C484.453 82.1922 485.468 82.3407 486.174 82.4651C486.623 82.5442 487.076 82.6498 487.528 82.7039C487.883 82.7463 488.148 82.5593 488.557 82.6314" stroke="#F25CBE" stroke-width="4" stroke-linecap="round"/>
<path d="M486.115 75.6005C486.647 75.6944 487.475 75.684 487.85 76.1603C488.088 76.4634 488.492 77.0838 488.166 77.4853C487.829 77.9014 486.89 77.8937 486.427 77.912C485.539 77.9471 484.563 77.9923 483.69 77.8384" stroke="#F25CBE" stroke-width="4" stroke-linecap="round"/>
<path d="M492.32 75.6792C493.255 76.2909 494.071 77.4094 494.71 78.3219C495.056 78.8162 495.726 79.2852 495.898 79.864" stroke="#F25CBE" stroke-width="4" stroke-linecap="round"/>
<path d="M500.539 78.0169C499.955 79.3074 498.965 80.449 498.071 81.5308C496.698 83.1925 495.408 84.9241 494.017 86.5699C493.154 87.5908 492.369 88.6663 491.501 89.6803C490.997 90.2682 490.734 90.9546 490.28 91.5664" stroke="#F25CBE" stroke-width="4" stroke-linecap="round"/>
<path fill-rule="evenodd" clip-rule="evenodd" d="M271.023 18.5689C269.72 18.7098 268.045 19.1403 267.302 19.5251C263.996 21.2363 260.203 27.2873 259.334 32.233C258.878 34.8318 258.824 34.9172 258.064 34.2303C257.4 33.6291 256.552 33.5438 252.836 33.7045C245.149 34.0372 244.306 35.077 244.306 44.2328V50.1481L243.099 48.9915C241.397 47.3613 238.247 46.9963 236.963 48.2805C236.125 49.1186 236.066 49.5215 236.285 52.9322C236.417 54.986 236.723 58.3144 236.965 60.329C237.207 62.3436 237.406 65.117 237.408 66.4925C237.41 68.4333 237.648 69.3413 238.468 70.5483L239.525 72.1035L238.468 73.3596C236.568 75.6172 237.664 77.8313 239.723 75.8969C240.701 74.9782 241.721 74.6838 241.721 75.3199C241.721 75.5065 241.18 76.3067 240.519 77.0983L239.318 78.5376L234.194 76.0555C230.291 74.165 228.909 73.6785 228.393 74.0146C228.02 74.2572 227.747 74.8161 227.786 75.2565C227.836 75.8202 227.221 76.37 225.714 77.1108C221.963 78.9556 215.062 87.0452 213.687 91.2101C213.412 92.0444 213.261 94.0408 213.352 95.6473C213.497 98.2139 213.755 98.9529 215.477 101.748C216.921 104.092 217.987 105.27 219.524 106.222C221.541 107.472 221.81 107.52 227.605 107.656C233.026 107.783 233.568 107.866 233.268 108.518C233.085 108.914 232.859 117.865 232.765 128.408C232.663 139.741 232.421 147.899 232.172 148.365C231.68 149.284 232.482 150.556 233.344 150.225C234.317 149.852 234.409 150.521 233.45 151C232.401 151.524 231.407 154.639 231.376 157.502C231.347 160.222 230.613 162.788 228.605 167.197C227.579 169.449 226.098 173.073 225.315 175.252C224.531 177.431 223.753 179.129 223.586 179.026C223.419 178.923 223.151 179.37 222.99 180.02C222.829 180.671 222.113 182.356 221.4 183.765C220.686 185.174 219.931 187.307 219.723 188.505C219.515 189.703 218.95 192.592 218.467 194.926C217.764 198.322 217.589 200.795 217.589 207.315C217.589 213.518 217.715 215.435 218.117 215.353C218.408 215.293 218.709 215.73 218.787 216.322C219.137 218.98 221.197 227.691 222.389 231.546C223.109 233.876 223.587 235.892 223.453 236.027C223.058 236.421 217.795 233.661 215.534 231.874C214.095 230.737 212.756 229.02 211.184 226.295C207.878 220.566 205.963 218.321 203.285 217.035C200.057 215.485 195.122 214.599 189.711 214.599C185.55 214.599 184.834 214.717 182.824 215.734C178.806 217.766 177.265 220.309 179.67 220.938C180.433 221.138 180.531 221.532 180.537 224.453C180.55 229.395 181.598 234.523 183.221 237.582C184.892 240.731 188.756 244.772 192.524 247.313C195.786 249.513 196.66 249.802 202.426 250.587C206.527 251.145 207.024 251.318 208.889 252.84C210 253.746 211.663 255.045 212.584 255.725C213.504 256.405 214.559 257.486 214.927 258.127C215.751 259.563 220.988 262.3 224.401 263.079C225.75 263.387 228.258 263.774 229.974 263.94L233.094 264.241L233.683 266.245C234.589 269.327 235.168 272.212 235.685 276.22C235.945 278.235 236.325 280.562 236.528 281.392C236.732 282.221 237.19 285.421 237.546 288.502C238.408 295.958 240.088 299.695 245.157 305.432C249.333 310.158 250.965 311.127 254.739 311.12C258.84 311.113 260.59 310.695 261.992 309.385C263.263 308.197 263.267 308.178 263.244 303.303C263.22 298.338 262.46 290.184 261.493 284.52C261.2 282.804 261.07 281.29 261.204 281.156C261.338 281.022 262.45 281.24 263.674 281.64C265.36 282.192 266.861 282.318 269.864 282.161C274.242 281.932 275.645 281.399 277.813 279.143C279.623 277.258 281.594 277.228 284.621 279.039C286.538 280.186 287.188 280.329 291.089 280.459C295.219 280.596 295.567 280.537 298.338 279.228C300.325 278.289 301.625 277.333 302.437 276.211L303.627 274.57L304.089 275.934C304.546 277.278 304.819 279.065 306.16 289.464C306.888 295.114 308.11 299.153 311.213 306.169C314.086 312.667 314.784 313.883 316.508 315.396C318.537 317.178 319.667 317.589 322.539 317.589C324.5 317.589 325.073 317.399 326.111 316.404C327.384 315.184 328.985 311.57 330.263 307.031C330.663 305.609 331.169 303.883 331.387 303.197C331.605 302.509 331.783 297.929 331.783 293.019V284.09L330.05 277.15C329.097 273.332 328.195 269.891 328.046 269.502C327.823 268.922 327.959 268.853 328.809 269.12C329.378 269.298 330.62 269.966 331.568 270.604C332.516 271.242 334.15 272.1 335.199 272.511C336.296 272.941 338.513 274.573 340.417 276.355C342.238 278.059 344.793 280.131 346.093 280.961C347.429 281.813 348.867 283.172 349.398 284.084C349.914 284.972 350.884 286.329 351.552 287.1C353.113 288.902 353.615 291.214 352.606 291.952C351.925 292.45 351.925 292.714 352.604 296.172C353.003 298.2 353.329 300.173 353.329 300.555C353.329 301.827 347.903 308.849 344.852 311.527C342.555 313.543 337.978 315.532 329.413 318.234C326.569 319.132 321.957 320.905 319.165 322.175C316.372 323.445 313.754 324.484 313.346 324.484C312.938 324.484 311.635 325.174 310.451 326.017C309.267 326.861 307.522 327.925 306.574 328.382C304.508 329.379 300.089 332.482 297.025 335.089C295.802 336.129 294.61 336.98 294.375 336.98C293.656 336.98 292.291 340.067 291.329 343.869C290.298 347.947 290.154 350.883 290.953 351.534C291.604 352.064 295.457 351.951 295.956 351.387C296.151 351.166 296.66 349.628 297.085 347.969C299.661 337.934 305.868 332.179 320.148 326.59C322.516 325.663 329.52 323.602 330.226 323.623C330.253 323.624 330.275 324.836 330.275 326.316V329.008L328.644 328.958C326.558 328.893 326.382 328.683 327.275 327.32C327.866 326.419 327.903 326.078 327.472 325.559C326.744 324.682 326.459 324.737 324.898 326.05C322.947 327.692 323.187 329.497 325.535 330.822C327.245 331.787 330.605 332.151 331.611 331.48C333.098 330.487 333.572 326.522 332.459 324.389C331.854 323.229 331.863 323.215 333.431 322.959C336.678 322.427 343.227 319.924 345.757 318.246C347.196 317.292 349.501 315.348 350.878 313.926C352.642 312.105 353.231 311.682 352.87 312.494C352.144 314.129 352.695 315.754 354.31 316.739C357.384 318.613 360.224 317.075 360.224 313.535C360.224 311.731 360.116 311.545 358.662 310.855C357.396 310.255 356.782 310.199 355.425 310.561L353.749 311.008L354.645 309.666C355.138 308.928 355.839 307.645 356.203 306.816C356.568 305.986 357.379 304.241 358.006 302.938C359.064 300.738 359.145 300.164 359.124 294.966C359.104 289.872 358.994 289.102 357.917 286.474C355.783 281.269 353.413 277.712 349.726 274.183C343.229 267.965 336.402 263.838 329.413 261.904C319.877 259.265 319.442 259.199 311.726 259.199H304.382L303.157 254.028C302.483 251.184 301.503 247.403 300.98 245.625C299.483 240.544 298.582 236.526 298.844 236.103C298.976 235.889 300.769 235.73 302.829 235.749C306.408 235.783 306.514 235.811 305.207 236.383C303.299 237.219 302.48 238.579 302.48 240.914C302.48 243.194 303.193 244.074 305.792 245.001C308.098 245.823 311.729 245.795 312.576 244.948C313.7 243.824 313.424 241.264 311.973 239.346C311.268 238.415 310.686 237.388 310.68 237.066C310.672 236.661 310.27 236.536 309.391 236.665C308.587 236.783 308.035 236.643 307.897 236.283C307.627 235.579 307.656 235.579 311.152 236.311C312.722 236.639 314.477 236.818 315.052 236.708C315.628 236.598 317.245 236.911 318.647 237.404C320.049 237.897 321.796 238.299 322.53 238.299C323.264 238.299 324.667 238.687 325.648 239.161C326.63 239.635 327.597 240.023 327.799 240.023C328 240.023 330.288 241.059 332.883 242.326C335.478 243.592 338.57 244.989 339.755 245.429C342.085 246.295 348.805 250.1 349.237 250.799C349.383 251.034 349.211 251.227 348.855 251.227C348.5 251.227 348.089 251.033 347.943 250.796C347.796 250.559 346.836 250.365 345.808 250.365C343.2 250.365 341.263 252.148 341.263 254.549C341.263 256.58 341.679 257.131 344.578 258.939C348.676 261.495 351.068 260.161 351.561 255.046L351.821 252.345L356.346 256.261C362.107 261.249 365.217 264.491 367.716 268.116C368.809 269.702 369.704 271.108 369.704 271.241C369.704 271.373 368.98 271.094 368.095 270.619C367.209 270.145 365.857 269.757 365.089 269.757C363.264 269.757 362.378 271.393 362.378 274.765C362.378 277.125 362.461 277.309 364.325 279.095C366.092 280.789 366.471 280.961 368.433 280.961C370.467 280.961 370.65 280.867 371.53 279.375L372.466 277.79L373.231 280.776C374.233 284.69 375.035 292.878 374.765 296.444C374.558 299.177 372.789 305.195 371.146 308.755C369.565 312.181 366.074 317.666 364.779 318.758C364.051 319.372 362.777 320.155 361.947 320.498C361.118 320.84 358.854 322.171 356.916 323.455C350.451 327.738 346.28 329.432 338.421 330.969C333.782 331.876 328.541 333.359 327.674 334.011C327.429 334.196 325.781 334.868 324.011 335.504C321.115 336.547 318.359 338.114 316.144 339.977C313.837 341.917 310.198 348.457 310.087 350.861C310.03 352.098 310.156 352.278 311.085 352.278C311.953 352.278 312.283 351.919 312.872 350.329C314.189 346.786 316.688 343.043 318.916 341.283C321.171 339.5 322.248 338.924 326.181 337.394C332.365 334.989 334.054 334.432 335.968 334.168C343.762 333.094 351.424 330.245 357.744 326.07C359.7 324.777 362.168 323.284 363.227 322.752C366.495 321.11 367.547 320.09 369.915 316.263C374.289 309.197 376.987 302.002 377.35 296.435C377.602 292.576 376.846 284.106 375.938 280.62C374.043 273.338 373.373 271.804 369.667 266.254C364.127 257.955 349.637 246.419 339.968 242.608C338.683 242.101 335.686 240.746 333.307 239.595C330.928 238.445 327.285 236.992 325.211 236.367C323.138 235.742 321.441 235.173 321.441 235.102C321.441 234.91 324.538 228.201 324.718 228C325.221 227.444 330.488 228.131 333.195 229.106C337.045 230.492 339.773 232.229 343.495 235.664C345.078 237.125 347.438 238.791 348.74 239.366C350.041 239.942 352.363 241.274 353.9 242.326C355.436 243.377 357.425 244.48 358.32 244.775C360.188 245.391 366.553 245.096 367.991 244.327C370.469 243.001 371.218 238.695 369.991 232.84C369.154 228.847 365.161 222.472 361.131 218.692C359.361 217.033 356.142 214.013 353.976 211.98C351.811 209.948 348.597 207.218 346.836 205.914C342.509 202.71 336.957 197.986 335.759 196.487C333.055 193.104 330.405 185.286 331.694 184.489C332.208 184.171 330.24 174.057 329 170.645C328.612 169.578 327.721 165.807 327.02 162.264C326.016 157.188 325.32 154.905 323.739 151.491C322.635 149.109 321.354 146.614 320.892 145.948L320.052 144.737L318.782 147.375L236.538 148.804L235.179 146.472L235.397 128.071C235.517 117.95 235.744 109.081 235.902 108.362C236.137 107.293 236.667 106.823 238.814 105.777C240.354 105.027 242.624 103.341 244.308 101.697C247.796 98.2914 248.383 96.6432 248.099 91.042C247.868 86.4726 247.002 84.5528 243.926 81.7872L241.779 79.8566L243.393 77.5262C244.843 75.4328 245.201 75.1695 246.919 74.9377C247.971 74.7955 250.41 74.1633 252.341 73.5324C254.272 72.9016 256.696 72.2035 257.728 71.9811C264.157 70.5957 268.217 69.0392 274.04 65.7272L275.979 64.6244L276.111 66.1068C276.376 69.0918 278.78 69.368 278.78 66.4136C278.78 64.1733 280.473 59.6951 281.088 60.31C282.285 61.5076 283.52 60.5277 283.52 58.38C283.52 57.821 283.689 57.2591 283.895 57.1316C284.494 56.7614 291.31 61.0896 293.403 63.1701C294.454 64.2146 295.462 65.0691 295.644 65.0691C296.32 65.0691 298.761 69.1642 299.719 71.907C300.82 75.0557 300.68 75.3936 298.265 75.4048C294.964 75.4199 289.988 78.8233 288.017 82.4128C286.914 84.4227 286.756 85.1901 286.609 89.2697L286.444 93.8633L288.752 96.1644C291.419 98.8223 291.945 99.239 295.155 101.236C296.458 102.047 298.662 103.452 300.052 104.359C302.544 105.984 302.636 106.007 306.792 106.007H311.005L311.742 109.131C314.252 119.771 314.912 124.727 315.272 135.673C315.559 144.373 315.782 145.226 317.417 143.87C318.044 143.349 318.092 142.368 317.847 135.095C317.485 124.332 316.535 117.406 314.186 108.401L313.293 104.978L315.105 103.482C318.479 100.695 322.513 96.2782 323.488 94.3037C324.234 92.7916 324.457 91.5889 324.457 89.0891V85.84L322.163 83.7496C319.45 81.2778 313.836 78.4234 309.521 77.3211C306.668 76.5924 306.441 76.4502 306.505 75.4332C306.566 74.4658 306.387 74.3184 305.013 74.2034C303.628 74.0879 303.37 73.8694 302.72 72.2642C300.519 66.8307 299.389 65.1243 295.908 61.9807C293.983 60.2428 291.014 57.9404 289.31 56.8644L286.212 54.908L287.444 53.676C289.011 52.1088 289.291 50.5419 289.021 44.8434C288.837 40.9729 288.518 39.3725 287.011 34.7702C284.777 27.9487 283.27 25.3102 278.564 19.9758C277.136 18.3564 275.612 18.0725 271.023 18.5689ZM277.438 22.5441C277.923 23.3297 278.716 24.3299 279.197 24.766C280.745 26.1664 282.975 30.6911 284.623 35.7738C285.985 39.9723 286.26 41.4775 286.438 45.7066L286.648 50.6915L285.229 52.3074C284.159 53.5256 283.579 53.8652 282.87 53.6876C281.725 53.4002 279.6 55.3152 280.627 55.7095C281.017 55.8591 281.163 56.3831 281.042 57.2053C280.886 58.2701 280.694 58.4398 279.834 58.2752C278.999 58.1158 278.675 58.3657 278.069 59.6352C277.661 60.491 277.092 61.1908 276.805 61.1908C276.517 61.1908 274.954 62.0001 273.329 62.9886C268.501 65.9288 264.405 67.6215 258.39 69.1629C255.266 69.9635 251.546 71.0133 250.123 71.4959C246.808 72.621 246.651 72.6103 247.498 71.3175C248.427 69.9006 247.672 69.8967 245.383 71.3063C244.435 71.8902 243.466 72.3689 243.229 72.3702C242.992 72.3715 242.189 71.4567 241.445 70.3367C239.986 68.1412 240.08 68.8039 239.29 55.2657L239.007 50.4178H240.056C241.055 50.4178 241.835 51.3546 244.585 55.8569C244.982 56.5076 245.236 56.5727 245.878 56.1891C246.602 55.7565 246.696 54.8865 246.892 46.8308C247.151 36.1177 246.925 36.5624 252.261 36.2823C256.385 36.066 256.9 36.2892 257.922 38.7334C258.691 40.576 259.303 41.0138 260.335 40.4614C260.878 40.1701 261.112 39.544 261.112 38.3749C261.112 35.8988 262.208 30.667 263.217 28.3292C264.155 26.1531 267.642 22.1063 269.084 21.5203C269.558 21.3276 271.433 21.1574 273.25 21.1423C276.539 21.1152 276.559 21.1225 277.438 22.5441ZM302.401 79.224C303.144 80.3431 305.757 80.5883 305.339 79.4998C305.14 78.9827 305.332 78.9013 306.263 79.1068C311.237 80.2039 317.079 82.7813 320.04 85.1858C321.84 86.6475 321.872 86.719 321.872 89.3606C321.872 91.5915 321.661 92.374 320.631 93.9641C318.954 96.5518 314.529 100.806 312.386 101.891C311.426 102.377 309.559 103.351 308.236 104.055L305.831 105.335L305.101 104.433C304.7 103.938 303.914 103.387 303.355 103.21C302.796 103.032 301.45 102.259 300.363 101.491C299.276 100.723 297.502 99.5855 296.42 98.9628C295.338 98.3401 293.254 96.7457 291.788 95.4189L289.122 93.0066L289.124 89.9186C289.128 85.3828 289.726 83.7172 292.217 81.3006C295.001 78.6001 296.503 77.9433 299.439 78.1398C301.255 78.2614 301.924 78.5066 302.401 79.224ZM234.13 79.5283C235.506 79.6011 236.626 79.9562 237.362 80.5539C237.982 81.0563 239.123 81.7578 239.899 82.1125C241.922 83.0364 244.647 86.0076 245.157 87.8437C245.918 90.5835 245.701 95.1806 244.715 97.2184C243.836 99.0339 241.583 101.175 238.703 102.93C236.894 104.033 236.549 104.069 236.549 103.156C236.549 102.532 236.428 102.539 235.364 103.224C234.713 103.644 234.034 104.232 233.855 104.529C233.616 104.929 232.037 105.044 227.816 104.969C221.091 104.848 220.614 104.641 217.88 100.658C216.161 98.1518 216.081 97.8902 216.081 94.8027C216.081 91.7763 216.188 91.4066 217.759 88.9878C220.196 85.2362 223.552 81.495 225.776 80.0505C227.516 78.9207 227.937 78.8233 229.87 79.1042C231.055 79.2762 232.972 79.4671 234.13 79.5283ZM261.153 82.649C260.301 83.5488 258.846 85.5366 257.921 87.0659C256.995 88.5957 255.617 90.6228 254.86 91.5708C253.102 93.7715 252.083 95.7585 251.326 98.4655C250.277 102.215 249.505 109.053 249.5 114.625C249.497 119.102 249.622 120.162 250.241 120.901C251.144 121.981 252.764 122.998 254.217 123.399C254.81 123.562 256.361 123.987 257.665 124.343C258.968 124.699 262.588 125.093 265.709 125.219C271.114 125.438 271.481 125.399 273.465 124.391C274.611 123.809 276.081 122.838 276.733 122.232C277.818 121.223 277.918 120.863 277.918 117.964C277.918 116.076 277.709 114.589 277.401 114.28C277.04 113.919 274.7 113.763 269.644 113.763H262.405V110.559C262.405 108.797 262.593 106.861 262.822 106.257C263.429 104.661 273.145 94.7863 274.794 94.0899C276.213 93.4905 276.618 92.3822 275.738 91.5027C275.488 91.2523 275.17 89.9044 275.032 88.5078C274.717 85.3263 273.548 82.9502 271.76 81.86C270.661 81.1899 269.588 81.0162 266.539 81.0149L262.702 81.0132L261.153 82.649ZM271.066 84.9372C272.122 86.0679 272.316 86.632 272.316 88.5746C272.316 89.8389 272.517 90.9977 272.762 91.1489C273.007 91.3006 270.822 93.7844 267.907 96.6686C264.992 99.5532 261.979 102.867 261.212 104.033C259.86 106.092 259.819 106.289 259.819 110.79C259.819 114.14 259.983 115.589 260.41 116.016C260.862 116.468 262.498 116.593 267.412 116.55C270.939 116.519 274.164 116.581 274.578 116.687C275.113 116.824 275.332 117.312 275.332 118.369C275.332 120.033 274.871 120.637 272.769 121.724C270.757 122.764 259.405 122.473 256.156 121.297C251.97 119.783 252.061 119.94 252.076 114.252C252.091 108.862 252.887 102.398 253.971 98.8521C254.601 96.7935 255.051 95.9998 258.1 91.5708C258.753 90.6228 260.033 88.6836 260.943 87.2616C261.854 85.8395 262.895 84.4399 263.256 84.1512C263.624 83.8573 265.212 83.6203 266.864 83.6125C269.618 83.5996 269.899 83.6884 271.066 84.9372ZM299.905 87.39C298.235 88.2074 297.468 89.7816 297.901 91.5049C298.26 92.9351 299.794 93.9516 302.05 94.2541C303.476 94.4455 304 94.3089 304.831 93.528C306.159 92.2809 306.516 90.7663 305.912 88.9387C305.121 86.5402 302.842 85.9524 299.905 87.39ZM224.37 88.8775C223.323 89.6721 222.717 91.6182 223.157 92.7735C223.72 94.2537 224.821 94.9751 226.518 94.9751C228.384 94.9751 229.655 93.6073 229.655 91.5984C229.655 89.0439 226.375 87.3551 224.37 88.8775ZM321.007 151.975C322.859 155.806 323.44 157.626 324.482 162.871C325.17 166.333 326.106 170.251 326.562 171.576C327.806 175.193 328.301 178.058 328.708 184.003C328.982 187.994 329.316 189.914 329.999 191.413C330.506 192.526 330.921 193.603 330.921 193.807C330.921 194.011 331.754 195.36 332.772 196.806C334.501 199.261 338.052 202.541 343.404 206.627C348.322 210.382 351.479 213.021 353.361 214.949C354.444 216.06 356.868 218.353 358.747 220.046C362.272 223.221 365.65 228.089 366.994 231.932C367.884 234.474 368.037 239.495 367.272 240.993C366.678 242.153 366.585 242.178 362.777 242.178C358.605 242.178 357.838 241.929 354.247 239.41C353.15 238.64 351.573 237.75 350.744 237.431C348.691 236.642 346.095 234.827 344.28 232.912C340.338 228.751 333.133 225.411 327.335 225.057C323.849 224.844 323.801 224.856 322.912 226.077C322.417 226.755 321.275 228.959 320.375 230.974C319.474 232.988 318.708 234.676 318.672 234.725C318.636 234.774 316.675 234.491 314.314 234.097C311.734 233.666 307.499 233.373 303.7 233.362L297.379 233.344L296.706 231.836C296.336 231.006 295.277 229.455 294.352 228.389L292.671 226.45L289.065 226.303C285.934 226.174 285.309 226.272 284.324 227.048C283.15 227.972 277.924 239.104 277.911 240.707C277.906 241.375 277.83 241.413 277.509 240.906C277.291 240.562 276.995 238.816 276.85 237.027C276.062 227.273 272.559 222.799 265.704 222.789C264.244 222.787 263.733 223.105 261.376 225.48C259.745 227.123 258.231 229.18 257.491 230.758C256.323 233.246 256.261 233.717 255.857 243.255C255.627 248.706 255.527 255.105 255.635 257.475C255.744 259.845 255.747 261.348 255.641 260.814C255.536 260.28 255.027 259.616 254.51 259.338C253.421 258.751 245.907 258.788 244.791 259.386C244.39 259.6 240.621 259.916 236.414 260.088C229.085 260.388 228.725 260.364 227.81 259.521C227.284 259.038 225.205 257.905 223.191 257.005C217.692 254.547 210.998 249.985 209.349 247.572C207.796 245.301 206.734 245.041 200.453 245.387L194.966 245.69L193.026 244.284C189.87 241.997 186.732 238.604 185.464 236.109C184.137 233.497 183.14 227.427 183.125 221.866L183.115 218.575L184.581 217.88C186.371 217.03 191.033 216.912 190.768 217.723C190.671 218.019 190.005 218.456 189.289 218.693C187.009 219.448 186.563 220.096 186.563 222.645C186.563 224.908 186.612 225.005 188.057 225.609C191.681 227.123 193.772 225.809 194.19 221.755C194.394 219.783 194.295 219.165 193.665 218.468C193.238 217.996 192.991 217.507 193.117 217.381C193.453 217.045 200.959 218.753 202.372 219.488C203.539 220.096 204.652 221.181 205.974 223.002C206.527 223.763 206.525 223.807 205.954 223.38C204.97 222.643 200.68 223.047 200.029 223.938C199.234 225.024 199.334 229.015 200.173 229.711C201.18 230.547 205.649 230.784 206.27 230.034C206.544 229.705 206.827 228.29 206.9 226.889L207.031 224.342L209.142 228.11C210.346 230.258 212.013 232.532 213.02 233.399C215.314 235.371 219.342 237.603 222.329 238.555C223.633 238.97 224.803 239.463 224.929 239.649C225.056 239.836 227.535 240.123 230.437 240.286L235.715 240.585L234.778 241.583C234.165 242.235 233.768 243.33 233.633 244.74C233.435 246.795 233.484 246.922 234.664 247.392C236.948 248.303 239.878 248.388 241.112 247.579C242.191 246.872 242.235 246.696 242.08 243.646L241.919 240.454L244.944 240.435C246.608 240.425 249.132 240.175 250.554 239.88C252.709 239.433 253.237 239.141 253.724 238.128C254.233 237.071 254.218 236.823 253.609 236.213C253.038 235.642 252.771 235.611 252.162 236.045C250.098 237.518 249.203 237.628 239.135 237.641C233.565 237.647 228.521 237.515 227.924 237.347C227.038 237.097 226.699 236.544 226.076 234.331C225.656 232.84 225.148 231.319 224.947 230.95C224.381 229.912 221.829 218.94 220.944 213.737C220.039 208.414 220.235 199.181 221.36 194.13C221.889 191.76 222.323 189.358 222.325 188.793C222.327 188.229 222.554 187.016 222.828 186.1C223.209 184.827 223.549 184.434 224.268 184.434C225.053 184.434 225.337 183.987 225.981 181.741C227.173 177.581 229.531 171.251 231.449 167.065C232.483 164.808 233.357 162.1 233.604 160.385C234.824 151.931 234.836 151.885 235.818 151.45C236.496 151.15 236.733 150.716 236.652 149.917L236.538 148.804L318.782 147.375L321.007 151.975ZM297.233 149.422C296.881 149.836 296.264 151.049 295.862 152.115C295.459 153.182 294.214 155.897 293.095 158.148L291.061 162.242L287.739 162.367C283.639 162.522 282.189 161.871 278.138 158.056C274.901 155.008 273.836 153.452 273.434 151.187C273.201 149.878 272.533 149.099 271.644 149.099C271.55 149.099 270.811 150.504 270.003 152.223C268.327 155.785 265.465 158.925 262.655 160.286C261.084 161.046 260.128 161.178 256.954 161.074L253.14 160.949L253.017 156.767L252.894 152.584L254.202 151.907C255.624 151.172 255.862 150.358 254.889 149.551C254.399 149.144 253.854 149.219 252.303 149.905L250.339 150.774V156.591C250.339 163.897 250.204 163.75 256.903 163.75C260.775 163.75 261.885 163.594 263.541 162.815C265.934 161.691 270.293 157.756 270.977 156.103L271.47 154.914L275.664 159.052C280.963 164.282 282.536 165.043 288.048 165.043H292.036L293.176 163.549C294.158 162.261 297.252 155.802 299.01 151.369C299.929 149.051 298.696 147.7 297.233 149.422ZM285.568 176.57C284.735 177.507 284.437 180.102 284.118 189.215C283.914 195.015 283.999 196.887 284.567 199.126C285.647 203.388 287.878 207.664 290.854 211.179C294.561 215.558 294.665 215.663 294.987 215.341C295.143 215.185 293.864 213.386 292.144 211.344C288.771 207.339 286.447 203.075 285.392 198.955C284.329 194.807 285.067 178.149 286.361 177.075C287.033 176.517 287.168 175.816 286.603 175.816C286.403 175.816 285.937 176.155 285.568 176.57ZM344.889 218.115C342.578 220.333 341.499 221.924 342.305 221.924C342.404 221.924 342.815 222.051 343.217 222.205C343.797 222.428 343.892 222.308 343.676 221.628C343.467 220.968 343.933 220.281 345.692 218.654C346.951 217.49 348.36 216.307 348.824 216.025C349.631 215.533 349.624 215.51 348.659 215.486C347.992 215.469 346.721 216.355 344.889 218.115ZM352.199 220.538C350.248 221.953 345.572 227.005 345.572 227.697C345.572 228.496 346.599 227.65 348.556 225.237C349.786 223.722 351.903 221.791 353.339 220.876C354.755 219.974 355.915 219.162 355.915 219.072C355.915 218.455 354.059 219.188 352.199 220.538ZM191.535 221.817C191.155 223.355 190.749 223.739 189.866 223.401C188.836 223.005 188.981 221.706 190.118 221.157C191.621 220.433 191.85 220.539 191.535 221.817ZM204.23 226.91C204.23 227.812 204.05 227.992 203.261 227.88C202.638 227.791 202.242 227.395 202.153 226.772C202.041 225.983 202.221 225.803 203.123 225.803C204.025 225.803 204.23 226.008 204.23 226.91ZM269.519 226.423C271.949 227.438 273.732 231.293 274.156 236.449C274.337 238.649 274.299 238.736 272.212 240.866C270.151 242.972 270.008 243.04 267.645 243.035C264.663 243.03 261.371 241.614 259.685 239.61C258.624 238.35 258.536 237.993 258.788 235.993C259.174 232.939 260.795 229.656 262.953 227.562C264.984 225.591 266.782 225.279 269.519 226.423ZM291.881 229.725C293.407 230.925 295.301 234.759 296.451 238.974C300.418 253.524 301.716 258.978 302.688 265.191C303.264 268.875 303.272 269.553 302.745 270.147C302.41 270.525 301.818 271.603 301.429 272.542C299.863 276.332 297.589 277.492 291.707 277.5C287.974 277.505 287.422 277.395 285.438 276.257C282.557 274.605 282.317 274.256 281.823 271.016C281.591 269.494 281.008 266.406 280.528 264.155C279.515 259.417 279.297 247.887 280.13 243.108C280.719 239.726 282.306 235.9 282.573 237.222C283.106 239.875 287.778 243.04 291.16 243.04C292.466 243.04 293.162 242.718 294.419 241.532C295.297 240.703 296.017 239.927 296.017 239.808C296.017 239.256 295.056 239.705 293.712 240.885C291.881 242.492 290.437 242.534 287.486 241.063C283.569 239.112 282.464 236.472 283.965 232.656C285.291 229.284 285.839 228.819 288.484 228.819C290.113 228.819 291.045 229.068 291.881 229.725ZM191.453 231.229C191.05 231.843 190.636 233.364 190.533 234.608C190.362 236.668 190.451 236.952 191.529 237.8C192.509 238.571 193.282 238.73 196.048 238.73C200.056 238.73 200.583 238.327 200.172 235.583C199.797 233.081 197.616 230.389 196.185 230.662C195.621 230.77 195.057 230.69 194.93 230.485C194.803 230.28 194.133 230.112 193.442 230.112C192.564 230.112 191.963 230.449 191.453 231.229ZM194.556 233.523C194.781 233.74 195.429 233.982 195.996 234.061C196.589 234.144 197.177 234.617 197.383 235.175C197.721 236.097 197.636 236.145 195.624 236.145C193.292 236.145 192.814 235.756 193.21 234.181C193.489 233.068 193.884 232.875 194.556 233.523ZM308.513 238.785C308.513 239.023 308.998 239.854 309.591 240.631C310.183 241.408 310.668 242.268 310.668 242.541C310.668 243.235 308.352 243.164 306.56 242.415C304.538 241.571 304.483 239.934 306.436 238.746C307.788 237.924 308.513 237.937 308.513 238.785ZM214.657 239.971C213.53 240.667 212.776 245.528 213.609 246.727C214.785 248.421 218.502 249.279 219.657 248.124C219.942 247.84 220.174 246.996 220.174 246.249C220.174 245.503 220.389 244.278 220.65 243.527C221.537 240.981 220.082 238.878 218.172 239.946C217.773 240.17 216.922 240.203 216.282 240.019C215.642 239.836 214.911 239.814 214.657 239.971ZM262.836 243.005C264.095 243.575 265.698 243.886 267.41 243.892C270.179 243.902 271.342 243.333 273.473 240.931L274.415 239.868L274.646 240.916C274.773 241.491 275.168 244.289 275.525 247.133C275.882 249.977 276.372 252.982 276.615 253.81C276.857 254.638 277.056 256.982 277.056 259.019C277.056 261.055 277.345 264.547 277.699 266.778C278.052 269.009 278.383 271.125 278.434 271.48C278.7 273.335 277.734 275.412 275.737 277.281L273.646 279.237H269.155C264.675 279.237 262.231 278.679 261.244 277.43C260.999 277.12 260.679 275.606 260.532 274.066C260.385 272.525 259.979 270.489 259.63 269.541C259.281 268.593 258.987 266.843 258.976 265.652C258.966 264.46 258.747 261.842 258.49 259.834C258.194 257.521 258.134 253.21 258.326 248.071L258.629 239.96L259.762 241.043C260.386 241.639 261.769 242.522 262.836 243.005ZM321.275 241.085C320.185 242.749 320.369 245.005 321.671 245.928C322.272 246.354 323.472 247.244 324.339 247.906C325.727 248.966 326.227 249.094 328.526 248.983L331.137 248.857L331.262 245.542C331.376 242.538 331.302 242.181 330.474 241.738C329.972 241.469 329.26 241.365 328.891 241.507C328.522 241.648 327.557 241.372 326.745 240.894C324.629 239.645 322.162 239.731 321.275 241.085ZM217.723 244.485C217.404 246.165 217.43 246.134 216.573 245.805C216.156 245.644 215.865 245.05 215.865 244.358C215.865 242.915 216.112 242.641 217.163 242.916C217.823 243.089 217.931 243.391 217.723 244.485ZM326.213 243.487C327.16 243.97 328.121 244.249 328.35 244.108C328.583 243.964 328.767 244.431 328.767 245.169C328.767 246.921 327.615 246.922 325.074 245.173C321.927 243.009 322.786 241.738 326.213 243.487ZM239.566 244.13C239.566 245.381 238.745 245.837 237.195 245.448C235.251 244.96 236.179 243.04 238.359 243.04C239.363 243.04 239.566 243.223 239.566 244.13ZM224.12 247.577C223.499 248.365 223.191 249.366 223.191 250.589C223.191 253.119 224.533 254.009 228.362 254.02L231.163 254.028L231.295 251.461C231.492 247.619 231.206 246.882 229.536 246.941C228.772 246.968 227.45 246.856 226.598 246.693C225.243 246.433 224.932 246.544 224.12 247.577ZM311.923 247.039C310.821 247.885 310.237 249.323 310.237 251.189C310.237 253.587 311.456 254.332 315.794 254.583C318.52 254.741 319.255 254.644 319.851 254.048C320.781 253.118 320.798 250.438 319.882 249.131C318.468 247.111 313.523 245.811 311.923 247.039ZM228.793 250.838C228.793 251.698 228.351 251.817 226.746 251.386C225.852 251.147 225.435 249.989 226.029 249.395C226.562 248.861 228.793 250.026 228.793 250.838ZM316.593 249.93C317.364 250.399 317.994 251.101 317.994 251.489C317.994 252.082 317.612 252.164 315.624 251.999C312.841 251.768 312.63 251.622 312.994 250.17C313.336 248.81 314.618 248.725 316.593 249.93ZM241.663 250.787C240.543 251.907 240.397 252.331 240.511 254.116C240.677 256.683 241.608 257.245 245.713 257.253C248.542 257.26 248.653 257.219 249.482 255.859C249.98 255.042 250.336 253.692 250.337 252.617C250.339 251.016 250.188 250.717 249.187 250.337C248.553 250.096 247.505 250.015 246.858 250.157C246.207 250.3 245.555 250.212 245.399 249.96C244.853 249.077 242.952 249.498 241.663 250.787ZM330.558 251.876C327.912 252.53 326.409 253.754 325.732 255.808C324.749 258.785 326.172 260.109 330.818 260.541C334.895 260.92 335.246 260.625 335.18 256.884C335.077 251.136 334.794 250.829 330.558 251.876ZM246.928 254.006C247.145 253.872 247.322 253.967 247.322 254.218C247.322 254.478 246.397 254.674 245.168 254.674C243.38 254.674 243.013 254.542 243.013 253.899C243.013 252.339 243.923 252.053 245.272 253.188C245.966 253.772 246.711 254.14 246.928 254.006ZM286.536 253.428L285.459 254.317L286.536 253.99C287.129 253.81 289.601 253.588 292.031 253.495C294.46 253.402 296.447 253.145 296.447 252.923C296.447 252.698 294.492 252.524 292.031 252.529C288.213 252.537 287.468 252.659 286.536 253.428ZM347.012 254.243C347.432 254.955 348.056 255.536 348.398 255.536C349.174 255.536 349.188 256.003 348.444 257.021C347.893 257.774 347.778 257.757 345.858 256.632C343.843 255.451 343.375 254.459 344.366 253.468C345.234 252.6 346.21 252.886 347.012 254.243ZM264.633 255.147C263.88 256.353 264.343 256.727 265.403 255.768C266.08 255.156 266.781 255.038 268.853 255.188C270.284 255.291 271.454 255.239 271.454 255.071C271.454 254.528 270.143 254.243 267.644 254.243C265.626 254.243 265.099 254.402 264.633 255.147ZM332.447 256.109C332.46 257.01 332.328 257.836 332.153 257.944C331.978 258.052 331.048 258.014 330.086 257.861C328.149 257.551 327.759 256.603 329.09 255.444C331.069 253.719 332.416 253.986 332.447 256.109ZM285.349 257.115C285.051 257.235 284.886 257.462 284.983 257.62C285.257 258.067 295.586 257.691 295.586 257.234C295.586 256.82 286.349 256.712 285.349 257.115ZM263.794 259.655C262.39 260.637 262.624 261.27 264.107 260.503C264.836 260.126 266.491 259.845 267.985 259.845C269.436 259.845 270.592 259.654 270.592 259.415C270.592 258.69 264.882 258.892 263.794 259.655ZM257.412 271.964C257.804 273.296 258.099 275.138 258.067 276.058C257.998 278.07 258.887 286.531 259.225 287.077C259.608 287.698 260.654 299.376 260.668 303.194C260.684 307.654 260.175 308.227 255.98 308.464C253.636 308.596 252.714 308.449 251.271 307.713C250.284 307.21 249.473 306.657 249.467 306.484C249.462 306.311 248.183 304.715 246.627 302.938C242.864 298.64 241.031 294.741 240.208 289.284C239.858 286.958 239.57 283.679 239.568 281.998C239.567 280.069 239.248 278.016 238.704 276.436C238.23 275.058 237.839 273.234 237.835 272.382C237.831 271.531 237.446 269.38 236.98 267.602C236.515 265.824 236.13 264.322 236.126 264.262C236.122 264.203 240.47 264.155 245.789 264.155C253.052 264.155 255.546 264.021 255.808 263.616C256.012 263.301 256.269 264.417 256.427 266.309C256.577 268.087 257.019 270.631 257.412 271.964ZM347.921 264.179C347.374 264.783 347.064 265.921 346.948 267.752L346.776 270.44L348.437 271.582C350.486 272.993 352.148 273.635 353.75 273.635C354.769 273.635 355.128 273.321 355.876 271.775C356.941 269.577 357.014 268.018 356.133 266.314C355.188 264.487 353.837 263.653 352.758 264.23C352.076 264.595 351.779 264.544 351.377 263.994C350.666 263.022 348.882 263.117 347.921 264.179ZM316.701 265.697C320.611 266.086 324.032 266.583 324.302 266.801C324.572 267.019 324.893 267.628 325.015 268.154C325.136 268.68 326.128 272.587 327.217 276.838L329.197 284.565V293.028C329.197 299.071 329.026 302.037 328.596 303.4C328.265 304.449 327.675 306.374 327.285 307.678C326.896 308.981 326.051 311.114 325.409 312.418C324.291 314.688 324.164 314.794 322.395 314.921C319.991 315.095 317.849 313.793 316.605 311.405C314.934 308.197 311.506 300.207 310.442 297.04C309.488 294.199 308.321 287.609 308.133 284.002C308.091 283.186 307.762 280.956 307.402 279.046C307.043 277.137 306.581 274.023 306.375 272.127C306.17 270.231 305.814 267.865 305.584 266.869C305.355 265.874 305.29 264.935 305.44 264.783C305.589 264.631 306.585 264.615 307.651 264.748C308.718 264.88 312.79 265.307 316.701 265.697ZM353.52 267.267C354.338 268.435 354.352 269.293 353.57 270.324C352.999 271.077 352.91 271.073 351.214 270.207C349.725 269.448 349.451 269.101 349.451 267.977C349.451 266.782 349.558 266.673 350.502 266.91C351.08 267.056 351.673 266.98 351.82 266.742C352.241 266.06 352.794 266.23 353.52 267.267ZM367.916 273.638C369.69 274.923 370.094 275.996 369.443 277.693C369.054 278.705 367.4 278.519 366.104 277.318C365.248 276.526 364.964 275.844 364.964 274.589C364.964 271.925 365.371 271.794 367.916 273.638ZM246.053 275.185C243.583 275.849 243.149 276.069 243.54 276.46C243.672 276.592 244.944 276.398 246.368 276.029C247.79 275.66 250.139 275.359 251.586 275.359C253.053 275.359 254.217 275.168 254.217 274.928C254.217 274.284 248.763 274.456 246.053 275.185ZM246.115 281.387C244.621 281.557 243.167 281.941 242.883 282.242C242.469 282.68 242.667 282.739 243.875 282.541C244.705 282.405 246.983 282.162 248.938 282.003C250.894 281.842 252.494 281.542 252.494 281.336C252.494 280.912 250.128 280.931 246.115 281.387ZM313.624 284.01L312.607 284.904L313.684 284.582C314.277 284.404 316.749 284.183 319.179 284.09C321.608 283.997 323.596 283.74 323.596 283.519C323.596 283.294 321.611 283.115 319.119 283.115C315.201 283.115 314.515 283.227 313.624 284.01ZM362.624 285.516C362.14 286.001 361.947 287.038 361.947 289.169C361.947 291.855 362.05 292.212 363.008 292.84C364.264 293.663 367.058 294.105 368.582 293.723C369.846 293.405 370.412 291.405 369.944 288.908C369.644 287.315 368.221 285.501 367.58 285.898C367.377 286.023 366.389 285.836 365.387 285.482C363.176 284.703 363.441 284.699 362.624 285.516ZM367.251 289.33C367.749 290.825 367.139 291.51 365.642 291.134C364.734 290.906 364.533 290.6 364.533 289.449C364.533 288.196 364.66 288.048 365.694 288.093C366.556 288.131 366.958 288.45 367.251 289.33ZM315.193 289.434C312.125 289.807 311.011 290.092 311.366 290.415C311.575 290.605 312.909 290.608 314.331 290.421C315.753 290.235 318.602 290.066 320.661 290.046C322.721 290.026 324.526 289.816 324.673 289.579C324.928 289.165 318.248 289.063 315.193 289.434ZM365.344 302.456C362.625 305.175 363.197 307.953 366.569 308.406C370.157 308.887 371.245 307.891 371.517 303.874C371.641 302.051 371.605 301.997 369.92 301.403C367.46 300.537 367.205 300.596 365.344 302.456ZM368.842 304.902C368.842 305.737 368.62 305.954 367.765 305.954C366.523 305.954 366.382 305.282 367.392 304.167C368.257 303.21 368.842 303.506 368.842 304.902ZM357.638 313.685C357.638 314.813 356.982 315.144 355.896 314.563C355.177 314.178 355.099 313.958 355.509 313.465C356.271 312.547 357.638 312.688 357.638 313.685ZM345.059 320.89C343.517 322.593 342.87 326.349 343.935 327.414C345.861 329.34 351.605 326.283 351.605 323.333C351.605 322.036 351.41 321.773 350.014 321.189C347.373 320.086 345.869 319.995 345.059 320.89ZM348.589 323.457C348.589 323.547 348.201 324.01 347.727 324.484C346.273 325.938 345.475 325.415 346.429 323.632C346.707 323.113 347.155 322.916 347.721 323.065C348.199 323.189 348.589 323.366 348.589 323.457ZM314.332 331.984C313.487 332.829 313.234 333.467 313.334 334.5C313.504 336.246 314.822 336.965 317.871 336.974C320.462 336.981 321.01 336.396 321.01 333.618C321.01 332.042 320.911 331.905 319.61 331.678C318.839 331.544 317.592 331.303 316.837 331.143C315.708 330.903 315.265 331.051 314.332 331.984ZM318.424 333.964C318.424 334.201 317.891 334.392 317.239 334.388C316.316 334.383 316.197 334.289 316.701 333.964C317.544 333.419 318.424 333.419 318.424 333.964ZM301.88 342.833C301.458 343.932 301.579 346.333 302.115 347.509C302.705 348.804 303.756 349.213 305.506 348.829C306.924 348.517 307.082 348.839 306.129 350.098C305.633 350.755 305.497 352.458 305.497 358.029C305.497 364.875 305.469 365.099 304.709 364.411C303.722 363.518 302.749 363.501 302.033 364.364C301.563 364.929 301.768 365.328 303.38 366.982C304.426 368.055 306.223 369.628 307.374 370.479C308.524 371.329 310.244 373.011 311.197 374.217C312.25 375.552 314.015 377.042 315.708 378.026C318.91 379.887 319.305 379.998 318.168 378.717C317.607 378.085 318.644 378.481 321.441 379.968C323.692 381.165 328.443 383.69 331.998 385.579C335.554 387.467 340.208 390.108 342.341 391.447C344.474 392.787 346.985 394.252 347.922 394.704L349.625 395.526L348.181 396.31C347.387 396.741 345.554 398.013 344.108 399.137C342.662 400.262 340.39 401.754 339.06 402.454C337.729 403.153 335.596 404.342 334.319 405.096C332.124 406.391 331.406 406.679 330.184 406.756C329.898 406.775 329.219 407.245 328.676 407.802C327.694 408.809 326.699 409.413 319.717 413.242C317.703 414.347 315.035 415.863 313.79 416.612C309.05 419.462 302.338 422.746 300.728 423.004C298.538 423.354 297.515 424.111 297.895 425.101C298.681 427.148 306.269 424.291 316.501 418.096C320.186 415.864 328.122 411.53 328.523 411.53C329.062 411.53 328.71 413.411 327.711 415.869C327.13 417.298 326.763 418.748 326.895 419.092C327.188 419.855 328.404 419.908 329.123 419.188C329.541 418.77 329.546 418.974 329.148 420.158C328.605 421.77 326.195 425.623 322.283 431.137C320.937 433.033 318.033 437.784 315.828 441.694C309.498 452.924 309.61 452.768 307.938 452.709C307.148 452.682 306.032 452.362 305.46 451.997C304.888 451.633 303.838 451.114 303.127 450.843C302.416 450.572 300.044 449.664 297.857 448.824C295.67 447.983 293.197 447.296 292.363 447.296C290.888 447.296 290.846 447.25 290.846 445.625C290.846 443.805 290.065 442.818 288.961 443.241C288.465 443.432 288.26 444.049 288.26 445.357C288.26 446.601 288.049 447.285 287.614 447.452C287.258 447.588 286.967 447.973 286.967 448.307C286.967 448.641 287.258 449.156 287.614 449.451C287.969 449.746 288.26 450.5 288.26 451.128C288.26 452.883 289.819 458.114 291.942 463.48C292.998 466.151 293.862 468.814 293.862 469.398C293.862 470.54 294.861 471.66 295.518 471.254C295.739 471.118 296.129 471.259 296.385 471.568C296.738 471.994 295.629 473.993 291.785 479.858C285.585 489.319 281.47 496.13 278.524 501.808C273.812 510.889 273.415 511.46 271.783 511.49C271.059 511.503 268.991 508.005 268.224 505.47C268.045 504.878 265.866 500.224 263.382 495.128C260.897 490.033 258.209 484.258 257.408 482.297C256.607 480.335 255.685 478.202 255.358 477.557C255.033 476.911 253.938 473.281 252.927 469.489C251.915 465.696 250.551 460.742 249.894 458.478C249.237 456.215 248.375 452.627 247.978 450.506C247.297 446.872 246.521 443.612 243.52 431.783C241.72 424.693 240.856 420.899 240.857 420.093C240.858 419.707 240.564 419.148 240.204 418.848C239.668 418.403 239.387 418.452 238.643 419.119L237.737 419.933L237.953 415.839C238.129 412.523 238.43 411.131 239.535 408.513C242.036 402.594 242.698 401.42 244.91 398.988C246.118 397.66 248.447 394.899 250.085 392.851C253.515 388.565 257.204 385 262.639 380.719C264.746 379.06 267.833 376.528 269.5 375.092C273.923 371.283 276.247 369.716 281.898 366.73C287.579 363.728 289.296 362.098 291.662 357.458C292.948 354.936 293.049 354.512 292.493 353.956C291.451 352.914 290.567 353.679 288.729 357.211C286.877 360.771 285.327 362.275 281.993 363.75C277.516 365.73 272.1 369.381 266.405 374.255C264.744 375.677 261.801 378.101 259.865 379.642C255.607 383.029 250.669 387.992 246.359 393.216C244.599 395.349 242.809 397.382 242.381 397.734C241.113 398.777 239.819 401.126 237.865 405.928C236.852 408.416 235.875 410.646 235.693 410.883C234.683 412.204 235.584 424.411 236.787 425.701C237.61 426.584 238.699 425.957 238.739 424.578C238.758 423.92 239.302 425.61 239.949 428.336C240.595 431.061 241.092 433.344 241.053 433.409C240.853 433.741 239.566 432.909 239.566 432.448C239.566 432.153 238.942 431.059 238.179 430.016C237.416 428.973 235.394 425.987 233.685 423.38C231.975 420.773 229.557 417.198 228.311 415.435C226.937 413.492 226.247 412.163 226.557 412.059C226.839 411.966 227.069 411.687 227.069 411.441C227.069 411.151 226.861 411.166 226.481 411.482C226.009 411.873 225.46 411.305 223.723 408.626C221.172 404.692 218.419 399.826 217.129 396.972C216.425 395.415 213.761 387.685 213.718 387.075C213.714 387.015 221.913 386.967 231.939 386.967C250.972 386.967 251.658 386.902 250.735 385.178C250.33 384.421 249.32 384.382 230.501 384.382H210.694V385.503C210.694 387.61 214.762 398.88 216.379 401.254C216.807 401.883 217.158 402.51 217.158 402.648C217.158 402.786 217.769 403.919 218.516 405.167C219.828 407.358 221.082 409.25 231.731 425.104C234.438 429.133 236.916 433.043 237.237 433.792C237.696 434.86 238.289 435.309 239.979 435.871C241.886 436.504 242.183 436.77 242.551 438.171C243.234 440.775 244.275 445.424 245.619 451.87C246.317 455.214 247.188 458.802 247.556 459.842C247.923 460.881 248.707 463.671 249.297 466.041C251.879 476.407 253.434 480.419 260.574 495.128C263.048 500.224 265.318 505.072 265.62 505.901C265.922 506.731 266.882 508.912 267.754 510.749L269.339 514.089H271.48C274.511 514.089 275.857 512.637 279.669 505.255C283.46 497.912 287.351 491.407 294.233 480.908C297.107 476.523 299.46 472.621 299.461 472.234C299.463 471.849 299.164 471.284 298.796 470.98C298.211 470.493 298.348 470.203 299.923 468.598C301.619 466.869 301.67 466.745 300.86 466.312C300.388 466.06 299.198 465.725 298.216 465.567C297.233 465.41 296.308 465.088 296.162 464.851C296.015 464.613 296.635 463.799 297.538 463.04C299.523 461.373 299.356 460.427 297.007 460.03C294.264 459.567 294.059 459.231 295.587 457.703C296.332 456.958 296.879 456.024 296.803 455.629C296.719 455.201 295.528 454.458 293.862 453.794C291.292 452.77 291.05 452.562 290.926 451.28C290.798 449.953 290.864 449.883 292.219 449.906C293.004 449.919 294.519 450.284 295.586 450.716C297.383 451.444 297.514 451.604 297.38 452.889C297.238 454.25 297.262 454.27 298.673 453.986C299.464 453.826 300.478 453.591 300.927 453.463C301.613 453.268 301.699 453.395 301.46 454.249C300.811 456.577 300.667 458.825 301.149 459.122C301.807 459.529 305.448 457.736 306.694 456.391C307.241 455.801 307.571 455.623 307.428 455.995C307.235 456.498 307.505 456.72 308.488 456.865C309.747 457.049 309.919 456.877 312.209 453.147C313.53 450.996 316.464 445.939 318.729 441.91C320.994 437.882 323.662 433.519 324.658 432.215C327.594 428.369 330.888 422.985 331.622 420.831C332.053 419.565 332.204 418.237 332.031 417.225C331.88 416.344 331.646 414.354 331.511 412.803L331.265 409.982L333.786 408.437C335.173 407.586 337.665 406.184 339.324 405.321C340.983 404.457 343.744 402.738 345.459 401.5C347.174 400.262 349.756 398.519 351.198 397.627C354.589 395.53 354.583 394.574 351.174 393.319C349.871 392.838 348.029 391.921 347.081 391.279C343.316 388.732 335.499 384.301 328.293 380.629C319.815 376.31 312.495 371.607 310.677 369.311C308.746 366.872 308.082 363.859 308.082 357.521C308.082 351.773 308.281 350.933 310.73 346.319C311.015 345.782 310.986 345.336 310.64 344.919C309.877 344 309.115 344.174 308.132 345.491L307.248 346.676L307.234 345.127C307.226 344.187 306.91 343.297 306.432 342.865C305.388 341.92 302.239 341.898 301.88 342.833ZM291.276 368.438C291.276 368.675 291.47 368.868 291.707 368.868C291.944 368.868 292.138 368.675 292.138 368.438C292.138 368.201 291.944 368.007 291.707 368.007C291.47 368.007 291.276 368.201 291.276 368.438ZM288.045 371.023C287.898 371.26 287.984 371.454 288.235 371.454C288.485 371.454 288.691 371.26 288.691 371.023C288.691 370.786 288.606 370.592 288.501 370.592C288.396 370.592 288.191 370.786 288.045 371.023ZM276.194 371.479C276.194 371.73 276.388 371.816 276.625 371.669C276.862 371.523 277.056 371.318 277.056 371.213C277.056 371.108 276.862 371.023 276.625 371.023C276.388 371.023 276.194 371.229 276.194 371.479ZM283.089 372.316C283.089 372.553 283.283 372.747 283.52 372.747C283.757 372.747 283.951 372.553 283.951 372.316C283.951 372.079 283.757 371.885 283.52 371.885C283.283 371.885 283.089 372.079 283.089 372.316ZM285.674 373.609C285.674 373.846 285.88 374.04 286.131 374.04C286.382 374.04 286.467 373.846 286.321 373.609C286.174 373.372 285.969 373.178 285.865 373.178C285.76 373.178 285.674 373.372 285.674 373.609ZM285.459 375.763C285.312 376 285.398 376.194 285.649 376.194C285.9 376.194 286.105 376 286.105 375.763C286.105 375.526 286.02 375.332 285.915 375.332C285.811 375.332 285.606 375.526 285.459 375.763ZM280.503 377.918C280.503 378.155 280.709 378.349 280.96 378.349C281.211 378.349 281.296 378.155 281.15 377.918C281.003 377.681 280.798 377.487 280.693 377.487C280.589 377.487 280.503 377.681 280.503 377.918ZM276.617 380.939C275.757 381.47 276.397 381.966 277.294 381.464C277.698 381.239 277.849 380.942 277.63 380.807C277.41 380.671 276.954 380.731 276.617 380.939ZM270.592 382.227C270.592 382.464 270.786 382.658 271.023 382.658C271.26 382.658 271.454 382.464 271.454 382.227C271.454 381.99 271.26 381.796 271.023 381.796C270.786 381.796 270.592 381.99 270.592 382.227ZM274.901 383.114C274.901 383.365 275.095 383.451 275.332 383.304C275.569 383.158 275.763 382.953 275.763 382.848C275.763 382.743 275.569 382.658 275.332 382.658C275.095 382.658 274.901 382.864 274.901 383.114ZM275.763 383.951C275.763 384.188 275.957 384.382 276.194 384.382C276.431 384.382 276.625 384.188 276.625 383.951C276.625 383.714 276.431 383.52 276.194 383.52C275.957 383.52 275.763 383.714 275.763 383.951ZM263.267 385.674C263.267 385.911 263.46 386.105 263.697 386.105C263.934 386.105 264.128 385.911 264.128 385.674C264.128 385.437 263.934 385.243 263.697 385.243C263.46 385.243 263.267 385.437 263.267 385.674ZM271.67 386.536C271.816 386.773 272.021 386.967 272.126 386.967C272.231 386.967 272.316 386.773 272.316 386.536C272.316 386.299 272.11 386.105 271.86 386.105C271.609 386.105 271.523 386.299 271.67 386.536ZM283.089 387.398C283.089 387.635 283.283 387.829 283.52 387.829C283.757 387.829 283.951 387.635 283.951 387.398C283.951 387.161 283.757 386.967 283.52 386.967C283.283 386.967 283.089 387.161 283.089 387.398ZM229.655 389.578C229.655 389.829 229.849 389.915 230.086 389.768C230.323 389.622 230.517 389.417 230.517 389.312C230.517 389.207 230.323 389.122 230.086 389.122C229.849 389.122 229.655 389.327 229.655 389.578ZM233.748 389.553C233.895 389.79 234.1 389.984 234.205 389.984C234.31 389.984 234.395 389.79 234.395 389.553C234.395 389.316 234.189 389.122 233.939 389.122C233.688 389.122 233.602 389.316 233.748 389.553ZM235.472 389.553C235.326 389.79 235.411 389.984 235.662 389.984C235.913 389.984 236.119 389.79 236.119 389.553C236.119 389.316 236.033 389.122 235.929 389.122C235.824 389.122 235.619 389.316 235.472 389.553ZM218.02 389.984C218.02 390.221 218.225 390.415 218.476 390.415C218.727 390.415 218.813 390.221 218.666 389.984C218.52 389.747 218.315 389.553 218.21 389.553C218.105 389.553 218.02 389.747 218.02 389.984ZM232.671 390.415C232.671 390.652 232.865 390.845 233.102 390.845C233.339 390.845 233.533 390.652 233.533 390.415C233.533 390.178 233.339 389.984 233.102 389.984C232.865 389.984 232.671 390.178 232.671 390.415ZM219.744 390.845C219.744 391.082 219.937 391.276 220.174 391.276C220.411 391.276 220.605 391.082 220.605 390.845C220.605 390.608 220.411 390.415 220.174 390.415C219.937 390.415 219.744 390.608 219.744 390.845ZM236.549 390.845C236.549 391.082 236.755 391.276 237.006 391.276C237.257 391.276 237.342 391.082 237.196 390.845C237.049 390.608 236.844 390.415 236.739 390.415C236.635 390.415 236.549 390.608 236.549 390.845ZM241.721 391.276C241.721 391.513 241.914 391.707 242.151 391.707C242.388 391.707 242.582 391.513 242.582 391.276C242.582 391.039 242.388 390.845 242.151 390.845C241.914 390.845 241.721 391.039 241.721 391.276ZM261.974 391.276C261.974 391.513 262.168 391.707 262.405 391.707C262.642 391.707 262.836 391.513 262.836 391.276C262.836 391.039 262.642 390.845 262.405 390.845C262.168 390.845 261.974 391.039 261.974 391.276ZM276.41 391.276C276.556 391.513 276.761 391.707 276.866 391.707C276.971 391.707 277.056 391.513 277.056 391.276C277.056 391.039 276.85 390.845 276.6 390.845C276.349 390.845 276.263 391.039 276.41 391.276ZM227.285 391.707C227.431 391.944 227.636 392.138 227.741 392.138C227.846 392.138 227.931 391.944 227.931 391.707C227.931 391.47 227.725 391.276 227.475 391.276C227.224 391.276 227.138 391.47 227.285 391.707ZM243.013 393.026C243.013 393.276 243.207 393.362 243.444 393.216C243.681 393.069 243.875 392.864 243.875 392.759C243.875 392.654 243.681 392.569 243.444 392.569C243.207 392.569 243.013 392.775 243.013 393.026ZM234.395 393.431C234.395 393.668 234.589 393.862 234.826 393.862C235.063 393.862 235.257 393.668 235.257 393.431C235.257 393.194 235.063 393 234.826 393C234.589 393 234.395 393.194 234.395 393.431ZM277.056 393.887C277.056 394.138 277.25 394.224 277.487 394.077C277.724 393.931 277.918 393.726 277.918 393.621C277.918 393.516 277.724 393.431 277.487 393.431C277.25 393.431 277.056 393.637 277.056 393.887ZM267.145 394.293C267.145 394.53 267.339 394.724 267.576 394.724C267.813 394.724 268.007 394.53 268.007 394.293C268.007 394.056 267.813 393.862 267.576 393.862C267.339 393.862 267.145 394.056 267.145 394.293ZM218.02 395.586C218.02 395.823 218.214 396.017 218.451 396.017C218.688 396.017 218.882 395.823 218.882 395.586C218.882 395.349 218.688 395.155 218.451 395.155C218.214 395.155 218.02 395.349 218.02 395.586ZM233.102 395.586C233.102 395.823 233.296 396.017 233.533 396.017C233.77 396.017 233.964 395.823 233.964 395.586C233.964 395.349 233.77 395.155 233.533 395.155C233.296 395.155 233.102 395.349 233.102 395.586ZM236.549 396.017C236.549 396.254 236.743 396.447 236.98 396.447C237.217 396.447 237.411 396.254 237.411 396.017C237.411 395.78 237.217 395.586 236.98 395.586C236.743 395.586 236.549 395.78 236.549 396.017ZM219.744 396.473C219.744 396.724 219.937 396.809 220.174 396.663C220.411 396.516 220.605 396.311 220.605 396.207C220.605 396.102 220.411 396.017 220.174 396.017C219.937 396.017 219.744 396.222 219.744 396.473ZM229.224 397.309C229.224 397.546 229.418 397.74 229.655 397.74C229.892 397.74 230.086 397.546 230.086 397.309C230.086 397.072 229.892 396.878 229.655 396.878C229.418 396.878 229.224 397.072 229.224 397.309ZM257.234 397.309C257.234 397.546 257.439 397.74 257.69 397.74C257.941 397.74 258.027 397.546 257.88 397.309C257.734 397.072 257.528 396.878 257.424 396.878C257.319 396.878 257.234 397.072 257.234 397.309ZM265.421 397.309C265.421 397.546 265.615 397.74 265.852 397.74C266.089 397.74 266.283 397.546 266.283 397.309C266.283 397.072 266.089 396.878 265.852 396.878C265.615 396.878 265.421 397.072 265.421 397.309ZM276.41 397.309C276.556 397.546 276.761 397.74 276.866 397.74C276.971 397.74 277.056 397.546 277.056 397.309C277.056 397.072 276.85 396.878 276.6 396.878C276.349 396.878 276.263 397.072 276.41 397.309ZM271.454 398.171C271.454 398.408 271.66 398.602 271.91 398.602C272.161 398.602 272.247 398.408 272.1 398.171C271.954 397.934 271.749 397.74 271.644 397.74C271.539 397.74 271.454 397.934 271.454 398.171ZM271.885 400.11C271.59 400.466 271.483 400.757 271.648 400.757C271.812 400.757 272.237 400.466 272.593 400.11C272.949 399.755 273.055 399.464 272.83 399.464C272.605 399.464 272.18 399.755 271.885 400.11ZM226.423 402.049C226.569 402.286 226.774 402.48 226.879 402.48C226.984 402.48 227.069 402.286 227.069 402.049C227.069 401.812 226.864 401.618 226.613 401.618C226.362 401.618 226.276 401.812 226.423 402.049ZM231.378 402.049C231.378 402.286 231.572 402.48 231.809 402.48C232.046 402.48 232.24 402.286 232.24 402.049C232.24 401.812 232.046 401.618 231.809 401.618C231.572 401.618 231.378 401.812 231.378 402.049ZM258.957 402.049C258.957 402.286 259.151 402.48 259.388 402.48C259.625 402.48 259.819 402.286 259.819 402.049C259.819 401.812 259.625 401.618 259.388 401.618C259.151 401.618 258.957 401.812 258.957 402.049ZM246.461 402.937C246.461 403.187 246.655 403.273 246.892 403.127C247.129 402.98 247.322 402.775 247.322 402.67C247.322 402.566 247.129 402.48 246.892 402.48C246.655 402.48 246.461 402.686 246.461 402.937ZM269.73 402.937C269.73 403.187 269.924 403.273 270.161 403.127C270.398 402.98 270.592 402.775 270.592 402.67C270.592 402.566 270.398 402.48 270.161 402.48C269.924 402.48 269.73 402.686 269.73 402.937ZM224.915 403.368C224.915 403.618 225.109 403.704 225.346 403.558C225.583 403.411 225.776 403.206 225.776 403.101C225.776 402.997 225.583 402.911 225.346 402.911C225.109 402.911 224.915 403.117 224.915 403.368ZM237.842 403.368C237.842 403.618 238.036 403.704 238.273 403.558C238.51 403.411 238.704 403.206 238.704 403.101C238.704 402.997 238.51 402.911 238.273 402.911C238.036 402.911 237.842 403.117 237.842 403.368ZM234.395 403.773C234.395 404.01 234.589 404.204 234.826 404.204C235.063 404.204 235.257 404.01 235.257 403.773C235.257 403.536 235.063 403.342 234.826 403.342C234.589 403.342 234.395 403.536 234.395 403.773ZM260.681 403.773C260.681 404.01 260.875 404.204 261.112 404.204C261.349 404.204 261.543 404.01 261.543 403.773C261.543 403.536 261.349 403.342 261.112 403.342C260.875 403.342 260.681 403.536 260.681 403.773ZM277.331 404.419C277.195 404.775 277.25 405.066 277.454 405.066C277.658 405.066 277.937 404.775 278.074 404.419C278.21 404.064 278.154 403.773 277.951 403.773C277.746 403.773 277.468 404.064 277.331 404.419ZM258.096 405.091C258.096 405.342 258.289 405.428 258.526 405.281C258.763 405.135 258.957 404.93 258.957 404.825C258.957 404.72 258.763 404.635 258.526 404.635C258.289 404.635 258.096 404.84 258.096 405.091ZM253.571 406.79C253.424 407.027 253.51 407.22 253.761 407.22C254.012 407.22 254.217 407.027 254.217 406.79C254.217 406.553 254.132 406.359 254.027 406.359C253.922 406.359 253.717 406.553 253.571 406.79ZM260.681 406.815C260.681 407.066 260.875 407.152 261.112 407.005C261.349 406.858 261.543 406.653 261.543 406.549C261.543 406.444 261.349 406.359 261.112 406.359C260.875 406.359 260.681 406.564 260.681 406.815ZM242.151 407.22C242.151 407.457 242.357 407.651 242.608 407.651C242.859 407.651 242.944 407.457 242.798 407.22C242.651 406.983 242.446 406.79 242.341 406.79C242.237 406.79 242.151 406.983 242.151 407.22ZM243.66 410.668C243.806 410.905 244.011 411.099 244.116 411.099C244.221 411.099 244.306 410.905 244.306 410.668C244.306 410.431 244.1 410.237 243.85 410.237C243.599 410.237 243.513 410.431 243.66 410.668ZM255.725 410.668C255.579 410.905 255.665 411.099 255.915 411.099C256.166 411.099 256.372 410.905 256.372 410.668C256.372 410.431 256.286 410.237 256.182 410.237C256.077 410.237 255.872 410.431 255.725 410.668ZM232.671 411.038C232.671 411.481 233.976 412.092 234.278 411.79C234.383 411.685 234.064 411.383 233.57 411.119C233.075 410.854 232.671 410.817 232.671 411.038ZM246.892 411.124C246.892 411.375 247.085 411.461 247.322 411.314C247.559 411.168 247.753 410.963 247.753 410.858C247.753 410.753 247.559 410.668 247.322 410.668C247.085 410.668 246.892 410.873 246.892 411.124ZM249.477 416.27C249.477 416.507 249.683 416.701 249.933 416.701C250.184 416.701 250.27 416.507 250.123 416.27C249.977 416.033 249.772 415.839 249.667 415.839C249.562 415.839 249.477 416.033 249.477 416.27ZM259.388 416.27C259.388 416.81 259.845 416.81 260.681 416.27C261.204 415.932 261.142 415.851 260.358 415.845C259.824 415.842 259.388 416.033 259.388 416.27ZM270.808 416.27C270.954 416.507 271.159 416.701 271.264 416.701C271.369 416.701 271.454 416.507 271.454 416.27C271.454 416.033 271.249 415.839 270.998 415.839C270.747 415.839 270.661 416.033 270.808 416.27ZM257.449 417.563C257.596 417.8 257.801 417.993 257.905 417.993C258.01 417.993 258.096 417.8 258.096 417.563C258.096 417.326 257.89 417.132 257.639 417.132C257.388 417.132 257.303 417.326 257.449 417.563ZM267.145 417.563C267.145 417.8 267.339 417.993 267.576 417.993C267.813 417.993 268.007 417.8 268.007 417.563C268.007 417.326 267.813 417.132 267.576 417.132C267.339 417.132 267.145 417.326 267.145 417.563ZM256.372 418.45C256.372 418.701 256.566 418.786 256.803 418.64C257.04 418.493 257.234 418.288 257.234 418.184C257.234 418.079 257.04 417.993 256.803 417.993C256.566 417.993 256.372 418.199 256.372 418.45ZM261.974 420.148C261.974 420.385 262.168 420.579 262.405 420.579C262.642 420.579 262.836 420.385 262.836 420.148C262.836 419.911 262.642 419.717 262.405 419.717C262.168 419.717 261.974 419.911 261.974 420.148ZM264.559 420.579C264.559 420.816 264.753 421.01 264.99 421.01C265.227 421.01 265.421 420.816 265.421 420.579C265.421 420.342 265.227 420.148 264.99 420.148C264.753 420.148 264.559 420.342 264.559 420.579ZM251.632 423.621C251.632 423.872 251.826 423.957 252.063 423.811C252.3 423.664 252.494 423.459 252.494 423.355C252.494 423.25 252.3 423.165 252.063 423.165C251.826 423.165 251.632 423.37 251.632 423.621ZM267.145 423.595C267.145 423.832 267.339 424.026 267.576 424.026C267.813 424.026 268.007 423.832 268.007 423.595C268.007 423.358 267.813 423.165 267.576 423.165C267.339 423.165 267.145 423.358 267.145 423.595ZM256.372 425.319C256.372 425.556 256.577 425.75 256.828 425.75C257.079 425.75 257.165 425.556 257.018 425.319C256.872 425.082 256.667 424.888 256.562 424.888C256.457 424.888 256.372 425.082 256.372 425.319ZM255.079 425.776C255.079 426.026 255.273 426.112 255.51 425.966C255.747 425.819 255.941 425.614 255.941 425.509C255.941 425.404 255.747 425.319 255.51 425.319C255.273 425.319 255.079 425.525 255.079 425.776ZM245.599 427.043C245.599 427.28 245.793 427.474 246.03 427.474C246.267 427.474 246.461 427.28 246.461 427.043C246.461 426.806 246.267 426.612 246.03 426.612C245.793 426.612 245.599 426.806 245.599 427.043ZM267.791 427.043C267.938 427.28 268.143 427.474 268.248 427.474C268.352 427.474 268.438 427.28 268.438 427.043C268.438 426.806 268.232 426.612 267.981 426.612C267.73 426.612 267.645 426.806 267.791 427.043ZM274.255 427.043C274.109 427.28 274.194 427.474 274.445 427.474C274.696 427.474 274.901 427.28 274.901 427.043C274.901 426.806 274.816 426.612 274.711 426.612C274.607 426.612 274.402 426.806 274.255 427.043ZM256.803 427.93C256.803 428.181 256.997 428.267 257.234 428.12C257.471 427.974 257.665 427.768 257.665 427.664C257.665 427.559 257.471 427.474 257.234 427.474C256.997 427.474 256.803 427.679 256.803 427.93ZM247.322 428.767C246.802 429.103 246.87 429.185 247.671 429.191C248.226 429.194 248.548 429.007 248.4 428.767C248.08 428.249 248.124 428.249 247.322 428.767ZM257.88 428.767C258.027 429.004 258.232 429.197 258.336 429.197C258.441 429.197 258.526 429.004 258.526 428.767C258.526 428.53 258.321 428.336 258.07 428.336C257.819 428.336 257.734 428.53 257.88 428.767ZM258.957 428.767C258.957 429.004 259.151 429.197 259.388 429.197C259.625 429.197 259.819 429.004 259.819 428.767C259.819 428.53 259.625 428.336 259.388 428.336C259.151 428.336 258.957 428.53 258.957 428.767ZM261.543 431.352C261.543 431.589 261.737 431.783 261.974 431.783C262.211 431.783 262.405 431.589 262.405 431.352C262.405 431.115 262.211 430.921 261.974 430.921C261.737 430.921 261.543 431.115 261.543 431.352ZM270.377 431.783C270.523 432.02 270.728 432.214 270.833 432.214C270.938 432.214 271.023 432.02 271.023 431.783C271.023 431.546 270.818 431.352 270.567 431.352C270.316 431.352 270.23 431.546 270.377 431.783ZM261.327 433.938C261.474 434.175 261.679 434.368 261.784 434.368C261.888 434.368 261.974 434.175 261.974 433.938C261.974 433.701 261.768 433.507 261.517 433.507C261.267 433.507 261.181 433.701 261.327 433.938ZM259.388 434.825C259.388 435.076 259.582 435.161 259.819 435.015C260.056 434.868 260.25 434.663 260.25 434.559C260.25 434.454 260.056 434.368 259.819 434.368C259.582 434.368 259.388 434.574 259.388 434.825ZM259.173 436.092C259.026 436.329 259.112 436.523 259.363 436.523C259.614 436.523 259.819 436.329 259.819 436.092C259.819 435.855 259.734 435.661 259.629 435.661C259.524 435.661 259.319 435.855 259.173 436.092ZM247.969 436.523C248.115 436.76 248.32 436.954 248.425 436.954C248.53 436.954 248.615 436.76 248.615 436.523C248.615 436.286 248.41 436.092 248.159 436.092C247.908 436.092 247.822 436.286 247.969 436.523ZM262.405 436.523C262.063 436.734 261.926 437.05 262.101 437.225C262.276 437.4 262.645 437.317 262.922 437.04C263.573 436.389 263.21 436.026 262.405 436.523ZM257.018 437.816C257.165 438.053 257.37 438.247 257.475 438.247C257.579 438.247 257.665 438.053 257.665 437.816C257.665 437.579 257.459 437.385 257.208 437.385C256.957 437.385 256.872 437.579 257.018 437.816ZM250.77 438.247C250.77 438.484 250.964 438.678 251.201 438.678C251.438 438.678 251.632 438.484 251.632 438.247C251.632 438.01 251.438 437.816 251.201 437.816C250.964 437.816 250.77 438.01 250.77 438.247ZM264.559 438.678C264.559 438.915 264.753 439.109 264.99 439.109C265.227 439.109 265.421 438.915 265.421 438.678C265.421 438.441 265.227 438.247 264.99 438.247C264.753 438.247 264.559 438.441 264.559 438.678ZM250.123 440.401C249.977 440.638 250.063 440.832 250.314 440.832C250.564 440.832 250.77 440.638 250.77 440.401C250.77 440.164 250.685 439.97 250.58 439.97C250.475 439.97 250.27 440.164 250.123 440.401ZM252.278 441.263C252.425 441.5 252.63 441.694 252.734 441.694C252.839 441.694 252.924 441.5 252.924 441.263C252.924 441.026 252.719 440.832 252.468 440.832C252.217 440.832 252.132 441.026 252.278 441.263ZM264.559 441.289C264.559 441.539 264.753 441.625 264.99 441.479C265.227 441.332 265.421 441.127 265.421 441.022C265.421 440.918 265.227 440.832 264.99 440.832C264.753 440.832 264.559 441.038 264.559 441.289ZM256.803 441.694C256.803 441.931 256.997 442.125 257.234 442.125C257.471 442.125 257.665 441.931 257.665 441.694C257.665 441.457 257.471 441.263 257.234 441.263C256.997 441.263 256.803 441.457 256.803 441.694ZM261.758 444.28C261.905 444.517 262.11 444.711 262.215 444.711C262.319 444.711 262.405 444.517 262.405 444.28C262.405 444.043 262.199 443.849 261.948 443.849C261.698 443.849 261.612 444.043 261.758 444.28ZM250.123 448.158C250.27 448.395 250.475 448.589 250.58 448.589C250.685 448.589 250.77 448.395 250.77 448.158C250.77 447.921 250.564 447.727 250.314 447.727C250.063 447.727 249.977 447.921 250.123 448.158ZM273.609 448.183C273.609 448.434 273.803 448.52 274.04 448.373C274.277 448.227 274.471 448.022 274.471 447.917C274.471 447.812 274.277 447.727 274.04 447.727C273.803 447.727 273.609 447.933 273.609 448.183ZM252.781 448.876C252.623 449.034 252.494 449.364 252.494 449.609C252.494 449.879 252.694 449.853 253.003 449.544C253.284 449.264 253.413 448.934 253.291 448.812C253.168 448.689 252.939 448.718 252.781 448.876ZM268.438 449.476C268.438 449.727 268.632 449.813 268.869 449.666C269.106 449.52 269.299 449.315 269.299 449.21C269.299 449.105 269.106 449.02 268.869 449.02C268.632 449.02 268.438 449.225 268.438 449.476ZM253.355 451.174C253.355 451.411 253.549 451.605 253.786 451.605C254.023 451.605 254.217 451.411 254.217 451.174C254.217 450.937 254.023 450.743 253.786 450.743C253.549 450.743 253.355 450.937 253.355 451.174ZM267.36 451.174C267.214 451.411 267.3 451.605 267.55 451.605C267.801 451.605 268.007 451.411 268.007 451.174C268.007 450.937 267.921 450.743 267.817 450.743C267.712 450.743 267.507 450.937 267.36 451.174ZM299.895 452.729C299.895 452.822 299.495 452.898 299.008 452.898C298.52 452.898 298.235 452.713 298.375 452.486C298.605 452.114 299.895 452.32 299.895 452.729ZM266.714 453.76C266.714 453.997 266.908 454.191 267.145 454.191C267.382 454.191 267.576 453.997 267.576 453.76C267.576 453.523 267.382 453.329 267.145 453.329C266.908 453.329 266.714 453.523 266.714 453.76ZM304.873 454.692L306.453 455.625L305.436 456.401C304.102 457.42 302.09 458.254 301.761 457.924C301.413 457.576 302.495 453.76 302.943 453.76C303.135 453.76 304.004 454.179 304.873 454.692ZM260.25 454.622C260.25 454.859 260.444 455.053 260.681 455.053C260.918 455.053 261.112 454.859 261.112 454.622C261.112 454.385 260.918 454.191 260.681 454.191C260.444 454.191 260.25 454.385 260.25 454.622ZM263.267 454.622C263.267 454.859 263.449 455.053 263.672 455.053C263.895 455.053 264.197 454.859 264.344 454.622C264.49 454.385 264.308 454.191 263.938 454.191C263.569 454.191 263.267 454.385 263.267 454.622ZM294.284 454.884C295.237 455.265 296.017 455.691 296.017 455.83C296.017 456.304 293.703 458.5 293.203 458.5C292.929 458.5 292.481 457.75 292.206 456.834C291.324 453.888 291.464 453.756 294.284 454.884ZM258.772 458.746C257.918 459.601 257.907 461.196 258.744 462.814C259.559 464.389 262.038 465.253 263.805 464.577C264.896 464.159 264.99 463.938 264.99 461.792C264.99 459.79 264.84 459.363 263.928 458.765C262.565 457.872 259.657 457.862 258.772 458.746ZM296.017 460.656C296.372 460.662 296.942 460.844 297.282 461.06C297.782 461.376 297.629 461.706 296.482 462.777C295.702 463.506 295.005 464.102 294.934 464.102C294.863 464.102 294.5 463.208 294.128 462.115C293.451 460.129 293.451 460.129 294.411 460.386C294.938 460.527 295.661 460.649 296.017 460.656ZM254.217 461.086C254.217 461.323 254.411 461.517 254.648 461.517C254.885 461.517 255.079 461.323 255.079 461.086C255.079 460.849 254.885 460.655 254.648 460.655C254.411 460.655 254.217 460.849 254.217 461.086ZM268.438 461.086C268.438 461.323 268.643 461.517 268.894 461.517C269.145 461.517 269.231 461.323 269.084 461.086C268.937 460.849 268.732 460.655 268.628 460.655C268.523 460.655 268.438 460.849 268.438 461.086ZM270.592 461.542C270.592 461.793 270.786 461.879 271.023 461.732C271.26 461.585 271.454 461.38 271.454 461.276C271.454 461.171 271.26 461.086 271.023 461.086C270.786 461.086 270.592 461.291 270.592 461.542ZM268.089 463.699C267.478 464.679 267.805 464.797 268.687 463.914C269.028 463.574 269.15 463.198 268.958 463.08C268.767 462.962 268.376 463.24 268.089 463.699ZM298.104 466.4L300.406 466.938L298.986 468.326C297.86 469.427 297.462 469.601 297.063 469.171C296.641 468.713 295.456 465.788 295.716 465.844C295.763 465.854 296.837 466.104 298.104 466.4ZM269.515 467.119C269.368 467.356 269.454 467.549 269.705 467.549C269.956 467.549 270.161 467.356 270.161 467.119C270.161 466.882 270.076 466.688 269.971 466.688C269.867 466.688 269.661 466.882 269.515 467.119ZM260.035 468.842C260.181 469.079 260.386 469.273 260.491 469.273C260.596 469.273 260.681 469.079 260.681 468.842C260.681 468.605 260.475 468.411 260.225 468.411C259.974 468.411 259.888 468.605 260.035 468.842ZM255.941 472.29C255.941 472.527 256.135 472.72 256.372 472.72C256.609 472.72 256.803 472.527 256.803 472.29C256.803 472.053 256.609 471.859 256.372 471.859C256.135 471.859 255.941 472.053 255.941 472.29ZM265.637 474.875C265.783 475.112 265.988 475.306 266.093 475.306C266.198 475.306 266.283 475.112 266.283 474.875C266.283 474.638 266.077 474.444 265.827 474.444C265.576 474.444 265.49 474.638 265.637 474.875ZM257.234 475.762C257.234 476.013 257.428 476.099 257.665 475.952C257.902 475.806 258.096 475.601 258.096 475.496C258.096 475.391 257.902 475.306 257.665 475.306C257.428 475.306 257.234 475.512 257.234 475.762ZM266.714 476.977C266.714 477.185 267.005 477.596 267.36 477.892C267.807 478.262 268.007 478.278 268.007 477.944C268.007 477.678 267.801 477.461 267.55 477.461C267.3 477.461 267.214 477.267 267.36 477.03C267.507 476.793 267.421 476.599 267.17 476.599C266.919 476.599 266.714 476.769 266.714 476.977ZM263.59 478.177C263.886 478.297 264.371 478.297 264.667 478.177C264.964 478.057 264.721 477.96 264.128 477.96C263.536 477.96 263.294 478.057 263.59 478.177ZM260.538 482.919C260.005 483.452 260.245 484.692 260.932 484.956C261.307 485.1 263.013 485.217 264.724 485.217H267.835L268.777 487.156C269.744 489.147 270.54 489.551 271.416 488.495C272.175 487.581 270.166 483.279 268.813 482.917C267.453 482.553 260.902 482.555 260.538 482.919ZM271.454 484.355C271.454 484.592 271.648 484.786 271.885 484.786C272.122 484.786 272.316 484.592 272.316 484.355C272.316 484.118 272.122 483.924 271.885 483.924C271.648 483.924 271.454 484.118 271.454 484.355ZM261.974 490.845C261.974 491.095 262.168 491.181 262.405 491.035C262.642 490.888 262.836 490.683 262.836 490.578C262.836 490.474 262.642 490.388 262.405 490.388C262.168 490.388 261.974 490.594 261.974 490.845ZM266.929 491.681C267.076 491.918 267.281 492.112 267.386 492.112C267.49 492.112 267.576 491.918 267.576 491.681C267.576 491.444 267.37 491.25 267.119 491.25C266.869 491.25 266.783 491.444 266.929 491.681ZM277.702 493.836C277.849 494.073 278.054 494.267 278.159 494.267C278.263 494.267 278.349 494.073 278.349 493.836C278.349 493.599 278.143 493.405 277.892 493.405C277.642 493.405 277.556 493.599 277.702 493.836ZM270.592 496.421C270.592 496.658 270.786 496.852 271.023 496.852C271.26 496.852 271.454 496.658 271.454 496.421C271.454 496.184 271.26 495.99 271.023 495.99C270.786 495.99 270.592 496.184 270.592 496.421ZM270.592 500.325C270.592 500.576 270.786 500.661 271.023 500.515C271.26 500.368 271.454 500.163 271.454 500.059C271.454 499.954 271.26 499.869 271.023 499.869C270.786 499.869 270.592 500.074 270.592 500.325ZM270.592 502.454C270.592 502.691 270.786 502.885 271.023 502.885C271.26 502.885 271.454 502.691 271.454 502.454C271.454 502.217 271.26 502.023 271.023 502.023C270.786 502.023 270.592 502.217 270.592 502.454ZM268.869 504.178C268.869 504.415 269.062 504.609 269.299 504.609C269.536 504.609 269.73 504.415 269.73 504.178C269.73 503.941 269.536 503.747 269.299 503.747C269.062 503.747 268.869 503.941 268.869 504.178Z" fill="black"/>
<path d="M390.389 214.962C391.996 214.962 392.431 214.536 393.621 213.836C394.066 213.574 394.187 213.015 394.698 212.759C395.201 212.508 395.904 212.085 396.326 211.73C397.746 210.534 402.239 209.101 402.239 211.945C402.239 213.336 401.768 215.227 401.114 216.47C400.448 217.734 400.082 219.234 399.606 220.612C399.164 221.888 399.026 223.304 398.624 224.61C398.297 225.671 398.656 226.415 399.39 227.075C401.177 228.684 403.308 227.327 404.609 225.95C405.892 224.592 405.364 220.905 403.101 220.779C401.934 220.714 401.378 221.053 400.779 222.072C400.248 222.974 399.974 224.011 401.377 224.011C401.937 224.011 402.387 224.041 402.885 223.748C403.032 223.662 403.152 223.123 403.089 223.281C402.975 223.566 402.664 223.909 402.454 224.131C401.904 224.714 399.402 225.142 400.3 223.796" stroke="black" stroke-width="3.44737" stroke-linecap="round"/>
<path d="M362.809 179.488C362.809 177.787 363.379 173.886 365.717 173.886C367.84 173.886 368.952 175.109 369.811 176.998C370.893 179.379 370.229 182.126 369.44 184.491C369.091 185.538 369.057 186.465 369.057 187.568C369.057 188.72 369.476 188.843 370.35 189.232C371.941 189.939 374.052 189.702 375.21 188.214C376.17 186.98 376.28 183.595 374.336 183.163C372.466 182.747 370.272 184.272 370.35 186.215C370.374 186.828 372.026 187.734 372.504 187.137C372.908 186.632 373.51 186.31 373.797 185.736" stroke="black" stroke-width="3.44737" stroke-linecap="round"/>
<path d="M369.92 175.61C371.853 174.939 373.777 173.931 375.211 172.497C375.932 171.776 379.616 169.956 379.616 172.055C379.616 173.134 379.793 174.597 380.154 175.61C380.552 176.723 380.306 177.906 380.645 179.009C381.104 180.502 380.749 182.993 381.818 184.18C383.277 185.801 384.985 184.78 386.403 183.677C387.151 183.095 387.588 182.784 387.588 181.81C387.588 180.844 387.662 179.521 386.618 179.057C385.7 178.649 385.204 177.947 384.033 178.207C382.957 178.446 382.417 178.898 382.417 179.967C382.417 181.337 383.031 181.6 384.248 181.87C385.518 182.152 385.649 181.412 385.649 180.134" stroke="black" stroke-width="3.44737" stroke-linecap="round"/>
<path d="M184.408 170.316C186.705 170.316 189.549 169.804 191.518 171.07C194.136 172.753 192.653 176.36 192.596 178.887C192.582 179.507 191.782 184.127 192.5 184.537C194.306 185.568 198.351 185.863 199.802 183.998C203.01 179.874 194.115 178.187 193.685 180.12C193.562 180.672 193.541 181.879 193.793 182.382C194.329 183.455 195.123 183.284 196.211 183.244C196.577 183.23 198.884 182.108 198.281 181.64C197.641 181.142 196.006 181.58 195.181 181.305" stroke="black" stroke-width="3.44737" stroke-linecap="round"/>
<path d="M145.625 204.679C146.938 201.589 153.382 199.002 153.382 204.248C153.382 207.066 152.98 209.533 151.442 211.993C150.825 212.98 150.47 214.124 149.838 215.117C149.464 215.705 149.087 216.31 149.3 217.056C149.578 218.029 152.935 217.643 153.597 217.607C155.093 217.524 155.538 214.595 155.057 213.513C154.089 211.333 153.062 214.337 152.304 215.237C150.833 216.984 154.674 216.234 154.674 214.375" stroke="black" stroke-width="3.44737" stroke-linecap="round"/>
<path d="M154.027 207.265C155.284 207.265 156.541 207.265 157.798 207.265C158.914 207.265 159.343 206.999 160.276 206.451C161.545 205.704 161.719 204.464 163.292 204.464C164.092 204.464 163.316 208.672 163.292 209.515C163.236 211.474 162.861 213.367 162.861 215.344C162.861 218.511 168.725 215.93 168.02 212.759C167.738 211.49 165.409 209.92 164.8 211.897C164.645 212.402 163.966 213.94 164.585 214.327C165.194 214.708 165.878 214.833 165.878 213.944" stroke="black" stroke-width="3.44737" stroke-linecap="round"/>
<path d="M165.447 280.53C167.983 278.426 169.599 275.795 170.523 272.677C170.977 271.144 170.939 268.971 172.581 268.033C177.549 265.194 177.576 275.556 176.986 278.136C176.308 281.102 175.511 284.381 175.358 287.424C175.278 289.042 175.038 290.838 176.436 291.925C177.431 292.7 180.757 292.368 181.607 291.518C182.986 290.138 184.408 288.671 184.408 286.563C184.408 285.182 184.924 282.78 183.546 281.918C182.508 281.269 179.806 280.932 178.59 281.607C177.213 282.372 175.789 283.329 175.789 285.054C175.789 286.125 175.401 289.48 177.082 289.579C179.198 289.703 180.553 288.965 181.487 286.993C182.32 285.235 182.538 282.35 179.668 283.786C178.863 284.188 175.762 287.011 177.729 287.448C179.826 287.914 180.96 287.277 180.96 284.839" stroke="black" stroke-width="3.44737" stroke-linecap="round"/>
<path d="M389.311 274.928C390.099 273.886 391.021 272.946 391.788 271.923C392.263 271.29 392.921 271.41 393.572 271.217C395.628 270.608 395.559 273.83 395.559 275.239C395.559 277.164 395.442 279.079 395.343 280.96C395.254 282.656 395.965 283.061 397.702 282.888C399.292 282.729 400.514 281.387 400.514 279.895C400.514 278.375 400.984 276.867 399.114 276.867C398.317 276.867 396.668 279.724 396.864 280.41C396.927 280.632 397.965 280.577 398.144 280.482C398.55 280.267 398.653 279.219 398.791 278.806" stroke="black" stroke-width="3.44737" stroke-linecap="round"/>
<path d="M395.559 271.696C397.418 270.987 399.197 270.442 400.945 269.541C402.672 268.652 404.097 267.312 405.206 265.759C405.432 265.443 406.135 263.839 406.284 264.322C406.704 265.687 406.392 267.834 406.164 269.23C405.863 271.07 405.74 272.956 405.422 274.784C405.276 275.623 404.98 276.539 405.637 277.13C406.792 278.169 408.511 278.16 409.994 278.16C412.312 278.16 412.064 273.886 410.162 273.252C408.622 272.739 407.414 273.521 406.595 274.545C406.287 274.93 408.687 276.25 409.348 274.928" stroke="black" stroke-width="3.44737" stroke-linecap="round"/>
<path d="M251.631 151.792C252.997 150.406 254.318 149.488 256.168 148.782C258.348 147.949 260.858 147.913 263.158 147.746C265.294 147.592 267.404 147.22 269.544 147.07C271.582 146.927 273.614 146.954 275.655 146.944C283.182 146.909 291.043 146.256 298.278 148.668" stroke="black" stroke-width="3.44737" stroke-linecap="round"/>
<path d="M80.5 333C81.6665 338.444 86.9016 341.208 92.2222 342.111C100.399 343.5 108.879 344 117.167 344C120.102 344 122.79 344.018 125.611 343.111C128.186 342.283 129.113 340.815 131.25 339.5C133.198 338.301 134.131 335.65 136 334.611C137.395 333.836 138.893 331.436 139.611 330C140.011 329.201 143.941 323.5 142.389 323.5C139.63 323.5 136.885 324.5 134.028 324.5C132.281 324.5 130.363 323.917 133.028 324.75C134.964 325.355 143.101 324.432 143.528 326.778C143.83 328.441 145.026 335.263 146.5 336" stroke="#F25CBE" stroke-width="4" stroke-linecap="round"/>
<path d="M395 431.5C403.521 431.333 415.796 427.798 421.278 420.75C423.017 418.514 424.632 414.195 426.75 412.5C428.728 410.918 428.346 405.077 430.5 404" stroke="#F25CBE" stroke-width="4" stroke-linecap="round"/>
<path d="M394.5 431C395.54 428.431 397.131 427.139 398.389 425C399.071 423.841 399.681 422.44 401 422" stroke="#F25CBE" stroke-width="4" stroke-linecap="round"/>
<path d="M394 431.5C394.678 433.095 397.021 437.232 398.75 438C400.482 438.77 400.919 440.946 402.5 442" stroke="#F25CBE" stroke-width="4" stroke-linecap="round"/>
<path d="M390.5 136.5C401.299 136.5 412.132 136.492 422.333 132.5C430.221 129.414 438.597 125.44 443.5 118.222C446.726 113.473 450.798 108.478 453 103.167C453.807 101.221 455.037 99.4958 455.75 97.5C456.149 96.3829 456.461 94.5196 457.5 94" stroke="#F25CBE" stroke-width="4" stroke-linecap="round"/>
<path d="M389.5 137.25C390.821 138.891 391.68 140.812 392.944 142.438C393.516 143.173 393.735 143.977 394.25 144.75" stroke="#F25CBE" stroke-width="4" stroke-linecap="round"/>
<path d="M389.25 136.125C389.933 135.222 390.744 134.42 391.451 133.556C391.921 132.982 392.338 132.381 392.819 131.812C393.378 131.152 393.97 130.504 394.444 129.778C394.633 129.489 394.972 129.305 395.125 129" stroke="#F25CBE" stroke-width="4" stroke-linecap="round"/>
<path d="M290.188 355.812C290.888 355.091 291.058 354.098 291.344 353.184C291.635 352.253 291.559 351.194 292 350.312" stroke="black" stroke-width="2" stroke-linecap="round"/>
<path d="M290.562 356.938C290.973 356.777 291.136 356.678 291.406 356.347C291.608 356.1 291.746 355.724 292.003 355.531C292.287 355.319 292.502 354.949 292.75 354.688C293.044 354.377 293.291 353.966 293.528 353.611C293.816 353.179 294.155 352.785 294.434 352.344C294.744 351.853 295.115 351.265 295.312 350.722C295.386 350.521 295.548 350.361 295.611 350.153C295.67 349.959 295.767 349.651 295.875 349.479C296.048 349.204 296.166 348.855 296.312 348.562" stroke="black" stroke-width="2" stroke-linecap="round"/>
<path d="M291.125 353.75C291.76 353.346 292.206 352.72 292.653 352.125C292.915 351.776 293.196 351.372 293.375 350.969C293.522 350.638 293.776 350.322 293.986 350.028C294.089 349.884 294.135 349.684 294.312 349.625" stroke="black" stroke-width="2" stroke-linecap="round"/>
</g>
<defs>
<clipPath id="clip0_2003_6813">
<rect width="560" height="524" fill="white"/>
</clipPath>
</defs>
</svg>
