<svg width="148" height="148" viewBox="0 0 148 148" fill="none" xmlns="http://www.w3.org/2000/svg">
<path d="M0 31.1579C0 13.9499 13.9499 0 31.1579 0H116.842C134.05 0 148 13.9499 148 31.1579V116.842C148 134.05 134.05 148 116.842 148H31.1579C13.9499 148 0 134.05 0 116.842V31.1579Z" fill="#4D61CD"/>
<path fill-rule="evenodd" clip-rule="evenodd" d="M59.3229 59.3136L57.9105 56.8671C53.0818 48.5037 42.3492 45.6275 33.9853 50.4564C25.6214 55.2853 22.746 66.0182 27.5746 74.3816C32.2891 82.5473 41.4807 82.9476 53.9514 82.6205L54.2691 82.6126C65.8254 82.3097 78.9257 81.9669 85.6851 93.6746C89.1806 99.729 89.617 106.72 87.4881 112.858L114.014 97.5429C122.378 92.714 125.253 81.9811 120.425 73.6177C115.595 65.2529 110.05 62.5325 98.4514 62.8364L98.1337 62.8443C87.4141 63.1253 75.3658 63.4414 68.2828 54.1406L66.173 55.3587L59.3229 59.3136Z" fill="white"/>
<path fill-rule="evenodd" clip-rule="evenodd" d="M82.0077 99.0595L52.0667 116.346C57.3991 122.874 66.851 124.772 74.3817 120.424C81.9128 116.076 84.9945 106.941 82.0077 99.0595Z" fill="#C0C9F2"/>
<path fill-rule="evenodd" clip-rule="evenodd" d="M55.9696 54.225L26.0286 71.5115C23.0417 63.6296 26.1234 54.4947 33.6541 50.1469C41.1852 45.7988 50.6371 47.6974 55.9696 54.225Z" fill="#C0C9F2"/>
<path fill-rule="evenodd" clip-rule="evenodd" d="M73.6181 27.5764L47.1011 42.886C52.606 43.945 57.704 46.9794 61.2425 51.6834L63.3484 50.4676L70.1985 46.5127L95.9336 31.6545C90.6006 25.1272 81.1492 23.2283 73.6181 27.5764Z" fill="white"/>
<path fill-rule="evenodd" clip-rule="evenodd" d="M70.1996 46.5111L63.3495 50.4659L61.2436 51.6818C57.7051 46.9778 52.6071 43.9433 47.1022 42.8843L73.6192 27.5748C81.1503 23.2267 90.6017 25.1255 95.9347 31.6529L70.1996 46.5111ZM98.1352 62.8444L98.4529 62.8365C110.052 62.5326 115.597 65.253 120.426 73.6178C125.255 81.9812 122.379 92.7141 114.015 97.543L87.4896 112.858C89.6185 106.72 89.1821 99.7291 85.6866 93.6747C78.9272 81.967 65.8269 82.3098 54.2706 82.6127L53.9529 82.6206C41.4822 82.9477 32.2906 82.5474 27.5761 74.3817C22.7475 66.0183 25.6229 55.2854 33.9868 50.4565C42.3507 45.6276 53.0833 48.5038 57.912 56.8672L59.3244 59.3137L66.1745 55.3588L68.2843 54.1407C75.3673 63.4415 87.4156 63.1254 98.1352 62.8444ZM52.0675 116.347L82.009 99.0599C84.9953 106.942 81.9141 116.077 74.383 120.425C66.8519 124.773 57.4005 122.874 52.0675 116.347ZM102.437 31.1606C96.0509 20.0992 81.8556 16.2956 70.7943 22.6819L31.1619 45.5636C20.1006 51.9499 16.2969 66.1452 22.6832 77.2066C29.4426 88.9143 42.5429 88.5714 54.0992 88.2686L54.4169 88.2607C65.5796 87.9686 74.1152 88.2576 79.164 94.1786L44.1525 114.392L45.5649 116.839C51.9512 127.9 66.1466 131.704 77.2079 125.318C77.3718 125.223 77.5292 125.12 77.6901 125.023L77.6972 125.035L116.84 102.436C127.902 96.0496 131.705 81.8543 125.319 70.7929C118.541 59.0525 109.957 56.8833 98.3065 57.1885L97.9888 57.1964C86.827 57.4887 78.2955 57.1946 73.2461 51.276L103.85 33.607L102.437 31.1606Z" fill="white"/>
<rect x="32.5603" y="79.9204" width="9.52676" height="6.35117" transform="rotate(-30 32.5603 79.9204)" fill="#F25CBE"/>
<rect x="72.7637" y="86.0439" width="9.52676" height="6.35117" transform="rotate(-30 72.7637 86.0439)" fill="#F25CBE"/>
<rect x="49.0613" y="70.394" width="9.52676" height="6.35117" transform="rotate(-30 49.0613 70.394)" fill="#F25CBE"/>
<rect x="89.2654" y="76.5166" width="9.52676" height="6.35117" transform="rotate(-30 89.2654 76.5166)" fill="#F25CBE"/>
<rect x="65.5615" y="60.8674" width="9.52676" height="6.35117" transform="rotate(-30 65.5615 60.8674)" fill="#F25CBE"/>
<rect x="105.766" y="66.9902" width="9.52676" height="6.35117" transform="rotate(-30 105.766 66.9902)" fill="#F25CBE"/>
<path fill-rule="evenodd" clip-rule="evenodd" d="M70.1996 46.5111L63.3495 50.4659L61.2436 51.6818C57.7051 46.9778 52.6071 43.9433 47.1022 42.8843L73.6192 27.5748C81.1503 23.2267 90.6017 25.1255 95.9347 31.6529L70.1996 46.5111ZM98.1352 62.8444L98.4529 62.8365C110.052 62.5326 115.597 65.253 120.426 73.6178C125.255 81.9812 122.379 92.7141 114.015 97.543L87.4896 112.858C89.6185 106.72 89.1821 99.7291 85.6866 93.6747C78.9272 81.967 65.8269 82.3098 54.2706 82.6127L53.9529 82.6206C41.4822 82.9477 32.2906 82.5474 27.5761 74.3817C22.7475 66.0183 25.6229 55.2854 33.9868 50.4565C42.3507 45.6276 53.0833 48.5038 57.912 56.8672L59.3244 59.3137L66.1745 55.3588L68.2843 54.1407C75.3673 63.4415 87.4156 63.1254 98.1352 62.8444ZM52.0675 116.347L82.009 99.0599C84.9953 106.942 81.9141 116.077 74.383 120.425C66.8519 124.773 57.4005 122.874 52.0675 116.347ZM102.437 31.1606C96.0509 20.0992 81.8556 16.2956 70.7943 22.6819L31.1619 45.5636C20.1006 51.9499 16.2969 66.1452 22.6832 77.2066C29.4426 88.9143 42.5429 88.5714 54.0992 88.2686L54.4169 88.2607C65.5796 87.9686 74.1152 88.2576 79.164 94.1786L44.1525 114.392L45.5649 116.839C51.9512 127.9 66.1466 131.704 77.2079 125.318C77.3718 125.223 77.5292 125.12 77.6901 125.023L77.6972 125.035L116.84 102.436C127.902 96.0496 131.705 81.8543 125.319 70.7929C118.541 59.0525 109.957 56.8833 98.3065 57.1885L97.9888 57.1964C86.827 57.4887 78.2955 57.1946 73.2461 51.276L103.85 33.607L102.437 31.1606Z" fill="black"/>
</svg>
