<svg width="24" height="24" viewBox="0 0 24 24" fill="none" xmlns="http://www.w3.org/2000/svg">
<path d="M3.6875 5.12495C5.31824 5.12495 6.93103 5.18745 8.5625 5.18745C10.2061 5.18745 11.8487 4.9286 13.4965 5.06592C14.7526 5.1706 15.9794 5.24995 17.25 5.24995C17.8079 5.24995 18.3657 5.24995 18.9236 5.24995C19.1149 5.24995 19.9816 5.1507 20.0625 5.31245" stroke="black" stroke-width="3" stroke-linecap="round"/>
<path d="M3.6001 12.0625C4.3351 12.0625 4.57627 12.125 5.3125 12.125C6.04968 12.125 6.7845 12.0625 7.51389 12.0625C9.29297 12.0625 11.0888 12 12.875 12C14.2673 12 15.6478 11.9375 17.0312 11.9375C18.0624 11.9375 19.0834 12 20.125 12" stroke="black" stroke-width="3" stroke-linecap="round"/>
<path d="M4.25 19.125C4.96065 19.125 5.6713 19.125 6.38194 19.125C6.89616 19.125 7.43321 19.1814 7.9375 19.2535C8.51613 19.3361 9.11704 19.3125 9.71181 19.3125C9.99537 19.3125 10.2789 19.3125 10.5625 19.3125C10.8156 19.3125 11.0761 19.1875 11.3264 19.1875C12.0586 19.1875 12.7758 19.25 13.5069 19.25C13.8996 19.25 14.2656 19.125 14.6528 19.125C14.8947 19.125 15.1366 19.125 15.3785 19.125C16.0792 19.125 16.7656 19.1875 17.4688 19.1875C17.9252 19.1875 18.3703 19.25 18.8125 19.25C19.2623 19.25 19.7341 19.4011 20.1875 19.25" stroke="black" stroke-width="3" stroke-linecap="round"/>
</svg>
