<svg width="560" height="720" viewBox="0 0 560 720" fill="none" xmlns="http://www.w3.org/2000/svg">
<path d="M166.808 441.5C163.905 439.457 161.963 437.021 160.364 434C159.606 432.569 158.778 431.046 157.933 429.639C156.913 427.938 156.572 425.946 155.864 424.111C155.39 422.883 154.669 421.804 154.197 420.583C152.307 415.692 152.058 409.799 152.058 404.583C152.058 399.882 151.616 395.034 153.169 390.514C154.173 387.595 154.983 384.527 155.697 381.528C156.329 378.874 156.938 375.855 158.419 373.528C160.28 370.603 159.994 368.006 162.5 365.5C163.979 364.021 164 362 165 360.5" stroke="black" stroke-width="8" stroke-linecap="round"/>
<path d="M363.125 485.812C363.588 486.053 364.146 486.47 364.688 486.5C364.924 486.513 365.157 486.625 365.41 486.625C365.773 486.625 366.137 486.625 366.5 486.625C366.964 486.625 367.169 486.523 367.562 486.326C367.75 486.233 368.231 486.038 368.312 485.875" stroke="black" stroke-linecap="round"/>
<path d="M163.312 529.563C162.932 529.266 162.717 528.649 162.628 528.161C162.577 527.88 162.362 527.673 162.264 527.39C162.176 527.137 162.072 526.891 161.951 526.661C161.745 526.269 161.615 525.132 162.062 524.845C162.285 524.701 162.55 524.626 162.812 524.626C162.903 524.626 163.083 524.591 163.152 524.661C163.224 524.732 163.233 524.836 163.312 524.876" stroke="black" stroke-linecap="round"/>
<path d="M164.125 550.062C163.751 550.364 163.271 550.641 162.986 551.028C162.735 551.369 162.418 551.687 162.184 552.038C161.526 553.026 161.563 554.249 161.563 555.406C161.563 556.095 162.04 557.014 162.611 557.41C162.68 557.457 162.792 557.62 162.875 557.625C163.081 557.637 163.291 557.625 163.497 557.625C163.669 557.625 164.113 557.525 164.188 557.375" stroke="black" stroke-linecap="round"/>
<path d="M164.437 506.438C163.667 506.438 162.374 506.397 162.014 507.299C161.812 507.802 161.587 508.34 161.562 508.889C161.549 509.177 161.435 509.495 161.514 509.785C161.611 510.145 162.048 510.709 162.361 510.938C162.499 511.038 162.533 511.193 162.653 511.313C162.767 511.427 162.961 511.552 163.048 511.688C163.188 511.903 163.651 511.983 163.875 512.077C164.141 512.189 164.476 512.298 164.75 512.313C164.956 512.324 165.731 512.401 165.812 512.563" stroke="black" stroke-linecap="round"/>
<path d="M163.5 506.75C164.013 506.75 164.413 506.777 164.889 506.924C165.252 507.035 165.759 507.25 166.125 507.25" stroke="black" stroke-linecap="round"/>
<path fill-rule="evenodd" clip-rule="evenodd" d="M307.101 134.047C304.032 134.928 297.84 139.628 288.561 148.119C285.693 150.744 285.103 150.865 275.169 150.869C258.451 150.877 247.531 154.981 230.368 167.707C221.936 173.958 216.791 179.375 213.441 185.526C212.288 187.643 209.036 193.339 206.213 198.185C198.838 210.848 196.776 218.814 194.685 242.716C193.839 252.395 193.705 260.849 194.275 268.716C195.299 282.858 197.089 296.842 198.133 298.857C199.08 300.685 196.48 302.532 185.561 307.785C181.161 309.902 176.786 312.497 175.84 313.551C173.609 316.035 167.832 328.602 165.157 336.789C163.303 342.464 163.076 345.405 163.188 362.289C163.287 377.237 161.354 375.9 162 370.912C162.454 367.409 165.144 368.458 165.362 368.24C165.58 368.022 167.472 370.438 169.567 373.609C178.621 387.309 186.38 394.038 192.595 393.58C194.927 393.408 195.516 393.87 196.194 396.405C197.633 401.785 200.481 403.874 206.377 403.874C209.451 403.874 212.515 403.244 213.791 402.351C215.808 400.938 216.051 400.992 217.136 403.101C217.779 404.351 219.46 406.612 220.87 408.124C225.449 413.033 236.31 411.617 243.16 405.217L245.759 402.789L249.016 405.832C251.862 408.491 252.997 408.874 258.019 408.874C262.536 408.874 264.492 408.348 267.163 406.414C269.032 405.061 272.245 403.029 274.302 401.898C276.883 400.48 278.861 398.219 280.68 394.608C282.131 391.729 284.076 388.249 285.003 386.874C286.616 384.481 288.312 379.517 289.531 373.624C290.056 371.085 290.467 370.874 294.902 370.874C300.287 370.874 307.527 373.085 310.591 375.665C316.015 380.232 319.879 399.585 318.687 416.217C317.91 427.063 317.266 429.874 315.561 429.874C313.558 429.874 313.089 433.387 313.075 448.52C313.065 458.85 312.486 465.594 310.929 473.52C309.061 483.031 308.87 486.539 309.38 501.874C309.835 515.578 310.432 521.001 312.132 526.874C315.388 538.125 319.607 545.652 326.449 552.419C331.794 557.705 332.847 559.399 334.838 565.919C336.09 570.019 337.103 574.052 337.088 574.88C337.073 575.708 335.598 577.058 333.811 577.88C331.008 579.168 321.962 579.321 268.065 578.985C212.582 578.64 205.32 578.416 203.347 576.985C200.252 574.742 200.492 574.125 204.977 572.781C208.504 571.724 209.275 571.843 212.725 573.975C215.655 575.786 218.002 576.347 222.701 576.359C229.899 576.377 232.429 574.705 233.767 569.048C234.807 564.65 237.04 563.926 240.695 566.801C242.646 568.336 244.779 568.874 248.908 568.874C254.115 568.874 254.77 568.595 258.773 564.666C261.352 562.135 263.061 559.544 263.061 558.166C263.061 555.193 266.114 555.114 269.997 557.985C271.568 559.146 274.812 560.31 277.207 560.572C281.135 561.001 281.869 560.721 284.711 557.711C286.443 555.875 288.789 552.612 289.924 550.458L291.987 546.541L291.386 555.458C291.055 560.362 290.659 564.524 290.506 564.707C290.353 564.891 289.255 564.068 288.067 562.88C284.887 559.7 283.061 560.964 283.061 566.343C283.061 570.157 282.755 570.874 281.126 570.874C279.822 570.874 278.778 569.732 277.925 567.374C277.229 565.449 276.355 563.874 275.983 563.874C274.742 563.874 273.3 566.338 272.585 569.677C271.546 574.536 269.636 573.017 269.061 566.874C268.527 561.171 267.222 559.77 264.969 562.485C263.723 563.986 263.807 564.089 265.765 563.468C267.801 562.822 267.974 563.133 268.257 567.971C268.466 571.537 269.095 573.503 270.263 574.236C272.433 575.597 273.228 574.762 273.967 570.342C274.642 566.3 276.295 565.628 277.106 569.065C277.523 570.833 278.343 571.374 280.606 571.374C283.368 571.374 283.581 571.096 283.868 567.124C284.204 562.493 284.59 562.203 287.502 564.406C288.57 565.213 290.257 565.874 291.252 565.874C292.857 565.874 293.061 564.906 293.061 557.308C293.061 552.597 293.576 547.781 294.204 546.606C295.062 545.003 295.062 544.374 294.204 544.088C291.622 543.228 293.324 541.874 296.99 541.874C302.568 541.874 304.061 539.958 304.061 532.796C304.061 514.93 297.638 492.51 290.26 484.624C288.093 482.308 286.868 481.874 282.496 481.874C279.103 481.874 276.875 481.355 276.061 480.374C273.868 477.731 264.399 478.448 258.496 481.704C253.335 484.55 251.061 484.757 251.061 482.38C251.061 481.649 249.676 479.887 247.984 478.463L244.908 475.874L248.234 475.852C250.064 475.84 253.365 475.011 255.57 474.009C262.016 471.081 268.967 461.874 264.732 461.874C264.001 461.874 261.979 459.061 260.239 455.624C255.689 446.634 252.174 444.598 240.272 444.055C229.82 443.579 223.643 445.202 218.811 449.692C214.19 453.987 215.434 460.915 221.909 466.947C224.536 469.394 233.772 473.814 236.561 473.958C237.661 474.015 235.457 474.679 231.664 475.432C227.646 476.23 223.862 477.652 222.599 478.838C220.062 481.221 219.061 481.407 219.061 479.493C219.061 478.733 217.631 476.713 215.883 475.005C210.177 469.425 202.516 469.661 195.922 475.618C193.769 477.563 191.894 478.979 191.755 478.764C191.615 478.55 190.801 476.349 189.945 473.874C188.549 469.841 188.034 469.343 184.974 469.078C181.579 468.783 181.56 468.753 181.466 463.578C181.327 456.047 177.417 448.238 169.632 439.95L163.061 432.953V438.226C163.061 442.76 163.475 443.896 166.009 446.324C169.506 449.675 174.061 458.852 174.061 462.548C174.061 464.025 172.612 466.959 170.741 469.271C166.361 474.683 164.061 480.767 164.061 486.942C164.061 493.932 167.181 496.874 174.592 496.874C179.432 496.874 180.141 496.554 183.91 492.671C186.153 490.36 188.263 488.743 188.598 489.078C188.933 489.412 188.726 491.416 188.139 493.53C187.552 495.644 187.07 499.704 187.067 502.551C187.062 506.957 187.454 508.038 189.696 509.801C193.442 512.748 199.109 512.546 202.934 509.328C204.598 507.927 207.299 503.989 208.935 500.578C211.948 494.294 216.249 488.874 218.222 488.874C218.948 488.874 219.09 490.918 218.656 495.124C216.561 515.409 216.458 513.872 220.121 517.071C223.053 519.63 224.073 519.929 228.997 519.668C234.043 519.401 234.703 519.095 236.091 516.374C236.932 514.724 238.811 511.349 240.266 508.874C241.721 506.399 243.897 501.298 245.101 497.538C248.927 485.59 249.946 491.518 247.455 511.244C246.907 515.585 247.116 516.37 249.373 518.463C251.762 520.678 253.708 524.56 252.857 525.412C252.644 525.625 251.201 525.141 249.651 524.336C248.101 523.532 244.67 522.874 242.026 522.874C237.405 522.874 237.016 523.106 231.891 528.908C226.889 534.57 226.317 534.924 222.604 534.658C219.2 534.414 218.194 533.745 215.405 529.874C208.572 520.39 207.774 519.709 202.841 519.153C195.708 518.349 193.376 519.327 190.959 524.14C189.789 526.469 187.736 529.837 186.396 531.624C184.286 534.439 183.363 534.874 179.51 534.874C176.339 534.874 175.061 534.467 175.061 533.458C175.061 532.028 169.459 527.159 165.311 524.984C161.544 523.008 162.784 524.487 168.092 528.301C170.859 530.288 173.631 533.031 174.252 534.394C175.192 536.456 176.084 536.874 179.547 536.874C184.421 536.874 186.218 535.272 191.044 526.624L194.252 520.874H200.585C207.615 520.874 208.884 521.646 212.05 527.853C214.735 533.115 219.489 536.874 223.46 536.874C226.199 536.874 227.602 535.859 232.448 530.374C237.8 524.315 238.474 523.875 242.376 523.886C244.984 523.894 248.201 524.836 250.913 526.386C256.772 529.736 263.005 529.757 266.583 526.441C269.497 523.741 273.351 516.874 271.953 516.874C271.462 516.874 271.061 516.199 271.061 515.374C271.061 514.549 271.919 513.874 272.967 513.874C274.395 513.874 274.74 513.361 274.34 511.831C274.046 510.708 274.2 509.92 274.683 510.081C275.166 510.242 276.574 509.361 277.811 508.124C279.481 506.454 281.227 505.874 284.582 505.874C288.435 505.874 289.272 506.244 290.243 508.374C290.869 509.749 291.76 510.874 292.222 510.874C292.683 510.874 293.399 510.859 293.811 510.841C294.628 510.806 295.852 518.286 295.943 523.874C295.99 526.726 295.811 527.048 294.976 525.616C294.413 524.649 294.229 523.412 294.566 522.866C295.266 521.734 288.328 521.559 280.418 522.509L275.275 523.127L269.921 531.501C263.829 541.03 262.092 541.741 255.63 537.356C253.589 535.971 250.489 534.698 248.74 534.527C245.508 534.211 240.061 536.24 240.061 537.761C240.061 538.573 234.066 541.782 229.099 543.627C226.978 544.415 226.352 544.117 224.569 541.471C221.474 536.879 217.77 535.937 213.025 538.537C208.677 540.918 208.061 540.699 208.061 536.772C208.061 535.25 207.6 532.792 207.037 531.311C206.107 528.866 205.648 528.666 202.065 529.147C195.477 530.03 191.249 533.391 187.897 540.408C183.953 548.664 181.894 550.418 171.993 553.957C163.351 557.046 160.368 558.668 165.561 557.454C178.469 554.438 185.528 549.396 189.538 540.331C192.168 534.384 196.905 530.874 202.3 530.874C205.745 530.874 205.814 530.957 206.461 535.833C206.823 538.56 207.557 541.063 208.093 541.394C208.711 541.775 208.656 542.763 207.943 544.095C206.806 546.218 207.233 558.139 208.606 562.624C209.189 564.53 208.922 564.874 206.857 564.874C205.516 564.874 201.976 566.111 198.99 567.624C193.853 570.226 193.545 570.598 193.258 574.539C192.969 578.508 193.181 578.862 197.758 582.039L202.561 585.374L266.561 586.112C330.275 586.847 330.585 586.84 335.845 584.732C338.752 583.567 341.789 581.672 342.595 580.521C346.959 574.291 340.521 554.663 331.759 547.483C326.591 543.248 322.927 536.88 319.566 526.291C317.576 520.02 316.993 515.585 316.503 502.961C315.93 488.213 316.169 485.027 318.987 469.926C319.546 466.929 320.307 459.279 320.679 452.926C321.051 446.572 321.685 441.149 322.087 440.874C322.489 440.599 323.604 434.974 324.565 428.374C327.422 408.742 325.824 389.169 320.355 376.805C318.309 372.181 311.427 366.506 306.308 365.221C304.079 364.662 304.137 364.499 308.342 359.51C318.91 346.972 321.061 341.186 321.061 325.297C321.061 315.929 320.706 313.106 319.148 310.084C317.048 306.011 313.873 302.311 311.918 301.66C311.011 301.357 311.237 300.427 312.732 298.308C313.87 296.694 315.825 292.548 317.076 289.093C318.328 285.639 319.75 282.566 320.237 282.265C320.724 281.964 320.847 280.25 320.51 278.455C319.339 272.21 321.711 266.89 328.574 260.374C335.068 254.208 337.301 250.785 338.52 245.124L339.22 241.874H358.14H377.061V237.939C377.061 233.089 374.579 221.01 372.682 216.626C370.863 212.42 361.745 201.788 358.5 200.088C357.118 199.364 353.753 198.506 351.024 198.183C347.653 197.784 346.061 197.135 346.061 196.161C346.061 192.698 340.693 179.197 337.928 175.706C336.26 173.599 332.242 169.792 328.999 167.244C325.757 164.697 323.346 162.222 323.642 161.743C323.937 161.265 326.376 160.874 329.061 160.874C333.991 160.874 336.141 159.554 334.266 157.679C333.573 156.986 331.056 157.046 326.404 157.866L319.561 159.073L312.135 155.495L304.708 151.918L309.135 149.994C311.569 148.937 315.924 147.76 318.811 147.379C325.823 146.454 325.504 144.868 318.311 144.896C313.993 144.913 311.066 145.655 306.561 147.874C300.889 150.668 290.986 152.11 291.107 150.124C291.224 148.198 305.421 137.859 309.318 136.861C315.534 135.27 316.061 135.039 316.061 133.905C316.061 132.642 311.759 132.711 307.101 134.047ZM287.061 154.874C287.061 155.974 287.563 156.874 288.178 156.874C288.802 156.874 289.064 155.992 288.771 154.874C288.315 153.13 288.741 152.874 292.093 152.874C295.629 152.874 295.922 153.086 295.749 155.515C295.646 156.967 296.124 158.355 296.811 158.598C297.499 158.842 298.061 158.351 298.061 157.507C298.061 153.397 304.262 154.062 312.561 159.06L315.561 160.867L312.893 160.87C309.2 160.875 307.061 161.833 307.061 163.481C307.061 165.171 308.767 165.229 314.682 163.739C318.999 162.652 319.321 162.728 322.374 165.548C324.127 167.167 327.236 169.716 329.284 171.213C334.287 174.87 338.443 181.138 340.971 188.839C343.74 197.273 343.672 197.874 339.954 197.874C338.245 197.874 333.633 198.589 329.704 199.464C325.775 200.338 321.586 201.237 320.395 201.462C317.378 202.03 310.332 208.568 307.46 213.462C303.189 220.739 304.376 234.502 309.801 240.624C311.661 242.722 312.608 242.874 323.823 242.874H335.85L335.071 246.124C333.757 251.601 333.116 252.526 326.856 257.971C319.937 263.989 317.115 269.241 317.083 276.156C317.06 281.162 311.679 296.874 309.988 296.874C309.478 296.874 309.061 297.549 309.061 298.374C309.061 300.359 308.162 300.259 304.561 297.874C298.807 294.063 279.97 295.682 282.497 299.771C283.058 300.678 283.577 300.691 284.624 299.822C285.518 299.08 289.23 298.797 295.105 299.024C302.494 299.308 304.387 299.703 305.182 301.124C305.72 302.087 306.631 302.874 307.206 302.874C309.451 302.874 314.206 307.238 316.182 311.112C318.022 314.718 318.215 316.557 317.882 327.277C317.535 338.468 317.268 339.861 314.312 345.874C312.555 349.449 309.041 354.511 306.503 357.124C302.036 361.722 301.701 361.874 296.047 361.874C287.692 361.874 275.454 360.02 269.096 357.79C266.09 356.736 262.152 355.874 260.346 355.874C255.655 355.874 252.73 352.704 253.597 348.559C254.875 342.453 257.783 337.345 262.384 333.124C267.01 328.88 267.027 328.874 274.789 328.896C282.643 328.918 291.061 331.468 291.061 333.825C291.061 334.402 291.736 334.874 292.561 334.874C296.838 334.874 291.141 328.545 285.439 326.962C280.733 325.655 269.064 325.538 265.876 326.766C259.501 329.221 252.057 339.874 250.593 348.638C249.936 352.568 250.131 353.137 253.076 355.888C255.262 357.93 257.297 358.874 259.51 358.874C261.291 358.874 265.181 359.71 268.154 360.731C271.128 361.752 276.085 362.901 279.169 363.285C284.639 363.965 284.806 364.079 285.958 367.925C286.852 370.908 286.862 372.9 285.999 376.103C284.26 382.564 275.842 398.002 273.566 398.906C272.463 399.343 270.011 400.865 268.117 402.288C265.228 404.457 263.614 404.874 258.107 404.874C252.717 404.874 251.328 404.531 250.343 402.955C249.308 401.297 249.684 400.445 253.103 396.705C255.28 394.323 257.061 392.055 257.061 391.663C257.061 391.272 259.126 388.416 261.65 385.318C267.88 377.669 271.257 370.718 270.871 366.339C270.438 361.433 268.688 361.933 267.916 367.183C267.079 372.872 265.623 375.51 257.326 386.372C248.203 398.314 238.439 406.545 232.305 407.465C226.322 408.362 223.108 407.119 220.686 402.972L218.705 399.58L220.803 397.882C221.957 396.948 226.983 391.787 231.973 386.414C241.253 376.421 245.696 369.702 248.083 362.046C249.263 358.263 249.229 357.32 247.815 354.546C246.926 352.802 245.907 350.344 245.55 349.086C245.194 347.827 243.163 345.646 241.037 344.24C237.806 342.101 236.256 341.739 231.572 342.028C226.443 342.345 225.923 342.183 225.402 340.101C224.503 336.511 221.212 334.874 214.896 334.874C209.205 334.874 209.152 334.902 204.428 340.374L199.68 345.874H191.552C182.834 345.874 174.239 347.904 169.907 350.986C168.447 352.024 166.984 352.874 166.657 352.874C166.329 352.874 166.061 350.816 166.061 348.3C166.061 342.856 169.721 331.486 174.576 321.845L178.082 314.882L188.273 309.768C198.471 304.65 199.453 304.329 208.311 303.216C214.818 302.399 214.283 301.038 207.311 300.674L201.561 300.374L200.356 295.491C197.048 282.089 196.109 249.005 198.579 232.874C201.701 212.475 202.499 210.15 211.967 193.874C219.797 180.412 223.051 176.406 230.061 171.595C232.536 169.896 234.786 168.251 235.061 167.94C236.265 166.577 242.069 162.904 246.83 160.491C257.204 155.234 266.053 153.191 279.311 152.991C286.433 152.883 287.061 153.036 287.061 154.874ZM256.289 174.49C252.29 176.418 249.279 178.417 249.598 178.934C250.47 180.345 251.348 180.139 258.403 176.874C263.933 174.314 266.084 173.874 273.056 173.874C279.148 173.874 281.122 173.556 280.814 172.624C280.533 171.777 277.682 171.311 271.98 171.18C264.204 171 263.006 171.253 256.289 174.49ZM269.055 180.808C265.656 181.842 259.949 184.843 258.36 186.432C257.497 187.295 257.061 190.607 257.061 196.303C257.061 201.35 256.65 204.874 256.061 204.874C253.999 204.874 255.177 206.783 258.51 208.843C260.565 210.113 261.749 211.524 261.438 212.334C260.017 216.036 271.613 215.239 279.561 211.087C288.141 206.605 289.064 205.375 289.039 198.45C288.988 184.336 280.907 177.203 269.055 180.808ZM282.645 186.395C284.765 189.175 285.433 191.347 285.817 196.701C286.284 203.238 286.201 203.552 283.547 205.291L280.792 207.097L282.426 204.763C285.148 200.877 284.535 196.61 280.853 193.812C275.489 189.735 273.716 188.946 269.837 188.909C266.707 188.88 265.869 189.345 264.587 191.824C263.748 193.447 263.061 197.31 263.061 200.408C263.061 204.402 262.705 205.922 261.839 205.633C258.845 204.635 258.026 191.092 260.811 188.648C264.497 185.413 270.679 182.961 275.26 182.918C279.484 182.878 280.231 183.23 282.645 186.395ZM279.636 199.317C280.797 203.941 277.246 205.464 273.111 202.115C269.993 199.591 271.309 196.874 275.649 196.874C278.393 196.874 279.137 197.33 279.636 199.317ZM293.164 203.124C292.697 204.361 292.016 206.724 291.649 208.374C290.352 214.21 279.902 222.874 274.16 222.874C271.97 222.874 270.627 224.363 271.517 225.803C271.847 226.336 274.704 225.85 278.221 224.663C286.207 221.966 292.378 215.912 294.531 208.665C295.372 205.83 296.061 202.918 296.061 202.192C296.061 200.051 294.082 200.687 293.164 203.124ZM354.862 201.724C357.548 202.483 363.845 208.512 367.578 213.898C370.393 217.961 372.555 224.975 373.621 233.508L374.291 238.874H370.708C367.532 238.874 366.671 238.261 363.141 233.482C359.693 228.815 358.318 227.807 352.915 225.982C341.039 221.971 332.129 223.378 314.905 231.982C308.225 235.32 308.061 235.153 308.061 225.027C308.061 220.423 308.64 217.258 309.923 214.858C312.338 210.336 319.921 204.908 324.756 204.24C326.849 203.951 329.461 203.333 330.561 202.867C331.661 202.401 333.236 201.798 334.061 201.526C336.24 200.808 352.158 200.959 354.862 201.724ZM328.564 213.614C326.916 213.856 325.235 214.576 324.83 215.214C323.614 217.125 323.963 218.874 325.561 218.874C326.386 218.874 327.061 218.499 327.061 218.042C327.061 217.584 329.165 216.796 331.737 216.292C336.987 215.261 339.005 212.78 334.394 213.024C332.836 213.106 330.212 213.372 328.564 213.614ZM353.728 229.304C356.346 230.385 358.835 232.445 360.424 234.846L362.952 238.667L347.257 239.248C338.624 239.568 328.028 240.117 323.709 240.467C318.156 240.917 315.155 240.727 313.459 239.819C312.14 239.114 311.061 238.255 311.061 237.911C311.061 237.381 322.526 231.685 331.061 227.974C334.623 226.425 348.769 227.255 353.728 229.304ZM210.526 246.931C209.543 248.521 210.885 252.919 213.636 257.124C216.306 261.205 220.214 262.21 221.874 259.243C222.692 257.782 223.118 257.857 225.966 259.962C229.938 262.898 232.561 261.727 232.561 257.015C232.561 253.071 230.673 252.395 230.239 256.183C229.837 259.692 228.262 259.255 225.242 254.797C222.403 250.605 220.743 250.443 220.071 254.292C219.79 255.896 219.023 257.388 218.365 257.607C216.975 258.069 213.061 250.916 213.061 247.914C213.061 245.741 211.609 245.178 210.526 246.931ZM308.6 251.812C308.27 252.345 308.287 253.928 308.639 255.328C309.157 257.393 309.883 257.874 312.478 257.874C316.197 257.874 319.688 255.697 318.653 254.023C318.154 253.216 317.376 253.17 316.066 253.871C313.378 255.31 311.061 255.107 311.061 253.433C311.061 251.618 309.397 250.522 308.6 251.812ZM292.7 264.568C292.349 264.92 292.029 268.395 291.991 272.291C291.911 280.285 290.252 278.798 290.131 270.624C290.079 267.1 289.674 265.874 288.561 265.874C285.293 265.874 287.245 279.963 290.696 281.288C294.148 282.612 295.061 280.842 295.061 272.826C295.061 265.6 294.307 262.962 292.7 264.568ZM221.232 339.529C223.031 341.157 223.726 345.875 222.368 347.234C221.986 347.615 221.642 350.953 221.602 354.651C221.54 360.404 221.036 362.232 218.11 367.319C213.854 374.719 202.114 386.874 199.222 386.874C198.067 386.874 195.558 387.752 193.648 388.825C190.534 390.574 189.879 390.63 187.341 389.364C183.879 387.637 176.629 379.368 171.164 370.912C167.121 364.657 167.108 364.604 168.821 361.702C171.39 357.354 180.051 353.496 188.292 353.031C196.161 352.586 196.328 352.873 192.647 360.504C190.24 365.493 189.718 367.254 189.943 369.624C190.221 372.557 191.873 370.375 194.866 363.124C198.512 354.288 198.827 353.778 201.561 352.273C202.661 351.668 203.713 349.883 203.898 348.307C204.084 346.731 205.584 343.739 207.232 341.658C209.92 338.265 210.703 337.874 214.816 337.874C217.681 337.874 220.09 338.495 221.232 339.529ZM239.811 346.863C242.091 348.253 243.061 349.595 243.061 351.359C243.061 352.742 243.462 353.874 243.953 353.874C245.765 353.874 246.025 358.911 244.454 363.572C243.563 366.213 241.17 370.73 239.136 373.609C233.978 380.909 220.188 394.874 218.137 394.874C217.202 394.874 215.439 396.224 214.219 397.874C212.278 400.499 211.387 400.874 207.088 400.874C201.425 400.874 199.061 398.636 199.061 393.273C199.061 390.702 199.623 389.884 202.091 388.861C206.806 386.908 217.926 374.249 221.568 366.686C223.522 362.628 225.069 357.521 225.502 353.696C225.894 350.23 226.685 346.827 227.26 346.134C228.863 344.203 236.142 344.626 239.811 346.863ZM163.14 427.457C163.188 428.622 163.425 428.859 163.744 428.062C164.033 427.34 163.997 426.477 163.665 426.145C163.333 425.813 163.097 426.403 163.14 427.457ZM249.346 448.349C253.54 450.101 256.341 453.421 258.587 459.302C260.938 465.46 260.28 467.913 255.561 470.581C250.991 473.163 246.9 473.378 239.061 471.449C230.69 469.389 228.464 468.287 223.569 463.774C218.049 458.686 217.411 454.317 221.696 450.947C225.476 447.973 226.717 448.341 226.873 452.484C227.104 458.641 233.587 462.176 240.478 459.902C244.836 458.463 246.832 456.245 245.219 454.632C244.582 453.995 244.061 452.738 244.061 451.838C244.061 450.568 243.117 450.221 239.842 450.288C236.583 450.354 235.542 449.976 235.269 448.624C234.966 447.128 235.706 446.874 240.366 446.874C243.364 446.874 247.405 447.538 249.346 448.349ZM195.722 449.697C194.808 450.706 194.122 452.846 194.197 454.453C194.324 457.167 194.366 457.197 194.788 454.874C195.039 453.499 195.95 451.584 196.813 450.618C197.676 449.652 198.157 448.637 197.882 448.362C197.607 448.087 196.635 448.687 195.722 449.697ZM397.336 455.387L394.632 460.899L393.316 456.387C392.527 453.68 391.412 451.874 390.531 451.874C388.58 451.874 388.59 457.063 390.549 460.85C392.023 463.701 392.005 463.737 388.563 464.873C384.25 466.297 383.648 467.223 385.164 470.103C386.784 473.179 387.976 473.841 391.93 473.859L395.3 473.874L394.873 483.124C394.596 489.128 393.838 493.602 392.714 495.874C390.244 500.867 383.843 504.612 377.061 505.033L371.561 505.374L371.253 501.11C371.038 498.133 371.525 496.02 372.868 494.11C378.852 485.595 381.116 467.757 377.057 461.099C374.583 457.042 370.845 455.536 365.306 456.363C360.294 457.111 357.035 458.675 353.003 462.268C350.592 464.416 350.061 465.682 350.061 469.279C350.061 474.575 355.533 485.857 361.256 492.359C364.34 495.862 365.061 497.457 365.061 500.777C365.061 504.013 364.693 504.874 363.311 504.873C360.656 504.872 346.904 501.886 345.224 500.945C344.411 500.491 342.696 497.251 341.413 493.746C339.093 487.412 339.091 487.366 341.07 486.002C343.431 484.375 343.653 481.61 341.561 479.874C340.715 479.172 340.061 476.992 340.061 474.874C340.061 470.062 337.508 467.515 336.188 471.01C335.697 472.31 335.495 473.711 335.737 474.124C336.63 475.639 334.626 474.814 332.449 472.769C328.19 468.768 326.57 472.915 330.118 478.736C331.98 481.79 332.025 482.256 330.614 483.815C329.76 484.759 329.061 486.734 329.061 488.203C329.061 490.504 329.476 490.874 332.061 490.874C334.329 490.874 335.061 491.332 335.061 492.752C335.061 500.92 346.481 511.874 354.997 511.874C356.937 511.874 357.862 512.316 357.613 513.124C357.401 513.812 356.96 516.287 356.633 518.624C356.158 522.012 356.344 522.874 357.549 522.874C359.891 522.874 359.358 524.286 355.811 527.475C347.358 535.076 344.681 536.315 343.607 533.124C343.283 532.162 341.684 529.799 340.052 527.874C337.583 524.96 336.919 524.625 336.089 525.874C335.54 526.699 335.085 529.016 335.076 531.024C335.063 534.186 335.806 535.354 340.642 539.774C343.711 542.579 346.789 544.874 347.481 544.874C348.913 544.874 358.845 535.534 364.349 529.012C368.928 523.584 370.486 523.83 378.061 531.18C394.588 547.216 399.664 549.135 403.811 540.912C406.976 534.635 406.803 524.874 403.527 524.874C401.591 524.874 398.061 529.776 398.061 532.464C398.061 534.761 398.016 534.769 393.844 533.297C388.134 531.283 380.894 526.953 381.526 525.931C381.808 525.474 381.305 525.162 380.408 525.237C379.51 525.312 378.578 524.812 378.335 524.124C378.051 523.318 378.902 522.863 380.728 522.842C382.286 522.825 384.405 522.171 385.436 521.39C387.539 519.798 386.993 516.874 384.592 516.874C382.772 516.874 382.497 514.889 384.311 514.841C384.999 514.822 384.59 513.997 383.404 513.006C381.252 511.208 381.259 511.201 386.254 509.921C392.393 508.348 397.405 504.102 400.625 497.747C402.593 493.864 403.061 491.428 403.061 485.068C403.061 477.622 403.198 477.133 405.583 476.046C407.699 475.082 407.994 474.454 407.414 472.145C406.644 469.076 404.81 466.874 403.025 466.874C402.263 466.874 402.131 466.257 402.654 465.124C403.097 464.162 403.632 460.336 403.843 456.624C404.2 450.319 404.087 449.874 402.132 449.874C400.588 449.874 399.33 451.32 397.336 455.387ZM403.054 456.124C403.05 459.645 402.405 462.35 401.095 464.337L399.142 467.299L402.352 468.337C404.789 469.125 405.637 470.035 405.877 472.124C406.145 474.452 405.823 474.874 403.778 474.874C401.428 474.874 401.347 475.139 400.759 484.794C400.081 495.921 398.696 500.069 394.271 504.228C391.086 507.221 380.318 510.791 374.311 510.845C368.571 510.896 370.849 512.869 376.811 513.01C379.973 513.085 381.436 513.324 380.061 513.54C371.24 514.929 370.695 516.35 378.666 517.173C388.131 518.15 387.466 519.921 377.307 520.794L370.561 521.374L379.345 527.124C384.177 530.287 388.548 532.874 389.06 532.874C389.571 532.874 392.031 534.013 394.526 535.406L399.061 537.938V534.629C399.061 530.91 401.433 526.874 403.618 526.874C407.29 526.874 403.508 542.998 399.473 544.546C396.981 545.502 392.429 542.623 384.061 534.797C375.979 527.239 369.275 521.874 367.911 521.874C367.443 521.874 367.061 522.473 367.061 523.205C367.061 525.166 352.587 538.861 350.418 538.953C349.294 539.001 349.071 539.236 349.853 539.55C351.496 540.21 349.526 542.874 347.396 542.874C345.06 542.874 336.059 533.82 336.076 531.487C336.108 527.086 337.677 526.516 339.892 530.101C341.05 531.974 342.892 534.316 343.987 535.307C345.919 537.056 346.103 537.01 350.269 533.741C352.63 531.889 355.831 529.258 357.383 527.895C358.935 526.531 361.41 524.921 362.883 524.316C365.53 523.23 365.511 523.209 361.284 522.53C357.46 521.915 357.116 521.64 358.032 519.928C358.596 518.875 360.07 517.819 361.309 517.58C363.243 517.208 363.172 517.127 360.811 517.01C359.146 516.928 358.061 516.305 358.061 515.433C358.061 513.686 359.402 512.79 363.474 511.817C365.965 511.221 365.403 511.058 360.561 510.971C357.261 510.911 352.97 510.421 351.025 509.881C344.603 508.096 336.061 497.874 336.061 491.973C336.061 490.401 335.434 489.874 333.561 489.874C331.537 489.874 331.061 489.38 331.061 487.28C331.061 485.528 331.71 484.517 333.061 484.164C334.99 483.659 335.913 481.874 334.245 481.874C333.02 481.874 328.752 473.848 329.558 473.058C329.942 472.682 331.482 473.836 332.981 475.624C334.48 477.412 336.011 478.874 336.384 478.874C336.756 478.874 337.061 477.047 337.061 474.815C337.061 472.364 337.457 471.001 338.061 471.374C338.611 471.714 339.061 473.99 339.061 476.433C339.061 478.876 339.511 480.874 340.061 480.874C340.611 480.874 341.061 481.774 341.061 482.874C341.061 483.985 340.394 484.874 339.561 484.874C337.053 484.874 338.191 490.973 342.307 499.595C343.644 502.394 350.248 504.629 359.734 505.493L366.907 506.147L366.352 502.01C365.913 498.735 366.114 497.874 367.316 497.874C368.348 497.874 369.05 499.313 369.509 502.374C370.161 506.72 370.303 506.874 373.679 506.874C380.503 506.874 386.192 504.717 390.572 500.469C394.484 496.675 394.877 495.801 395.927 488.583C396.551 484.298 397.061 479.011 397.061 476.833V472.874H392.618C389.144 472.874 387.831 472.383 386.599 470.624C385.182 468.602 385.178 468.261 386.563 467.249C387.41 466.63 389.781 465.85 391.832 465.515C395.368 464.94 395.656 464.602 397.391 459.011C400.367 449.42 403.065 448.045 403.054 456.124ZM206.353 454.912C205.738 456.541 205.597 457.874 206.039 457.874C206.861 457.874 208.438 452.918 207.814 452.294C207.625 452.105 206.968 453.283 206.353 454.912ZM392.619 458.374C393.086 460.374 392.986 461.041 392.319 460.374C391.769 459.824 391.004 458.024 390.619 456.374C390.153 454.374 390.253 453.707 390.919 454.374C391.469 454.924 392.234 456.724 392.619 458.374ZM291.066 457.568C291.063 458.225 292.172 460.025 293.529 461.568C296.74 465.217 296.74 463.29 293.53 459.374C292.178 457.724 291.069 456.911 291.066 457.568ZM283.28 458.374C284.272 461.25 286.489 464.874 287.257 464.874C287.738 464.874 287.699 464.086 287.169 463.124C285.916 460.843 282.833 457.079 283.28 458.374ZM375.459 461.201C380.053 467.379 376.603 492.135 370.943 493.615C369.908 493.886 369.061 494.73 369.061 495.491C369.061 501.489 354.659 483.287 352.092 474.044C350.489 468.276 350.854 465.973 353.811 463.195C357.935 459.321 361.966 457.881 367.959 458.14C372.583 458.34 373.659 458.779 375.459 461.201ZM353.422 470.376C352.604 472.508 353.708 476.222 355.986 478.998C357.572 480.93 358.274 481.168 359.748 480.272C362.304 478.718 362.423 475.906 360.093 472.124C357.968 468.675 354.43 467.748 353.422 470.376ZM367.328 470.124C364.344 473.938 365.451 479.874 369.147 479.874C371.539 479.874 374.485 473.785 373.538 470.801C372.841 468.605 368.856 468.171 367.328 470.124ZM185.793 472.124C187.277 474.021 189.066 479.874 188.162 479.874C187.277 479.874 184.175 482.382 179.375 486.979C175.331 490.851 171.71 490.676 171.241 486.585C170.886 483.496 173.933 476.462 177.096 473.067C179.345 470.652 184.229 470.123 185.793 472.124ZM211.623 475.47C215.271 477.202 217.284 480.987 214.944 481.716C212.347 482.525 205.769 490.658 202.163 497.52C199.989 501.656 197.819 504.51 196.688 504.72C194.951 505.043 194.868 504.573 195.539 498.221C195.937 494.455 196.33 488.632 196.412 485.281C196.579 478.437 197.829 476.296 202.437 474.96C206.964 473.648 207.89 473.699 211.623 475.47ZM246.232 480.529C248.467 482.552 248.579 483.874 246.516 483.874C243.738 483.874 240.332 488.43 238.601 494.46C237.667 497.713 235.702 502.399 234.232 504.874C232.763 507.349 231.238 510.162 230.843 511.124C230.428 512.136 229.066 512.874 227.612 512.874C224.347 512.874 223.505 509.693 224.966 502.88C226.385 496.264 226.369 486.317 224.934 483.637C223.087 480.185 226.112 478.874 235.923 478.874C242.411 478.874 244.833 479.263 246.232 480.529ZM270.253 485.308C268.594 487.197 266.944 489.785 266.584 491.058C266.225 492.332 263.634 498 260.826 503.654C255.55 514.278 252.993 516.003 255.136 507.491C255.792 504.884 256.113 499.33 255.86 494.954L255.405 487.098L259.433 484.486C262.384 482.573 264.773 481.874 268.365 481.874H273.268L270.253 485.308ZM285.061 489.257C285.061 490.145 281.015 490.609 280.503 489.78C280.195 489.282 281.095 488.874 282.502 488.874C283.909 488.874 285.061 489.047 285.061 489.257ZM277.061 493.124C277.061 495.205 277.027 495.21 275.65 493.326C274.873 492.265 274.455 491.046 274.719 490.619C275.548 489.277 277.061 490.896 277.061 493.124ZM281.767 499.124C281.528 500.362 281.333 499.349 281.333 496.874C281.333 494.399 281.528 493.386 281.767 494.624C282.005 495.862 282.005 497.886 281.767 499.124ZM166.559 507.478C168.757 508.282 171.232 509.651 172.059 510.52C173.42 511.951 173.07 512.055 168.311 511.633C165.423 511.377 163.061 511.552 163.061 512.021C163.061 512.49 163.849 512.907 164.811 512.947C165.773 512.987 169.022 513.369 172.031 513.796C177.784 514.612 181.061 514.235 181.061 512.757C181.061 512.272 179.766 511.874 178.183 511.874C176.601 511.874 174.688 511.129 173.933 510.219C172.315 508.268 166.878 505.844 164.343 505.944C163.363 505.983 164.36 506.673 166.559 507.478ZM265.061 513.933C265.061 515.065 264.631 515.726 264.105 515.401C263.579 515.076 263.402 514.149 263.712 513.342C264.505 511.275 265.061 511.518 265.061 513.933ZM260.754 524.605C260.5 525.578 260.276 525.024 260.256 523.374C260.236 521.724 260.443 520.928 260.717 521.605C260.991 522.282 261.008 523.632 260.754 524.605ZM287.443 524.426C287.784 525.316 287.616 525.717 287.05 525.367C286.506 525.031 286.061 524.333 286.061 523.815C286.061 522.377 286.778 522.694 287.443 524.426ZM163.072 529.391C163.066 529.951 165.121 532.763 167.639 535.642L172.217 540.875L167.595 545.498C165.053 548.04 163.178 550.324 163.428 550.574C164.09 551.236 173.069 541.785 173.018 540.479C172.962 539.053 163.087 528.044 163.072 529.391ZM283.311 532.266C284.274 532.997 285.061 534.092 285.061 534.699C285.061 535.307 285.956 536.282 287.049 536.868C291.294 539.139 290.261 545.812 284.494 553.374C282.268 556.291 281.191 556.874 278.024 556.874C271.811 556.874 270.894 556.132 273.671 553.355C275.765 551.261 276.061 550.038 276.061 543.485C276.061 532.012 278.337 528.49 283.311 532.266ZM236.748 557.52C235.748 558.52 233.336 556.5 230.884 552.612C226.972 546.407 227.04 545.914 232.061 544.013L236.561 542.31L236.855 549.715C237.017 553.787 236.969 557.299 236.748 557.52ZM255.027 548.523C257.796 552.18 260.061 555.989 260.061 556.988C260.061 557.987 258.664 560.395 256.957 562.339C254.235 565.44 253.283 565.872 249.207 565.859C243.17 565.839 241.486 564.817 242.958 562.067C243.565 560.933 244.061 556.466 244.061 552.14C244.061 539.547 247.399 538.446 255.027 548.523ZM265.061 542.315C265.061 542.558 264.611 543.034 264.061 543.374C263.511 543.714 263.061 543.515 263.061 542.933C263.061 542.351 263.511 541.874 264.061 541.874C264.611 541.874 265.061 542.072 265.061 542.315ZM221.796 551.139C223.575 554.58 226.388 558.881 228.046 560.697C231.161 564.107 231.83 567.568 230.026 570.94C229.158 572.561 227.89 572.874 222.192 572.874C218.454 572.874 215.118 572.597 214.78 572.259C214.442 571.921 214.899 570.525 215.795 569.157C217.298 566.863 217.299 566.191 215.813 560.522C213.858 553.066 214.449 544.872 216.941 544.878C217.915 544.88 219.851 547.376 221.796 551.139ZM269.061 546.874C269.061 547.974 268.611 548.874 268.061 548.874C267.511 548.874 267.061 547.974 267.061 546.874C267.061 545.774 267.511 544.874 268.061 544.874C268.611 544.874 269.061 545.774 269.061 546.874ZM187.366 553.939C182.841 555.65 183.425 564.874 188.058 564.874C189.819 564.874 191.061 561.331 191.061 556.308C191.061 553.436 190.184 552.873 187.366 553.939ZM373.509 556.56C371.888 557.887 369.661 559.474 368.561 560.087C366.772 561.084 366.705 561.027 367.923 559.55C369.79 557.287 368.625 554.161 366.554 555.879C365.739 556.556 364.186 556.878 363.103 556.595C362.02 556.312 360.613 556.709 359.975 557.477C358.573 559.166 356.37 559.302 355.847 557.731C355.278 556.025 351.651 558.237 349.067 561.865C346.068 566.077 347.336 567.284 352.17 564.818L356.17 562.778L354.697 565.076C353.537 566.886 353.149 571.929 353.951 574.761C354.012 574.974 356.292 573.061 359.018 570.511C361.745 567.961 364.21 565.874 364.497 565.874C364.783 565.874 364.506 566.999 363.879 568.374C363.253 569.749 362.362 570.874 361.9 570.874C361.439 570.874 361.061 571.549 361.061 572.374C361.061 574.764 362.753 574.146 367.219 570.124C370.096 567.533 371.025 567.049 370.222 568.558C367.508 573.664 369.465 574.215 374.526 569.77C378.243 566.507 379.13 566.903 376.503 570.653C375.646 571.877 375.273 573.409 375.675 574.058C376.151 574.829 378.635 572.832 382.828 568.306C386.361 564.494 388.92 562.274 388.515 563.374C385.85 570.609 387.846 573.865 390.814 567.124C392.283 563.786 392.506 563.628 392.84 565.682C393.447 569.415 395.561 567.558 395.561 563.291C395.561 560.174 395.203 559.402 393.811 559.513C392.848 559.589 392.061 559.027 392.061 558.263C392.061 556.558 388.901 556.434 387.261 558.074C386.601 558.734 386.061 558.907 386.061 558.459C386.061 558.011 384.936 558.381 383.561 559.282C380.872 561.044 380.082 559.931 382.561 557.874C385.224 555.664 384.286 554.147 380.259 554.147C377.721 554.147 375.477 554.949 373.509 556.56ZM189.061 558.874C189.061 561.763 188.644 562.874 187.561 562.874C186.52 562.874 186.061 561.828 186.061 559.457C186.061 556.589 186.641 555.638 188.811 554.953C188.949 554.91 189.061 556.674 189.061 558.874ZM303.046 564.389C301.189 566.306 300.123 567.874 300.678 567.874C301.97 567.874 307.578 562.057 306.92 561.399C306.647 561.127 304.904 562.472 303.046 564.389ZM170.039 568.57C166.746 573.762 166.495 574.908 168.261 576.674C170.568 578.981 172.808 578.037 173.476 574.475C173.827 572.605 175.213 569.455 176.557 567.475L179.001 563.874H176.009C173.534 563.874 172.502 564.685 170.039 568.57ZM174.034 569.124C172.973 571.461 172.095 574.199 172.083 575.207C172.052 577.754 169.635 576.722 169.234 573.991C168.908 571.768 173.316 564.874 175.063 564.874C175.558 564.874 175.095 566.787 174.034 569.124ZM310.061 566.874C308.686 567.95 308.074 568.84 308.7 568.852C309.327 568.864 310.902 567.989 312.2 566.907C315.272 564.348 313.329 564.318 310.061 566.874Z" fill="black"/>
<path d="M489.561 467.289C490.446 467.445 491.33 467.601 492.215 467.757C492.777 467.857 493.578 468.162 494.105 467.837C494.566 467.552 495.292 467.418 495.598 466.887C495.948 466.28 496.203 465.618 496.324 464.928C496.378 464.62 496.433 464.312 496.487 464.005C496.557 463.61 496.306 463.644 496.226 463.324C496.093 462.788 495.631 462.184 495.084 462.044C494.127 461.798 493.144 461.336 492.146 461.272C491.7 461.243 490.746 462.261 490.464 462.569C489.946 463.135 489.659 463.945 489.301 464.606C488.76 465.606 488.362 467.003 488.677 468.149C489.01 469.364 489.159 471.851 490.755 472.196C492.045 472.475 493.301 472.899 494.624 473.132" stroke="#F25CBE" stroke-width="4" stroke-linecap="round"/>
<path d="M506.52 464.695C505.618 464.536 504.642 464.318 503.827 464.855C502.831 465.51 502.163 466.355 501.49 467.306C500.815 468.26 500.881 469.043 502.018 469.514C502.952 469.902 504.218 470.464 504.973 471.149C505.501 471.628 506.114 472.32 506.291 473.032C506.461 473.716 505.692 474.146 505.293 474.534C504.724 475.088 503.986 474.965 503.273 475.193C502.446 475.458 501.957 475.441 501.098 475.289" stroke="#F25CBE" stroke-width="4" stroke-linecap="round"/>
<path d="M481.901 471.143C482.032 470.491 482.496 469.924 482.606 469.3C482.739 468.546 482.917 467.834 483.242 467.134C483.658 466.239 483.827 465.256 484 464.278C484.113 463.635 484.345 463.039 484.459 462.391C484.542 461.921 484.668 461.096 484.578 460.635C484.484 460.152 484.458 459.73 484.248 459.273C484.014 458.765 483.558 458.661 483.243 458.334C482.379 457.438 480.316 459.304 479.842 459.864C478.918 460.955 477.922 462.344 477.618 463.759C477.499 464.313 477.174 464.835 477.075 465.398C476.98 465.934 476.886 466.469 476.792 467.005C476.763 467.167 476.613 468.017 476.661 467.744C476.755 467.21 476.849 466.677 476.943 466.143C477.3 464.12 478.393 462.186 478.514 460.074C478.55 459.46 478.341 457.799 477.863 457.329C477.608 457.078 477.493 456.6 477.22 456.299C477.059 456.121 476.204 455.962 475.981 456.087C475.022 456.625 473.409 457.262 472.844 458.277C472.519 458.863 472.371 459.486 472.108 460.094C471.77 460.876 471.8 461.824 471.419 462.56C470.515 464.308 470.549 466.416 470.213 468.32" stroke="#F25CBE" stroke-width="4" stroke-linecap="round"/>
<path d="M477.223 466.002C477.177 466.227 477.045 466.871 476.803 466.944" stroke="#F25CBE" stroke-width="4" stroke-linecap="round"/>
<path d="M465.122 465.519C464.122 464.44 463.969 463.42 464.221 461.989C464.497 460.426 465.013 458.94 465.291 457.362C465.469 456.353 465.153 454.947 464.319 454.236C463.861 453.845 463.691 453.589 463.002 453.467C462.26 453.337 461.544 453.13 460.798 453.333C459.137 453.784 458.066 455.1 457.304 456.588C456.427 458.303 455.347 460.257 456.797 461.942C457.353 462.588 458.45 462.723 459.215 462.947C459.713 463.093 460.483 463.233 460.978 463.11C461.88 462.885 462.631 462.215 463.167 461.493" stroke="#F25CBE" stroke-width="4" stroke-linecap="round"/>
<path d="M443.051 454.646C442.872 455.772 442.801 457.721 443.771 458.517C444.963 459.494 446.663 459.374 448.1 459.845C449.142 460.186 449.953 459.14 450.591 458.514C451.689 457.437 452.032 455.877 452.567 454.504C453.137 453.045 453.752 451.614 454.255 450.134C454.559 449.238 454.952 448.341 455.116 447.409C455.184 447.02 455.173 446.295 455.432 445.977C455.629 445.734 455.625 445.243 455.678 444.941C455.762 444.462 455.952 444.001 456.057 443.513C456.136 443.144 456.475 441.555 456.8 441.458" stroke="#F25CBE" stroke-width="4" stroke-linecap="round"/>
<path d="M61.7702 330.644C62.4875 332.191 62.2985 333.918 62.747 335.514C62.8619 335.923 63.4844 337.233 63.2111 337.59" stroke="#F25CBE" stroke-width="4" stroke-linecap="round"/>
<path d="M60.7157 324.205C60.6205 322.374 62.6582 323.814 61.2719 324.49" stroke="#F25CBE" stroke-width="4" stroke-linecap="round"/>
<path d="M71.9986 336.503C71.9734 336.089 72.0276 335.791 72.0871 335.401C72.1368 335.077 71.959 334.782 71.9753 334.459C71.9993 333.983 71.8358 333.442 71.7726 332.966C71.5533 331.315 71.2271 329.67 71.0513 328.002C70.9092 326.654 70.8056 325.34 70.5567 323.994C70.475 323.552 70.119 321.945 70.413 321.561" stroke="#F25CBE" stroke-width="4" stroke-linecap="round"/>
<path d="M71.6797 329.288C72.9236 330.685 74.3881 331.68 75.6868 333.005C76.429 333.762 77.7512 334.323 78.2173 335.278" stroke="#F25CBE" stroke-width="4" stroke-linecap="round"/>
<path d="M72.4568 329.743C72.5514 328.897 72.7695 328.478 73.5289 328.107C73.8652 327.943 73.8627 327.591 74.0584 327.324C74.5454 326.66 75.0791 325.967 75.643 325.377C76.1294 324.867 76.5822 324.261 77.032 323.726C77.3745 323.318 77.6595 322.477 78.1211 322.252" stroke="#F25CBE" stroke-width="4" stroke-linecap="round"/>
<path d="M87.1806 327.708C88.7075 327.276 90.2666 327.315 91.6885 326.622C93.2092 325.88 93.7863 324.786 92.927 323.236C92.6545 322.745 91.643 322.607 91.1459 322.436C90.5329 322.225 90.0039 321.817 89.3649 321.636C88.4056 321.364 86.959 322.06 86.2856 322.72C85.704 323.291 85.5554 324.083 85.3578 324.842C85.1093 325.796 84.4594 326.66 84.5347 327.685C84.6735 329.575 85.5773 331.625 87.1904 332.702C88.2606 333.417 89.5214 332.964 90.6781 333.025C91.5934 333.074 92.5172 332.456 93.395 332.465" stroke="#F25CBE" stroke-width="4" stroke-linecap="round"/>
<path d="M39.1749 340.775C38.0391 338.446 38.1558 335.653 38.0609 333.121C38.0137 331.86 38.0119 330.612 38.0158 329.353C38.0169 328.967 37.9703 328.441 38.0828 328.065C38.2495 327.507 38.3856 326.884 38.4744 326.309C38.5363 325.908 38.5398 325.492 38.6803 325.108C38.7899 324.808 39.092 324.487 39.1567 324.199C39.1827 324.083 39.4689 324.024 39.5573 324.054C40.0306 324.217 40.3632 324.899 40.6229 325.28C41.1935 326.118 41.7171 326.972 42.3156 327.793C43.1155 328.889 43.7611 330.074 44.2403 331.343C44.4711 331.954 44.7522 332.535 45.0381 333.121C45.1252 333.3 45.2273 333.478 45.2889 333.667C45.3336 333.805 45.3217 334.136 45.439 333.88C45.9337 332.802 46.5252 331.777 46.8934 330.644C47.0905 330.037 47.1084 329.408 47.2161 328.779C47.3228 328.156 47.4919 327.48 47.6976 326.883C47.8456 326.453 47.8909 325.964 48.1051 325.564C48.2698 325.256 48.4542 324.959 48.628 324.656C48.972 324.056 49.2256 323.375 49.501 322.739C49.8019 322.044 50.2033 323.257 50.3551 323.524C50.8141 324.33 51.2226 325.199 51.5974 326.047C51.9731 326.897 52.0898 327.774 52.2859 328.671C52.6961 330.546 53.1816 332.402 53.4789 334.301C53.6308 335.271 53.8771 336.237 54.0808 337.198C54.189 337.709 53.9701 338.318 54.2048 338.799" stroke="#F25CBE" stroke-width="4" stroke-linecap="round"/>
<path d="M74.5 350C81.5459 355.203 88.8647 355.357 97.25 356.028C104.474 356.606 111.261 356.605 118.444 355.5C124.574 354.557 127.717 351.286 131.75 346.778C133.46 344.867 134.922 343.259 136.111 341C136.569 340.131 137.487 338.611 138.25 338C138.575 337.74 133.956 337 133 337C131.026 337 128.656 337.376 126.778 336.75C124.787 336.086 130.91 336.958 131.778 337.111C134.489 337.59 139 336.745 139 340.389C139 344.593 139 348.796 139 353" stroke="#F25CBE" stroke-width="4" stroke-linecap="round"/>
<path d="M412.407 154.849C412.725 155.721 412.957 157.058 413.549 157.782C414.14 158.504 414.595 159.329 415.063 160.135C415.881 161.545 416.426 163.061 417.331 164.438C417.78 165.121 417.971 166.116 418.253 166.889C418.466 167.476 418.837 165.523 418.837 165.205C418.837 164.076 419.007 162.745 419.302 161.651C419.631 160.431 419.559 159.144 419.918 157.961C420.237 156.908 420.473 155.828 420.611 154.731C420.692 154.096 420.947 153.499 421.014 152.914" stroke="#F25CBE" stroke-width="4" stroke-linecap="round"/>
<path d="M427.508 157.6C427.761 158.296 427.975 158.972 428.075 159.707C428.134 160.141 428.012 160.565 428.077 160.992C428.185 161.7 428.104 162.45 428.322 163.127C428.481 163.619 428.453 164.237 428.52 164.748C428.596 165.322 428.796 165.848 428.856 166.421" stroke="#F25CBE" stroke-width="4" stroke-linecap="round"/>
<path d="M427.795 152.175C427.364 151.458 427.425 150.951 428.318 151.054" stroke="#F25CBE" stroke-width="4" stroke-linecap="round"/>
<path d="M435.477 165.608C434.63 163.28 434.201 161.114 434.133 158.647C434.101 157.443 434.57 157 435.501 156.354C436.386 155.74 437.132 154.916 438.287 154.771C439.492 154.618 441.053 156.139 441.65 157.065C442.301 158.076 442.586 159.222 442.889 160.368C443.135 161.3 443.565 162.136 443.614 163.111C443.642 163.675 443.768 164.265 443.956 164.783" stroke="#F25CBE" stroke-width="4" stroke-linecap="round"/>
<path d="M451.567 152.435C448.818 154.179 448.486 158.651 449.897 161.35C450.96 163.383 453.859 162.908 455.553 162.291" stroke="#F25CBE" stroke-width="4" stroke-linecap="round"/>
<path d="M451.418 152.755C452.044 152.379 452.972 151.626 453.777 151.764C454.373 151.866 454.966 152.376 455.562 152.444" stroke="#F25CBE" stroke-width="4" stroke-linecap="round"/>
<path d="M463.391 156.778C464.868 156.24 466.416 156.169 467.865 155.549C468.835 155.133 468.492 153.25 468.226 152.52C467.893 151.604 467.172 151.493 466.586 150.856C465.888 150.098 463.902 150.872 463.224 151.385C461.912 152.377 461.406 153.399 461.367 155.054C461.341 156.143 461.411 157.176 461.474 158.274C461.524 159.129 461.744 160.996 462.48 161.566C463.645 162.467 465.538 162.116 466.826 161.647C467.812 161.288 468.854 161.042 469.864 160.674" stroke="#F25CBE" stroke-width="4" stroke-linecap="round"/>
<path d="M403.5 218C408.456 218 412.755 218.326 417.278 216C419.815 214.695 422.463 213.283 424.778 211.611C429.877 207.928 433.76 204.291 437.25 199.25C439.457 196.062 439.5 189.982 439.5 186.278C439.5 182.978 440 179.86 440 176.5" stroke="#F25CBE" stroke-width="4" stroke-linecap="round"/>
<path d="M402.5 219C405.181 222.539 408.067 225.351 410.5 229" stroke="#F25CBE" stroke-width="4" stroke-linecap="round"/>
<path d="M402.5 217C405.516 214.715 407.699 210.151 411 208.5" stroke="#F25CBE" stroke-width="4" stroke-linecap="round"/>
<path d="M425.5 502C433.896 502 443.938 502.825 451.111 497.778C454.464 495.418 456.931 492.589 459.611 489.611C460.973 488.098 461.222 485.686 462.389 484.389C463.684 482.95 463.808 480.346 465.5 479.5" stroke="#F25CBE" stroke-width="4" stroke-linecap="round"/>
<path d="M428.499 492.5C426.54 494.994 424.925 497.843 423.11 500.111C421.977 501.528 423.942 503.237 425.277 504C426.781 504.859 427.334 507.368 428.749 508.5C429.428 509.043 431.072 511.146 431.499 512" stroke="#F25CBE" stroke-width="4" stroke-linecap="round"/>
</svg>
