<svg width="1800" height="1600" viewBox="0 0 1800 1600" fill="none" xmlns="http://www.w3.org/2000/svg">
<path d="M1596.3 669.837C1612.98 672.809 1629.17 682.519 1646.46 682.519C1667.9 682.519 1680.29 672.394 1692.68 657.859C1701.24 647.81 1705.88 630.432 1705.88 617.699C1705.88 607.617 1708.13 595.81 1703.14 586.698C1701.04 582.867 1697.99 579.527 1694.31 576.834C1690.94 574.375 1690.15 569.833 1687.36 566.97C1675.99 555.292 1659.63 545.833 1641.83 545.833C1632.71 545.833 1626.41 546.583 1617.9 549.355C1609.11 552.224 1602.53 559.037 1595.52 564.151C1589.07 568.868 1581.43 577.065 1578.12 583.879C1572.82 594.75 1579.37 609.074 1575.89 620.204C1570.66 636.903 1575.25 658.822 1593.21 667.018" stroke="black" stroke-width="13.5" stroke-linecap="round"/>
<path d="M1627.16 671.245C1627.16 646.787 1640.36 628.491 1649.12 606.111C1652.47 597.527 1657.48 589.441 1660.78 580.747C1662.29 576.754 1664.37 564.15 1668.84 564.15" stroke="black" stroke-width="13.5" stroke-linecap="round"/>
<path d="M1614.36 751.706C1577.48 766.999 1574.92 812.149 1578.93 846.205C1580.58 860.235 1595.9 876.246 1608.55 879.861C1624.92 884.539 1642.01 882.597 1658.24 881.642C1671.07 880.888 1684.16 865.573 1691.14 855.486C1702.46 839.137 1703.8 821.794 1703.8 802.331C1703.8 785.999 1691.58 772.111 1679.33 762.581C1671.5 756.493 1661.55 751.706 1651.49 751.706C1644.59 751.706 1636.75 746.644 1629.55 746.644" stroke="black" stroke-width="13.5" stroke-linecap="round"/>
<path d="M1607.61 766.894C1613.05 773.848 1623.07 777.842 1626.18 786.393C1629.79 796.346 1638.7 804.329 1642.21 814.143C1645.09 822.202 1650.07 829.234 1653.18 837.393C1655.78 844.228 1655.27 852.076 1658.24 858.018" stroke="black" stroke-width="13.5" stroke-linecap="round"/>
<path d="M1562.05 1021.7C1562.05 1054.52 1563.74 1086.71 1563.74 1119.58C1563.74 1127.98 1563.74 1136.39 1563.74 1144.8C1563.74 1153.54 1563.28 1165.69 1560.74 1173.95C1555.92 1189.6 1563.74 1208.63 1563.74 1224.2C1563.74 1234.28 1563.92 1243.85 1562.14 1253.64C1560.74 1261.33 1561.85 1270.63 1567.11 1276.51C1572.29 1282.3 1573.03 1283.26 1581.36 1283.26C1588.34 1283.26 1596.51 1282.17 1603.3 1283.64C1614.85 1286.14 1628.65 1281.86 1639.67 1285.8C1647.37 1288.55 1659.19 1286.87 1667.42 1286.64C1675 1286.43 1682.05 1281.58 1689.45 1281.58C1697.88 1281.58 1700.34 1274.03 1702.95 1267.23C1707.17 1256.27 1705.35 1242.34 1708.86 1230.76C1712.72 1218.06 1712.23 1202.75 1712.23 1189.42C1712.23 1179.57 1710.55 1169.59 1710.55 1160.08C1710.55 1145.87 1710.57 1128.18 1706.33 1114.61C1703.42 1105.3 1708.86 1097.71 1708.86 1089.2C1708.86 1076.2 1708.86 1063.2 1708.86 1050.2C1708.86 1033.14 1708.86 1016.08 1708.86 999.017C1708.86 967.558 1650.43 987.954 1632.08 987.954C1613.37 987.954 1565.42 984.189 1565.42 1013.27" stroke="black" stroke-width="13.5" stroke-linecap="round"/>
<path d="M1604.24 1283.26C1604.24 1256.83 1604.24 1230.39 1604.24 1203.95C1604.24 1193.64 1607.61 1183.57 1607.61 1172.83C1607.61 1160.7 1607.61 1148.58 1607.61 1136.45C1607.61 1088.07 1609.3 1039.48 1609.3 991.329" stroke="black" stroke-width="13.5" stroke-linecap="round"/>
<path d="M1653.18 1281.58C1653.18 1229.51 1659.93 1178.15 1659.93 1125.95C1659.93 1114.95 1660.64 1103.91 1659.93 1093.89C1659.38 1086.2 1656.55 1079.27 1656.55 1071.48C1656.55 1064.73 1656.55 1057.98 1656.55 1051.23C1656.55 1041.67 1656.55 1032.11 1656.55 1022.55C1656.55 1009.57 1659.93 997.426 1659.93 984.579" stroke="black" stroke-width="13.5" stroke-linecap="round"/>
<path d="M117.562 863.08C117.562 792.138 120.937 719.306 120.937 647.925C120.937 615.889 119.25 585.549 119.25 553.426C119.25 538.699 118.808 529.648 130.219 520.52C139.652 512.973 161.262 517.145 173.25 517.145" stroke="black" stroke-width="13.5" stroke-linecap="round"/>
<path d="M173.25 517.145C195.149 517.145 216.917 518.832 239.062 518.832C257.99 518.832 277.233 517.145 296.437 517.145C307.686 517.145 318.936 517.145 330.186 517.145C342.962 517.145 355.293 513.77 368.061 513.77C401.779 513.77 435.498 513.77 469.216 513.77C497.666 513.77 526.241 512.351 554.622 513.77C585.498 515.314 616.39 515.457 647.528 515.457C683.496 515.457 719.464 515.457 755.433 515.457C782.031 515.457 808.453 513.77 834.932 513.77C858.333 513.77 881.671 510.395 904.869 510.395C936.314 510.395 967.213 513.77 998.619 513.77C1039.37 513.77 1080.12 513.77 1120.87 513.77C1196.66 513.77 1272.58 515.457 1348.49 515.457C1400.99 515.457 1405.8 517.145 1458.27 517.145C1469.5 517.145 1490.32 513.106 1495.86 525.582C1498.94 532.505 1497.93 540.891 1497.93 548.363C1497.93 555.658 1499.61 562.51 1499.61 569.457" stroke="black" stroke-width="13.5" stroke-linecap="round"/>
<path d="M1501.3 577.895C1501.3 607.832 1501.3 637.769 1501.3 667.706C1501.3 678.944 1506.36 688.655 1506.36 700.144C1506.36 715.081 1506.36 730.018 1506.36 744.956C1506.36 816.187 1504.68 887.634 1504.68 958.704C1504.68 991.377 1503.66 1022.16 1498.3 1054.33C1496.09 1067.62 1497.93 1082.55 1497.93 1096.05C1497.93 1115.27 1497.93 1134.48 1497.93 1153.7C1497.93 1199.73 1494.55 1245.81 1494.55 1291.7" stroke="black" stroke-width="13.5" stroke-linecap="round"/>
<path d="M24.75 903.579C24.75 866.782 23.0625 830.054 23.0625 793.049C23.0625 748.301 26.4374 704.402 26.4374 659.831C26.4374 632.519 26.4374 605.207 26.4374 577.894C26.4374 565.68 24.75 553.585 24.75 541.52C24.75 532.902 25.3651 523.938 23.1562 516.207C20.8513 508.14 22.8157 500.003 21 491.832C19.6116 485.585 18 478.768 18 472.426C18 456.52 17.9458 446.693 29.8124 436.145C40.7702 426.405 55.8193 422.243 70.3121 422.645C82.7149 422.99 95.1568 426.02 107.624 426.02C126.062 426.02 144.499 426.02 162.936 426.02C241.724 426.02 320.085 420.958 398.997 420.958C493.204 420.958 587.578 422.645 681.651 422.645C711.87 422.645 742.088 422.645 772.307 422.645C797.373 422.645 822.11 426.02 847.119 426.02C893.156 426.02 939.105 424.333 985.211 424.333C1019.82 424.333 1054.05 421.624 1088.43 418.895C1114.23 416.848 1139.71 414.208 1165.58 414.208C1183.06 414.208 1199.24 420.566 1216.49 420.958C1230.04 421.266 1243.78 422.645 1257.55 422.645C1283.71 422.645 1309.86 422.645 1336.02 422.645C1360.53 422.645 1388.04 418.987 1412.24 423.02C1451.9 429.63 1493.37 420.615 1533.36 426.864C1566.41 432.028 1601.25 429.395 1634.61 429.395C1660.97 429.395 1688.07 431.083 1713.92 431.083C1728.15 431.083 1746.62 432.747 1759.49 439.895C1774.02 447.972 1769.61 465.445 1769.61 479.926C1769.61 493.184 1772.42 503.824 1774.3 516.77C1776.99 535.292 1776.36 554.233 1776.36 572.926C1776.36 590.383 1774.67 608.281 1774.67 626.081C1774.67 643.193 1778.05 660.208 1778.05 677.081C1778.05 754.268 1778.05 831.455 1778.05 908.642C1778.05 933.274 1776.36 957.666 1776.36 982.047C1776.36 1006.77 1776.36 1031.48 1776.36 1056.2C1776.36 1067.18 1777.05 1078.36 1776.27 1089.3C1775.55 1099.29 1771.57 1108.88 1771.3 1118.83C1770.54 1147.02 1774.67 1175.11 1774.67 1203.2C1774.67 1226.24 1771.3 1248.4 1771.3 1271.45" stroke="black" stroke-width="13.5" stroke-linecap="round"/>
<path d="M738.559 410.833C742.119 401.488 741.254 392.692 745.684 383.833C748.088 379.024 752.507 374.197 756.371 370.333C769.754 356.95 781.488 344.347 797.996 334.521C816.203 323.683 833.026 314.646 854.995 314.646C881.797 314.646 908.848 312.959 935.807 312.959C944.568 312.959 953.611 312.293 962.338 313.052C972.127 313.904 981.698 321.482 990.744 324.771C1003.38 329.366 1014.59 338.4 1026.18 345.021C1036.75 351.061 1039.81 374.171 1046.43 384.583C1049.01 388.628 1048.95 395.108 1051.59 399.864C1055.01 406.024 1057.49 413.913 1057.49 420.958" stroke="black" stroke-width="13.5" stroke-linecap="round"/>
<path d="M115.876 856.33C115.876 875.704 115.876 895.079 115.876 914.454C115.876 939.623 112.501 963.949 112.501 988.985C112.501 996.32 111.684 1004.2 112.594 1011.48C113.107 1015.58 115.876 1018.24 115.876 1022.55C115.876 1030.66 114.188 1038.63 114.188 1047.02C114.188 1075.41 115.876 1104.18 115.876 1132.8C115.876 1144.69 117.563 1155.95 117.563 1167.67C117.563 1182.01 114.214 1200.57 118.407 1213.98C123.898 1231.56 132.751 1250.03 132.751 1268.08C132.751 1275.18 131.063 1281.42 131.063 1288.33C131.063 1298.68 132.98 1301.02 142.032 1306.04C145.458 1307.95 150.986 1306.89 154.782 1306.89C162.117 1306.89 169.249 1308.58 176.625 1308.58C195.313 1308.58 214 1308.58 232.687 1308.58C434.092 1308.58 636.452 1310.26 838.214 1310.26C959.119 1310.26 1080.02 1310.26 1200.93 1310.26C1275.68 1310.26 1350.43 1310.26 1425.18 1310.26C1441.83 1310.26 1458.49 1310.26 1475.15 1310.26C1482.69 1310.26 1492.86 1315.96 1492.86 1305.2" stroke="black" stroke-width="13.5" stroke-linecap="round"/>
<path d="M23.0629 888.392C23.0629 923.861 23.0629 959.329 23.0629 994.798C23.0629 1008.25 22.448 1022.77 24.8442 1035.95C29.2671 1060.28 24.7504 1086.37 24.7504 1111.23C24.7504 1132.23 24.7504 1153.23 24.7504 1174.23C24.7504 1196.78 28.1254 1219.44 28.1254 1241.92C28.1254 1255.14 28.1254 1268.36 28.1254 1281.58C28.1254 1296.75 31.5004 1311.19 31.5004 1326.29C31.5004 1345.14 31.5004 1363.98 31.5004 1382.83C31.5004 1390.65 39.0172 1387.23 45.0002 1389.95C52.0491 1393.15 59.3578 1395.85 66.9376 1397.64C78.9431 1400.46 91.7281 1399.7 104.062 1399.7C151.633 1399.7 198.333 1403.08 245.999 1403.08C308.62 1403.08 371.253 1403.48 433.872 1403.08C789.605 1400.77 1145.5 1401.39 1501.21 1401.39C1541.18 1401.39 1581.14 1401.39 1621.11 1401.39C1640.61 1401.39 1660.11 1401.39 1679.61 1401.39C1695.58 1401.39 1713.28 1399.28 1729.11 1401.76C1742.32 1403.84 1779.74 1410.35 1779.74 1389.58C1779.74 1366.09 1781.42 1342.43 1781.42 1318.7C1781.42 1310.69 1782.51 1302.16 1779.36 1295.08C1775.84 1287.15 1776.36 1280.14 1776.36 1271.45" stroke="black" stroke-width="13.5" stroke-linecap="round"/>
<path d="M770.618 345.151C755.729 342.72 745.544 332.998 731.056 329.589C719.604 326.894 707.868 323.004 697.119 319.933C690.546 318.055 680.605 308.439 673.306 312.527C659.925 320.02 645.416 325.384 632.338 333.433C625.527 337.624 619.686 343.291 612.932 347.589C606.954 351.393 601.714 361.127 598.869 351.526C592.813 331.086 599.944 308.479 595.963 287.777C594.859 282.034 596.379 253.676 590.057 254.027C573.839 254.928 556.533 259.089 540.276 259.089C530.395 259.089 516.394 256.768 509.995 264.996C502.673 274.41 498.075 276.904 484.683 278.964C471.581 280.98 454.126 278.975 447.558 265.839C442.026 254.775 458.286 239.843 467.808 237.527C478.486 234.93 499.216 234.63 502.214 248.121C505.951 264.938 490.642 264.152 477.745 264.152C475.422 264.152 466.502 265.522 465.183 263.214C463.394 260.084 461.252 249.408 464.714 247.277C476.913 239.77 492.39 240.008 485.433 257.402" stroke="black" stroke-width="13.5" stroke-linecap="round"/>
<path d="M981.555 311.402C985.033 303.013 991.886 296.813 994.68 288.152C997.464 279.52 999.863 270.518 1002.18 261.715C1004.76 251.913 1009.4 242.197 1013.62 233.027C1016.26 227.266 1015.71 220.906 1019.05 215.215C1022.99 208.53 1056.77 221.965 1064.24 221.965C1066.94 221.965 1073.28 225.681 1075.68 223.278C1080.93 218.028 1080.58 199.456 1082.8 192.528C1088.33 175.321 1092.97 157.007 1100.99 140.966C1107.91 127.134 1081.77 113.553 1075.3 105.153C1070.41 98.7937 1057.07 93.8795 1068.37 87.3411C1078.17 81.6652 1090.12 75.7278 1098.37 68.0287C1102.36 64.3006 1106.28 60.0153 1111.49 58.2788" stroke="black" stroke-width="13.5" stroke-linecap="round"/>
<path d="M1118.24 58.2782C1125.83 63.7959 1132.52 64.7324 1141.02 66.6219C1149.74 68.5586 1151.51 63.3514 1156.12 57.4344C1163.86 47.4799 1151.82 30.506 1143.55 26.5909C1137.37 23.6638 1126.85 22.7942 1120.87 26.2159C1116.86 28.5068 1113.6 40.0525 1117.4 43.0908C1121.97 46.748 1126.05 50.3096 1131.74 52.8407C1138.34 55.775 1141.53 47.1409 1136.8 44.7783" stroke="black" stroke-width="13.5" stroke-linecap="round"/>
<path d="M146.25 1544.29C146.25 1522.64 150.469 1500.84 150.469 1478.95C150.469 1464.86 156.375 1451.17 156.375 1437.14C156.375 1428.83 154.687 1420.9 154.687 1412.67C154.687 1407.57 155.205 1406.76 160.453 1406.76C173.88 1406.76 187.18 1406.51 200.531 1405.87C209.585 1405.44 218.468 1405.07 227.531 1405.07C232.999 1405.07 238.468 1405.07 243.937 1405.07C245.232 1405.07 247.468 1404.64 248.671 1405.12C249.075 1405.28 244.609 1410.72 244.124 1411.45C241.778 1414.97 239.339 1418.49 237.187 1422.14C234.5 1426.68 231.927 1430.78 229.593 1435.45C227.028 1440.58 222.477 1446.52 222.187 1452.32C221.793 1460.2 216.192 1465.64 213.281 1472.39C207.5 1485.77 200.352 1499.56 192.187 1511.43C188.083 1517.4 184.922 1522.61 182.062 1529.15C180.97 1531.65 179.941 1538.43 177.89 1540.07C174.685 1542.64 169.351 1543.33 165.281 1543.45C164.404 1543.47 160.137 1545.31 159.797 1543.78C158.832 1539.43 159.859 1533.89 160.406 1529.57C161.921 1517.62 169.925 1510.21 176.812 1501.26C180.234 1496.81 185.026 1492.8 187.547 1487.76C190.003 1482.85 190.686 1476.44 192.656 1471.17C195.859 1462.6 199.906 1454.62 204.281 1446.6C206.46 1442.61 209.223 1435.44 212.906 1432.54C213.142 1432.36 215.912 1428.7 215.906 1428.7C214.346 1427.14 204.092 1427.85 201.656 1427.85C191.48 1427.85 182.504 1428.53 172.875 1431.28C170.307 1432.01 172.406 1470.06 172.406 1475.01C172.406 1476.85 172.857 1493.76 170.062 1493.76C168.386 1493.76 171.162 1479.38 171.609 1478.01C174.218 1470.02 179.595 1462.39 183.75 1455.14C191.031 1442.43 197.279 1427.79 211.874 1422.14C213.482 1421.51 219.197 1417.42 220.781 1417.87C221.078 1417.96 219.027 1422.15 218.812 1422.79" stroke="black" stroke-width="13.5" stroke-linecap="round"/>
<path d="M1652.68 1544.29C1652.68 1522.64 1648.46 1500.84 1648.46 1478.95C1648.46 1464.86 1642.56 1451.17 1642.56 1437.14C1642.56 1428.83 1644.25 1420.9 1644.25 1412.67C1644.25 1407.57 1643.73 1406.76 1638.48 1406.76C1625.05 1406.76 1611.75 1406.51 1598.4 1405.87C1589.35 1405.44 1580.47 1405.07 1571.4 1405.07C1565.93 1405.07 1560.47 1405.07 1555 1405.07C1553.7 1405.07 1551.47 1404.64 1550.26 1405.12C1549.86 1405.28 1554.32 1410.72 1554.81 1411.45C1557.16 1414.97 1559.6 1418.49 1561.75 1422.14C1564.43 1426.68 1567.01 1430.78 1569.34 1435.45C1571.91 1440.58 1576.46 1446.52 1576.75 1452.32C1577.14 1460.2 1582.74 1465.64 1585.65 1472.39C1591.43 1485.77 1598.58 1499.56 1606.75 1511.43C1610.85 1517.4 1614.01 1522.61 1616.87 1529.15C1617.96 1531.65 1618.99 1538.43 1621.04 1540.07C1624.25 1542.64 1629.58 1543.33 1633.65 1543.45C1634.53 1543.47 1638.8 1545.31 1639.14 1543.78C1640.1 1539.43 1639.07 1533.89 1638.53 1529.57C1637.01 1517.62 1629.01 1510.21 1622.12 1501.26C1618.7 1496.81 1613.91 1492.8 1611.39 1487.76C1608.93 1482.85 1608.25 1476.44 1606.28 1471.17C1603.07 1462.6 1599.03 1454.62 1594.65 1446.6C1592.47 1442.61 1589.71 1435.44 1586.03 1432.54C1585.79 1432.36 1583.02 1428.7 1583.03 1428.7C1584.59 1427.14 1594.84 1427.85 1597.28 1427.85C1607.45 1427.85 1616.43 1428.53 1626.06 1431.28C1628.63 1432.01 1626.53 1470.06 1626.53 1475.01C1626.53 1476.85 1626.08 1493.76 1628.87 1493.76C1630.55 1493.76 1627.77 1479.38 1627.32 1478.01C1624.72 1470.02 1619.34 1462.39 1615.18 1455.14C1607.9 1442.43 1601.65 1427.79 1587.06 1422.14C1585.45 1421.51 1579.74 1417.42 1578.15 1417.87C1577.86 1417.96 1579.91 1422.15 1580.12 1422.79" stroke="black" stroke-width="13.5" stroke-linecap="round"/>
</svg>
